%TF.GenerationSoftware,KiCad,Pcbnew,(5.1.10)-1*%
%TF.CreationDate,2021-06-06T01:25:55+08:00*%
%TF.ProjectId,W2S2812B,57325332-3831-4324-922e-6b696361645f,rev?*%
%TF.SameCoordinates,Original*%
%TF.FileFunction,Copper,L2,Bot*%
%TF.FilePolarity,Positive*%
%FSLAX46Y46*%
G04 Gerber Fmt 4.6, Leading zero omitted, Abs format (unit mm)*
G04 Created by KiCad (PCBNEW (5.1.10)-1) date 2021-06-06 01:25:55*
%MOMM*%
%LPD*%
G01*
G04 APERTURE LIST*
%TA.AperFunction,ViaPad*%
%ADD10C,0.800000*%
%TD*%
%TA.AperFunction,Conductor*%
%ADD11C,0.762000*%
%TD*%
%TA.AperFunction,Conductor*%
%ADD12C,0.508000*%
%TD*%
%TA.AperFunction,Conductor*%
%ADD13C,0.254000*%
%TD*%
%TA.AperFunction,Conductor*%
%ADD14C,0.350000*%
%TD*%
%ADD15C,0.350000*%
G04 APERTURE END LIST*
%TO.P,R2,1*%
%TO.N,Net-(R2-Pad1)*%
%TA.AperFunction,ConnectorPad*%
G36*
G01*
X10500000Y18090000D02*
X10500000Y17090000D01*
G75*
G02*
X10000000Y16590000I-500000J0D01*
G01*
X9000000Y16590000D01*
G75*
G02*
X8500000Y17090000I0J500000D01*
G01*
X8500000Y18090000D01*
G75*
G02*
X9000000Y18590000I500000J0D01*
G01*
X10000000Y18590000D01*
G75*
G02*
X10500000Y18090000I0J-500000D01*
G01*
G37*
%TD.AperFunction*%
%TO.P,R2,2*%
%TO.N,Net-(D4-Pad2)*%
%TA.AperFunction,ConnectorPad*%
G36*
G01*
X10500000Y15170000D02*
X10500000Y14170000D01*
G75*
G02*
X10000000Y13670000I-500000J0D01*
G01*
X9000000Y13670000D01*
G75*
G02*
X8500000Y14170000I0J500000D01*
G01*
X8500000Y15170000D01*
G75*
G02*
X9000000Y15670000I500000J0D01*
G01*
X10000000Y15670000D01*
G75*
G02*
X10500000Y15170000I0J-500000D01*
G01*
G37*
%TD.AperFunction*%
%TD*%
%TO.P,R1,1*%
%TO.N,Net-(R1-Pad1)*%
%TA.AperFunction,ConnectorPad*%
G36*
G01*
X7820000Y18040000D02*
X7820000Y17040000D01*
G75*
G02*
X7320000Y16540000I-500000J0D01*
G01*
X6320000Y16540000D01*
G75*
G02*
X5820000Y17040000I0J500000D01*
G01*
X5820000Y18040000D01*
G75*
G02*
X6320000Y18540000I500000J0D01*
G01*
X7320000Y18540000D01*
G75*
G02*
X7820000Y18040000I0J-500000D01*
G01*
G37*
%TD.AperFunction*%
%TO.P,R1,2*%
%TO.N,+5V*%
%TA.AperFunction,ConnectorPad*%
G36*
G01*
X7810000Y14890000D02*
X7810000Y13890000D01*
G75*
G02*
X7310000Y13390000I-500000J0D01*
G01*
X6310000Y13390000D01*
G75*
G02*
X5810000Y13890000I0J500000D01*
G01*
X5810000Y14890000D01*
G75*
G02*
X6310000Y15390000I500000J0D01*
G01*
X7310000Y15390000D01*
G75*
G02*
X7810000Y14890000I0J-500000D01*
G01*
G37*
%TD.AperFunction*%
%TD*%
%TO.P,R4,2*%
%TO.N,N/C*%
%TA.AperFunction,ConnectorPad*%
G36*
G01*
X3420000Y12900000D02*
X4420000Y12900000D01*
G75*
G02*
X4920000Y12400000I0J-500000D01*
G01*
X4920000Y11400000D01*
G75*
G02*
X4420000Y10900000I-500000J0D01*
G01*
X3420000Y10900000D01*
G75*
G02*
X2920000Y11400000I0J500000D01*
G01*
X2920000Y12400000D01*
G75*
G02*
X3420000Y12900000I500000J0D01*
G01*
G37*
%TD.AperFunction*%
%TO.P,R4,1*%
%TA.AperFunction,ConnectorPad*%
G36*
G01*
X500000Y12900000D02*
X1500000Y12900000D01*
G75*
G02*
X2000000Y12400000I0J-500000D01*
G01*
X2000000Y11400000D01*
G75*
G02*
X1500000Y10900000I-500000J0D01*
G01*
X500000Y10900000D01*
G75*
G02*
X0Y11400000I0J500000D01*
G01*
X0Y12400000D01*
G75*
G02*
X500000Y12900000I500000J0D01*
G01*
G37*
%TD.AperFunction*%
%TD*%
%TO.P,R4,2*%
%TO.N,N/C*%
%TA.AperFunction,ConnectorPad*%
G36*
G01*
X3420000Y10170000D02*
X4420000Y10170000D01*
G75*
G02*
X4920000Y9670000I0J-500000D01*
G01*
X4920000Y8670000D01*
G75*
G02*
X4420000Y8170000I-500000J0D01*
G01*
X3420000Y8170000D01*
G75*
G02*
X2920000Y8670000I0J500000D01*
G01*
X2920000Y9670000D01*
G75*
G02*
X3420000Y10170000I500000J0D01*
G01*
G37*
%TD.AperFunction*%
%TO.P,R4,1*%
%TA.AperFunction,ConnectorPad*%
G36*
G01*
X500000Y10170000D02*
X1500000Y10170000D01*
G75*
G02*
X2000000Y9670000I0J-500000D01*
G01*
X2000000Y8670000D01*
G75*
G02*
X1500000Y8170000I-500000J0D01*
G01*
X500000Y8170000D01*
G75*
G02*
X0Y8670000I0J500000D01*
G01*
X0Y9670000D01*
G75*
G02*
X500000Y10170000I500000J0D01*
G01*
G37*
%TD.AperFunction*%
%TD*%
%TO.P,R4,2*%
%TO.N,N/C*%
%TA.AperFunction,ConnectorPad*%
G36*
G01*
X3450000Y7460000D02*
X4450000Y7460000D01*
G75*
G02*
X4950000Y6960000I0J-500000D01*
G01*
X4950000Y5960000D01*
G75*
G02*
X4450000Y5460000I-500000J0D01*
G01*
X3450000Y5460000D01*
G75*
G02*
X2950000Y5960000I0J500000D01*
G01*
X2950000Y6960000D01*
G75*
G02*
X3450000Y7460000I500000J0D01*
G01*
G37*
%TD.AperFunction*%
%TO.P,R4,1*%
%TA.AperFunction,ConnectorPad*%
G36*
G01*
X530000Y7460000D02*
X1530000Y7460000D01*
G75*
G02*
X2030000Y6960000I0J-500000D01*
G01*
X2030000Y5960000D01*
G75*
G02*
X1530000Y5460000I-500000J0D01*
G01*
X530000Y5460000D01*
G75*
G02*
X30000Y5960000I0J500000D01*
G01*
X30000Y6960000D01*
G75*
G02*
X530000Y7460000I500000J0D01*
G01*
G37*
%TD.AperFunction*%
%TD*%
%TO.P,R4,2*%
%TO.N,N/C*%
%TA.AperFunction,ConnectorPad*%
G36*
G01*
X17050000Y7650000D02*
X18050000Y7650000D01*
G75*
G02*
X18550000Y7150000I0J-500000D01*
G01*
X18550000Y6150000D01*
G75*
G02*
X18050000Y5650000I-500000J0D01*
G01*
X17050000Y5650000D01*
G75*
G02*
X16550000Y6150000I0J500000D01*
G01*
X16550000Y7150000D01*
G75*
G02*
X17050000Y7650000I500000J0D01*
G01*
G37*
%TD.AperFunction*%
%TO.P,R4,1*%
%TA.AperFunction,ConnectorPad*%
G36*
G01*
X14130000Y7650000D02*
X15130000Y7650000D01*
G75*
G02*
X15630000Y7150000I0J-500000D01*
G01*
X15630000Y6150000D01*
G75*
G02*
X15130000Y5650000I-500000J0D01*
G01*
X14130000Y5650000D01*
G75*
G02*
X13630000Y6150000I0J500000D01*
G01*
X13630000Y7150000D01*
G75*
G02*
X14130000Y7650000I500000J0D01*
G01*
G37*
%TD.AperFunction*%
%TD*%
%TO.P,R4,2*%
%TO.N,N/C*%
%TA.AperFunction,ConnectorPad*%
G36*
G01*
X17040000Y10400000D02*
X18040000Y10400000D01*
G75*
G02*
X18540000Y9900000I0J-500000D01*
G01*
X18540000Y8900000D01*
G75*
G02*
X18040000Y8400000I-500000J0D01*
G01*
X17040000Y8400000D01*
G75*
G02*
X16540000Y8900000I0J500000D01*
G01*
X16540000Y9900000D01*
G75*
G02*
X17040000Y10400000I500000J0D01*
G01*
G37*
%TD.AperFunction*%
%TO.P,R4,1*%
%TA.AperFunction,ConnectorPad*%
G36*
G01*
X14120000Y10400000D02*
X15120000Y10400000D01*
G75*
G02*
X15620000Y9900000I0J-500000D01*
G01*
X15620000Y8900000D01*
G75*
G02*
X15120000Y8400000I-500000J0D01*
G01*
X14120000Y8400000D01*
G75*
G02*
X13620000Y8900000I0J500000D01*
G01*
X13620000Y9900000D01*
G75*
G02*
X14120000Y10400000I500000J0D01*
G01*
G37*
%TD.AperFunction*%
%TD*%
%TO.P,R4,2*%
%TO.N,N/C*%
%TA.AperFunction,ConnectorPad*%
G36*
G01*
X17010000Y13190000D02*
X18010000Y13190000D01*
G75*
G02*
X18510000Y12690000I0J-500000D01*
G01*
X18510000Y11690000D01*
G75*
G02*
X18010000Y11190000I-500000J0D01*
G01*
X17010000Y11190000D01*
G75*
G02*
X16510000Y11690000I0J500000D01*
G01*
X16510000Y12690000D01*
G75*
G02*
X17010000Y13190000I500000J0D01*
G01*
G37*
%TD.AperFunction*%
%TO.P,R4,1*%
%TA.AperFunction,ConnectorPad*%
G36*
G01*
X14090000Y13190000D02*
X15090000Y13190000D01*
G75*
G02*
X15590000Y12690000I0J-500000D01*
G01*
X15590000Y11690000D01*
G75*
G02*
X15090000Y11190000I-500000J0D01*
G01*
X14090000Y11190000D01*
G75*
G02*
X13590000Y11690000I0J500000D01*
G01*
X13590000Y12690000D01*
G75*
G02*
X14090000Y13190000I500000J0D01*
G01*
G37*
%TD.AperFunction*%
%TD*%
%TO.P,R12,1*%
%TO.N,/OUT_RGB*%
%TA.AperFunction,ConnectorPad*%
G36*
G01*
X10510000Y4840000D02*
X10510000Y3840000D01*
G75*
G02*
X10010000Y3340000I-500000J0D01*
G01*
X9010000Y3340000D01*
G75*
G02*
X8510000Y3840000I0J500000D01*
G01*
X8510000Y4840000D01*
G75*
G02*
X9010000Y5340000I500000J0D01*
G01*
X10010000Y5340000D01*
G75*
G02*
X10510000Y4840000I0J-500000D01*
G01*
G37*
%TD.AperFunction*%
%TO.P,R12,2*%
%TO.N,Net-(R12-Pad2)*%
%TA.AperFunction,ConnectorPad*%
G36*
G01*
X10510000Y1920000D02*
X10510000Y920000D01*
G75*
G02*
X10010000Y420000I-500000J0D01*
G01*
X9010000Y420000D01*
G75*
G02*
X8510000Y920000I0J500000D01*
G01*
X8510000Y1920000D01*
G75*
G02*
X9010000Y2420000I500000J0D01*
G01*
X10010000Y2420000D01*
G75*
G02*
X10510000Y1920000I0J-500000D01*
G01*
G37*
%TD.AperFunction*%
%TD*%
%TO.P,R11,1*%
%TO.N,+5V*%
%TA.AperFunction,ConnectorPad*%
G36*
G01*
X7740000Y4840000D02*
X7740000Y3840000D01*
G75*
G02*
X7240000Y3340000I-500000J0D01*
G01*
X6240000Y3340000D01*
G75*
G02*
X5740000Y3840000I0J500000D01*
G01*
X5740000Y4840000D01*
G75*
G02*
X6240000Y5340000I500000J0D01*
G01*
X7240000Y5340000D01*
G75*
G02*
X7740000Y4840000I0J-500000D01*
G01*
G37*
%TD.AperFunction*%
%TO.P,R11,2*%
%TO.N,Net-(R11-Pad2)*%
%TA.AperFunction,ConnectorPad*%
G36*
G01*
X7740000Y1920000D02*
X7740000Y920000D01*
G75*
G02*
X7240000Y420000I-500000J0D01*
G01*
X6240000Y420000D01*
G75*
G02*
X5740000Y920000I0J500000D01*
G01*
X5740000Y1920000D01*
G75*
G02*
X6240000Y2420000I500000J0D01*
G01*
X7240000Y2420000D01*
G75*
G02*
X7740000Y1920000I0J-500000D01*
G01*
G37*
%TD.AperFunction*%
%TD*%
%TO.P,R4,1*%
%TO.N,GND*%
%TA.AperFunction,ConnectorPad*%
G36*
G01*
X13280000Y4840000D02*
X13280000Y3840000D01*
G75*
G02*
X12780000Y3340000I-500000J0D01*
G01*
X11780000Y3340000D01*
G75*
G02*
X11280000Y3840000I0J500000D01*
G01*
X11280000Y4840000D01*
G75*
G02*
X11780000Y5340000I500000J0D01*
G01*
X12780000Y5340000D01*
G75*
G02*
X13280000Y4840000I0J-500000D01*
G01*
G37*
%TD.AperFunction*%
%TO.P,R4,2*%
%TO.N,Net-(R4-Pad2)*%
%TA.AperFunction,ConnectorPad*%
G36*
G01*
X13280000Y1920000D02*
X13280000Y920000D01*
G75*
G02*
X12780000Y420000I-500000J0D01*
G01*
X11780000Y420000D01*
G75*
G02*
X11280000Y920000I0J500000D01*
G01*
X11280000Y1920000D01*
G75*
G02*
X11780000Y2420000I500000J0D01*
G01*
X12780000Y2420000D01*
G75*
G02*
X13280000Y1920000I0J-500000D01*
G01*
G37*
%TD.AperFunction*%
%TD*%
%TO.P,R3,1*%
%TO.N,Net-(R3-Pad1)*%
%TA.AperFunction,ConnectorPad*%
G36*
G01*
X13210000Y18120000D02*
X13210000Y17120000D01*
G75*
G02*
X12710000Y16620000I-500000J0D01*
G01*
X11710000Y16620000D01*
G75*
G02*
X11210000Y17120000I0J500000D01*
G01*
X11210000Y18120000D01*
G75*
G02*
X11710000Y18620000I500000J0D01*
G01*
X12710000Y18620000D01*
G75*
G02*
X13210000Y18120000I0J-500000D01*
G01*
G37*
%TD.AperFunction*%
%TO.P,R3,2*%
%TO.N,GND*%
%TA.AperFunction,ConnectorPad*%
G36*
G01*
X13210000Y15200000D02*
X13210000Y14200000D01*
G75*
G02*
X12710000Y13700000I-500000J0D01*
G01*
X11710000Y13700000D01*
G75*
G02*
X11210000Y14200000I0J500000D01*
G01*
X11210000Y15200000D01*
G75*
G02*
X11710000Y15700000I500000J0D01*
G01*
X12710000Y15700000D01*
G75*
G02*
X13210000Y15200000I0J-500000D01*
G01*
G37*
%TD.AperFunction*%
%TD*%
%TO.P,J1,3*%
%TO.N,GND*%
%TA.AperFunction,ComponentPad*%
G36*
G01*
X12528000Y7664000D02*
X11512000Y7664000D01*
G75*
G02*
X11004000Y8172000I0J508000D01*
G01*
X11004000Y9188000D01*
G75*
G02*
X11512000Y9696000I508000J0D01*
G01*
X12528000Y9696000D01*
G75*
G02*
X13036000Y9188000I0J-508000D01*
G01*
X13036000Y8172000D01*
G75*
G02*
X12528000Y7664000I-508000J0D01*
G01*
G37*
%TD.AperFunction*%
%TO.P,J1,2*%
%TO.N,/OUT_RGB*%
%TA.AperFunction,ComponentPad*%
G36*
G01*
X9988000Y7664000D02*
X8972000Y7664000D01*
G75*
G02*
X8464000Y8172000I0J508000D01*
G01*
X8464000Y9188000D01*
G75*
G02*
X8972000Y9696000I508000J0D01*
G01*
X9988000Y9696000D01*
G75*
G02*
X10496000Y9188000I0J-508000D01*
G01*
X10496000Y8172000D01*
G75*
G02*
X9988000Y7664000I-508000J0D01*
G01*
G37*
%TD.AperFunction*%
%TO.P,J1,1*%
%TO.N,+5V*%
%TA.AperFunction,ComponentPad*%
G36*
G01*
X7448000Y7664000D02*
X6432000Y7664000D01*
G75*
G02*
X5924000Y8172000I0J508000D01*
G01*
X5924000Y9188000D01*
G75*
G02*
X6432000Y9696000I508000J0D01*
G01*
X7448000Y9696000D01*
G75*
G02*
X7956000Y9188000I0J-508000D01*
G01*
X7956000Y8172000D01*
G75*
G02*
X7448000Y7664000I-508000J0D01*
G01*
G37*
%TD.AperFunction*%
%TD*%
D10*
%TO.N,*%
X12960000Y11560000D03*
%TO.N,GND*%
X17830000Y14860000D03*
X7830000Y11150000D03*
X15210000Y3540000D03*
X1010000Y4110000D03*
X-250000Y14130000D03*
X10780000Y11750000D03*
%TO.N,Net-(D4-Pad2)*%
X2600000Y2560000D03*
%TD*%
D11*
%TO.N,+5V*%
X6840000Y11420000D02*
X6840000Y8760000D01*
X6820000Y11440000D02*
X6840000Y11420000D01*
X6820000Y14620000D02*
X6820000Y11440000D01*
X6740000Y8480000D02*
X6940000Y8680000D01*
X6740000Y4340000D02*
X6740000Y8480000D01*
D12*
%TO.N,/OUT_RGB*%
X9510000Y8650000D02*
X9480000Y8680000D01*
X9510000Y4340000D02*
X9510000Y8650000D01*
%TO.N,Net-(D4-Pad2)*%
X9500000Y14737980D02*
X9500000Y14670000D01*
X5820000Y15970000D02*
X8200000Y15970000D01*
X5301010Y15451010D02*
X5820000Y15970000D01*
X5301010Y13311010D02*
X5301010Y15451010D01*
X8200000Y15970000D02*
X9500000Y14670000D01*
X5510000Y5355938D02*
X5510000Y13102020D01*
X2714062Y2560000D02*
X5510000Y5355938D01*
X5510000Y13102020D02*
X5301010Y13311010D01*
X2600000Y2560000D02*
X2714062Y2560000D01*
%TD*%
D13*
%TO.N,GND*%
X2503728Y5327721D02*
X2645262Y5155262D01*
X2817721Y5013728D01*
X3014479Y4908559D01*
X3227973Y4843796D01*
X3450000Y4821928D01*
X3718754Y4821928D01*
X2490279Y3593452D01*
X2298102Y3555226D01*
X2109744Y3477205D01*
X1940226Y3363937D01*
X1796063Y3219774D01*
X1682795Y3050256D01*
X1604774Y2861898D01*
X1565000Y2661939D01*
X1565000Y2458061D01*
X1604774Y2258102D01*
X1682795Y2069744D01*
X1796063Y1900226D01*
X1940226Y1756063D01*
X2109744Y1642795D01*
X2298102Y1564774D01*
X2498061Y1525000D01*
X2701939Y1525000D01*
X2901898Y1564774D01*
X3090256Y1642795D01*
X3259774Y1756063D01*
X3403937Y1900226D01*
X3517205Y2069744D01*
X3542777Y2131480D01*
X5115321Y3704023D01*
X5123796Y3617973D01*
X5188559Y3404479D01*
X5293728Y3207721D01*
X5435262Y3035262D01*
X5607721Y2893728D01*
X5633404Y2880000D01*
X5607721Y2866272D01*
X5435262Y2724738D01*
X5293728Y2552279D01*
X5188559Y2355521D01*
X5123796Y2142027D01*
X5101928Y1920000D01*
X5101928Y920000D01*
X5123796Y697973D01*
X5188559Y484479D01*
X5293728Y287721D01*
X5435262Y115262D01*
X5607721Y-26272D01*
X5804479Y-131441D01*
X6017973Y-196204D01*
X6240000Y-218072D01*
X6740001Y-218072D01*
X6740001Y-340000D01*
X4260000Y-340000D01*
X4260000Y-32418D01*
X4263193Y0D01*
X4250450Y129383D01*
X4212710Y253793D01*
X4151425Y368450D01*
X4068948Y468948D01*
X3968450Y551425D01*
X3853793Y612710D01*
X3729383Y650450D01*
X3632419Y660000D01*
X3600000Y663193D01*
X3567581Y660000D01*
X660000Y660000D01*
X660000Y3567582D01*
X663193Y3600000D01*
X650450Y3729383D01*
X612710Y3853793D01*
X551425Y3968450D01*
X468948Y4068948D01*
X368450Y4151425D01*
X253793Y4212710D01*
X129383Y4250450D01*
X32419Y4260000D01*
X0Y4263193D01*
X-32419Y4260000D01*
X-340000Y4260000D01*
X-340000Y5234784D01*
X-274738Y5155262D01*
X-102279Y5013728D01*
X94479Y4908559D01*
X307973Y4843796D01*
X530000Y4821928D01*
X1530000Y4821928D01*
X1752027Y4843796D01*
X1965521Y4908559D01*
X2162279Y5013728D01*
X2334738Y5155262D01*
X2476272Y5327721D01*
X2490000Y5353404D01*
X2503728Y5327721D01*
%TA.AperFunction,Conductor*%
D14*
G36*
X2503728Y5327721D02*
G01*
X2645262Y5155262D01*
X2817721Y5013728D01*
X3014479Y4908559D01*
X3227973Y4843796D01*
X3450000Y4821928D01*
X3718754Y4821928D01*
X2490279Y3593452D01*
X2298102Y3555226D01*
X2109744Y3477205D01*
X1940226Y3363937D01*
X1796063Y3219774D01*
X1682795Y3050256D01*
X1604774Y2861898D01*
X1565000Y2661939D01*
X1565000Y2458061D01*
X1604774Y2258102D01*
X1682795Y2069744D01*
X1796063Y1900226D01*
X1940226Y1756063D01*
X2109744Y1642795D01*
X2298102Y1564774D01*
X2498061Y1525000D01*
X2701939Y1525000D01*
X2901898Y1564774D01*
X3090256Y1642795D01*
X3259774Y1756063D01*
X3403937Y1900226D01*
X3517205Y2069744D01*
X3542777Y2131480D01*
X5115321Y3704023D01*
X5123796Y3617973D01*
X5188559Y3404479D01*
X5293728Y3207721D01*
X5435262Y3035262D01*
X5607721Y2893728D01*
X5633404Y2880000D01*
X5607721Y2866272D01*
X5435262Y2724738D01*
X5293728Y2552279D01*
X5188559Y2355521D01*
X5123796Y2142027D01*
X5101928Y1920000D01*
X5101928Y920000D01*
X5123796Y697973D01*
X5188559Y484479D01*
X5293728Y287721D01*
X5435262Y115262D01*
X5607721Y-26272D01*
X5804479Y-131441D01*
X6017973Y-196204D01*
X6240000Y-218072D01*
X6740001Y-218072D01*
X6740001Y-340000D01*
X4260000Y-340000D01*
X4260000Y-32418D01*
X4263193Y0D01*
X4250450Y129383D01*
X4212710Y253793D01*
X4151425Y368450D01*
X4068948Y468948D01*
X3968450Y551425D01*
X3853793Y612710D01*
X3729383Y650450D01*
X3632419Y660000D01*
X3600000Y663193D01*
X3567581Y660000D01*
X660000Y660000D01*
X660000Y3567582D01*
X663193Y3600000D01*
X650450Y3729383D01*
X612710Y3853793D01*
X551425Y3968450D01*
X468948Y4068948D01*
X368450Y4151425D01*
X253793Y4212710D01*
X129383Y4250450D01*
X32419Y4260000D01*
X0Y4263193D01*
X-32419Y4260000D01*
X-340000Y4260000D01*
X-340000Y5234784D01*
X-274738Y5155262D01*
X-102279Y5013728D01*
X94479Y4908559D01*
X307973Y4843796D01*
X530000Y4821928D01*
X1530000Y4821928D01*
X1752027Y4843796D01*
X1965521Y4908559D01*
X2162279Y5013728D01*
X2334738Y5155262D01*
X2476272Y5327721D01*
X2490000Y5353404D01*
X2503728Y5327721D01*
G37*
%TD.AperFunction*%
D13*
X14740000Y19032420D02*
X14736807Y19000000D01*
X14749550Y18870617D01*
X14787290Y18746207D01*
X14848575Y18631550D01*
X14910971Y18555521D01*
X14931052Y18531052D01*
X15031550Y18448575D01*
X15146207Y18387290D01*
X15270617Y18349550D01*
X15400000Y18336807D01*
X15432419Y18340000D01*
X18340000Y18340000D01*
X18340001Y15432429D01*
X18336807Y15400000D01*
X18349550Y15270617D01*
X18387290Y15146207D01*
X18448575Y15031550D01*
X18531052Y14931052D01*
X18631550Y14848575D01*
X18746207Y14787290D01*
X18870617Y14749550D01*
X18967581Y14740000D01*
X19000000Y14736807D01*
X19032419Y14740000D01*
X19340001Y14740000D01*
X19340000Y12260000D01*
X19148072Y12260000D01*
X19148072Y12690000D01*
X19126204Y12912027D01*
X19061441Y13125521D01*
X18956272Y13322279D01*
X18814738Y13494738D01*
X18642279Y13636272D01*
X18445521Y13741441D01*
X18232027Y13806204D01*
X18010000Y13828072D01*
X17010000Y13828072D01*
X16787973Y13806204D01*
X16574479Y13741441D01*
X16377721Y13636272D01*
X16205262Y13494738D01*
X16063728Y13322279D01*
X16050000Y13296596D01*
X16036272Y13322279D01*
X15894738Y13494738D01*
X15722279Y13636272D01*
X15525521Y13741441D01*
X15312027Y13806204D01*
X15090000Y13828072D01*
X14090000Y13828072D01*
X13867973Y13806204D01*
X13847642Y13800037D01*
X13845000Y14414250D01*
X13686250Y14573000D01*
X12337000Y14573000D01*
X12337000Y13223750D01*
X12495750Y13065000D01*
X13019517Y13062747D01*
X12973796Y12912027D01*
X12951928Y12690000D01*
X12951928Y12595000D01*
X12858061Y12595000D01*
X12658102Y12555226D01*
X12469744Y12477205D01*
X12300226Y12363937D01*
X12156063Y12219774D01*
X12042795Y12050256D01*
X11964774Y11861898D01*
X11925000Y11661939D01*
X11925000Y11458061D01*
X11964774Y11258102D01*
X12042795Y11069744D01*
X12156063Y10900226D01*
X12300226Y10756063D01*
X12469744Y10642795D01*
X12658102Y10564774D01*
X12858061Y10525000D01*
X13061939Y10525000D01*
X13188398Y10550154D01*
X13173728Y10532279D01*
X13068559Y10335521D01*
X13067188Y10331000D01*
X13036000Y10334072D01*
X12305750Y10331000D01*
X12147000Y10172250D01*
X12147000Y8807000D01*
X12167000Y8807000D01*
X12167000Y8553000D01*
X12147000Y8553000D01*
X12147000Y7187750D01*
X12305750Y7029000D01*
X12991928Y7026113D01*
X12991928Y6150000D01*
X13008976Y5976906D01*
X12565750Y5975000D01*
X12407000Y5816250D01*
X12407000Y4467000D01*
X13756250Y4467000D01*
X13915000Y4625750D01*
X13916751Y5032931D01*
X14130000Y5011928D01*
X15130000Y5011928D01*
X15352027Y5033796D01*
X15565521Y5098559D01*
X15762279Y5203728D01*
X15934738Y5345262D01*
X16076272Y5517721D01*
X16090000Y5543404D01*
X16103728Y5517721D01*
X16245262Y5345262D01*
X16417721Y5203728D01*
X16614479Y5098559D01*
X16827973Y5033796D01*
X17050000Y5011928D01*
X18050000Y5011928D01*
X18272027Y5033796D01*
X18485521Y5098559D01*
X18682279Y5203728D01*
X18854738Y5345262D01*
X18996272Y5517721D01*
X19101441Y5714479D01*
X19166204Y5927973D01*
X19188072Y6150000D01*
X19188072Y6740000D01*
X19340001Y6740000D01*
X19340000Y4260000D01*
X19032419Y4260000D01*
X19000000Y4263193D01*
X18967581Y4260000D01*
X18870617Y4250450D01*
X18746207Y4212710D01*
X18631550Y4151425D01*
X18531052Y4068948D01*
X18448575Y3968450D01*
X18387290Y3853793D01*
X18349550Y3729383D01*
X18336807Y3600000D01*
X18340001Y3567571D01*
X18340000Y660000D01*
X15432419Y660000D01*
X15400000Y663193D01*
X15367581Y660000D01*
X15270617Y650450D01*
X15146207Y612710D01*
X15031550Y551425D01*
X14931052Y468948D01*
X14848575Y368450D01*
X14787290Y253793D01*
X14749550Y129383D01*
X14736807Y0D01*
X14740001Y-32429D01*
X14740001Y-340000D01*
X12260000Y-340000D01*
X12260000Y-218072D01*
X12780000Y-218072D01*
X13002027Y-196204D01*
X13215521Y-131441D01*
X13412279Y-26272D01*
X13584738Y115262D01*
X13726272Y287721D01*
X13831441Y484479D01*
X13896204Y697973D01*
X13918072Y920000D01*
X13918072Y1920000D01*
X13896204Y2142027D01*
X13831441Y2355521D01*
X13726272Y2552279D01*
X13584738Y2724738D01*
X13541844Y2759940D01*
X13634494Y2809463D01*
X13731185Y2888815D01*
X13810537Y2985506D01*
X13869502Y3095820D01*
X13905812Y3215518D01*
X13918072Y3340000D01*
X13915000Y4054250D01*
X13756250Y4213000D01*
X12407000Y4213000D01*
X12407000Y4193000D01*
X12153000Y4193000D01*
X12153000Y4213000D01*
X12133000Y4213000D01*
X12133000Y4467000D01*
X12153000Y4467000D01*
X12153000Y5816250D01*
X11994250Y5975000D01*
X11280000Y5978072D01*
X11155518Y5965812D01*
X11035820Y5929502D01*
X10925506Y5870537D01*
X10828815Y5791185D01*
X10751333Y5696773D01*
X10642279Y5786272D01*
X10445521Y5891441D01*
X10399000Y5905553D01*
X10399000Y7104801D01*
X10426583Y7113168D01*
X10576557Y7193331D01*
X10649506Y7133463D01*
X10759820Y7074498D01*
X10879518Y7038188D01*
X11004000Y7025928D01*
X11734250Y7029000D01*
X11893000Y7187750D01*
X11893000Y8553000D01*
X11873000Y8553000D01*
X11873000Y8807000D01*
X11893000Y8807000D01*
X11893000Y10172250D01*
X11734250Y10331000D01*
X11004000Y10334072D01*
X10879518Y10321812D01*
X10759820Y10285502D01*
X10649506Y10226537D01*
X10576557Y10166669D01*
X10426583Y10246832D01*
X10211588Y10312051D01*
X9988000Y10334072D01*
X8972000Y10334072D01*
X8748412Y10312051D01*
X8533417Y10246832D01*
X8335277Y10140924D01*
X8210000Y10038112D01*
X8084723Y10140924D01*
X7886583Y10246832D01*
X7856000Y10256109D01*
X7856000Y11370107D01*
X7860914Y11420001D01*
X7856000Y11469895D01*
X7856000Y11469902D01*
X7841298Y11619171D01*
X7836000Y11636636D01*
X7836000Y12886921D01*
X7942279Y12943728D01*
X8114738Y13085262D01*
X8256272Y13257721D01*
X8277624Y13297669D01*
X8367721Y13223728D01*
X8564479Y13118559D01*
X8777973Y13053796D01*
X9000000Y13031928D01*
X10000000Y13031928D01*
X10222027Y13053796D01*
X10435521Y13118559D01*
X10632279Y13223728D01*
X10720192Y13295877D01*
X10758815Y13248815D01*
X10855506Y13169463D01*
X10965820Y13110498D01*
X11085518Y13074188D01*
X11210000Y13061928D01*
X11924250Y13065000D01*
X12083000Y13223750D01*
X12083000Y14573000D01*
X12063000Y14573000D01*
X12063000Y14827000D01*
X12083000Y14827000D01*
X12083000Y14847000D01*
X12337000Y14847000D01*
X12337000Y14827000D01*
X13686250Y14827000D01*
X13845000Y14985750D01*
X13848072Y15700000D01*
X13835812Y15824482D01*
X13799502Y15944180D01*
X13740537Y16054494D01*
X13661185Y16151185D01*
X13564494Y16230537D01*
X13471844Y16280060D01*
X13514738Y16315262D01*
X13656272Y16487721D01*
X13761441Y16684479D01*
X13826204Y16897973D01*
X13848072Y17120000D01*
X13848072Y18120000D01*
X13826204Y18342027D01*
X13761441Y18555521D01*
X13656272Y18752279D01*
X13514738Y18924738D01*
X13342279Y19066272D01*
X13145521Y19171441D01*
X12932027Y19236204D01*
X12710000Y19258072D01*
X12260000Y19258072D01*
X12260000Y19340000D01*
X14740000Y19340000D01*
X14740000Y19032420D01*
%TA.AperFunction,Conductor*%
D14*
G36*
X14740000Y19032420D02*
G01*
X14736807Y19000000D01*
X14749550Y18870617D01*
X14787290Y18746207D01*
X14848575Y18631550D01*
X14910971Y18555521D01*
X14931052Y18531052D01*
X15031550Y18448575D01*
X15146207Y18387290D01*
X15270617Y18349550D01*
X15400000Y18336807D01*
X15432419Y18340000D01*
X18340000Y18340000D01*
X18340001Y15432429D01*
X18336807Y15400000D01*
X18349550Y15270617D01*
X18387290Y15146207D01*
X18448575Y15031550D01*
X18531052Y14931052D01*
X18631550Y14848575D01*
X18746207Y14787290D01*
X18870617Y14749550D01*
X18967581Y14740000D01*
X19000000Y14736807D01*
X19032419Y14740000D01*
X19340001Y14740000D01*
X19340000Y12260000D01*
X19148072Y12260000D01*
X19148072Y12690000D01*
X19126204Y12912027D01*
X19061441Y13125521D01*
X18956272Y13322279D01*
X18814738Y13494738D01*
X18642279Y13636272D01*
X18445521Y13741441D01*
X18232027Y13806204D01*
X18010000Y13828072D01*
X17010000Y13828072D01*
X16787973Y13806204D01*
X16574479Y13741441D01*
X16377721Y13636272D01*
X16205262Y13494738D01*
X16063728Y13322279D01*
X16050000Y13296596D01*
X16036272Y13322279D01*
X15894738Y13494738D01*
X15722279Y13636272D01*
X15525521Y13741441D01*
X15312027Y13806204D01*
X15090000Y13828072D01*
X14090000Y13828072D01*
X13867973Y13806204D01*
X13847642Y13800037D01*
X13845000Y14414250D01*
X13686250Y14573000D01*
X12337000Y14573000D01*
X12337000Y13223750D01*
X12495750Y13065000D01*
X13019517Y13062747D01*
X12973796Y12912027D01*
X12951928Y12690000D01*
X12951928Y12595000D01*
X12858061Y12595000D01*
X12658102Y12555226D01*
X12469744Y12477205D01*
X12300226Y12363937D01*
X12156063Y12219774D01*
X12042795Y12050256D01*
X11964774Y11861898D01*
X11925000Y11661939D01*
X11925000Y11458061D01*
X11964774Y11258102D01*
X12042795Y11069744D01*
X12156063Y10900226D01*
X12300226Y10756063D01*
X12469744Y10642795D01*
X12658102Y10564774D01*
X12858061Y10525000D01*
X13061939Y10525000D01*
X13188398Y10550154D01*
X13173728Y10532279D01*
X13068559Y10335521D01*
X13067188Y10331000D01*
X13036000Y10334072D01*
X12305750Y10331000D01*
X12147000Y10172250D01*
X12147000Y8807000D01*
X12167000Y8807000D01*
X12167000Y8553000D01*
X12147000Y8553000D01*
X12147000Y7187750D01*
X12305750Y7029000D01*
X12991928Y7026113D01*
X12991928Y6150000D01*
X13008976Y5976906D01*
X12565750Y5975000D01*
X12407000Y5816250D01*
X12407000Y4467000D01*
X13756250Y4467000D01*
X13915000Y4625750D01*
X13916751Y5032931D01*
X14130000Y5011928D01*
X15130000Y5011928D01*
X15352027Y5033796D01*
X15565521Y5098559D01*
X15762279Y5203728D01*
X15934738Y5345262D01*
X16076272Y5517721D01*
X16090000Y5543404D01*
X16103728Y5517721D01*
X16245262Y5345262D01*
X16417721Y5203728D01*
X16614479Y5098559D01*
X16827973Y5033796D01*
X17050000Y5011928D01*
X18050000Y5011928D01*
X18272027Y5033796D01*
X18485521Y5098559D01*
X18682279Y5203728D01*
X18854738Y5345262D01*
X18996272Y5517721D01*
X19101441Y5714479D01*
X19166204Y5927973D01*
X19188072Y6150000D01*
X19188072Y6740000D01*
X19340001Y6740000D01*
X19340000Y4260000D01*
X19032419Y4260000D01*
X19000000Y4263193D01*
X18967581Y4260000D01*
X18870617Y4250450D01*
X18746207Y4212710D01*
X18631550Y4151425D01*
X18531052Y4068948D01*
X18448575Y3968450D01*
X18387290Y3853793D01*
X18349550Y3729383D01*
X18336807Y3600000D01*
X18340001Y3567571D01*
X18340000Y660000D01*
X15432419Y660000D01*
X15400000Y663193D01*
X15367581Y660000D01*
X15270617Y650450D01*
X15146207Y612710D01*
X15031550Y551425D01*
X14931052Y468948D01*
X14848575Y368450D01*
X14787290Y253793D01*
X14749550Y129383D01*
X14736807Y0D01*
X14740001Y-32429D01*
X14740001Y-340000D01*
X12260000Y-340000D01*
X12260000Y-218072D01*
X12780000Y-218072D01*
X13002027Y-196204D01*
X13215521Y-131441D01*
X13412279Y-26272D01*
X13584738Y115262D01*
X13726272Y287721D01*
X13831441Y484479D01*
X13896204Y697973D01*
X13918072Y920000D01*
X13918072Y1920000D01*
X13896204Y2142027D01*
X13831441Y2355521D01*
X13726272Y2552279D01*
X13584738Y2724738D01*
X13541844Y2759940D01*
X13634494Y2809463D01*
X13731185Y2888815D01*
X13810537Y2985506D01*
X13869502Y3095820D01*
X13905812Y3215518D01*
X13918072Y3340000D01*
X13915000Y4054250D01*
X13756250Y4213000D01*
X12407000Y4213000D01*
X12407000Y4193000D01*
X12153000Y4193000D01*
X12153000Y4213000D01*
X12133000Y4213000D01*
X12133000Y4467000D01*
X12153000Y4467000D01*
X12153000Y5816250D01*
X11994250Y5975000D01*
X11280000Y5978072D01*
X11155518Y5965812D01*
X11035820Y5929502D01*
X10925506Y5870537D01*
X10828815Y5791185D01*
X10751333Y5696773D01*
X10642279Y5786272D01*
X10445521Y5891441D01*
X10399000Y5905553D01*
X10399000Y7104801D01*
X10426583Y7113168D01*
X10576557Y7193331D01*
X10649506Y7133463D01*
X10759820Y7074498D01*
X10879518Y7038188D01*
X11004000Y7025928D01*
X11734250Y7029000D01*
X11893000Y7187750D01*
X11893000Y8553000D01*
X11873000Y8553000D01*
X11873000Y8807000D01*
X11893000Y8807000D01*
X11893000Y10172250D01*
X11734250Y10331000D01*
X11004000Y10334072D01*
X10879518Y10321812D01*
X10759820Y10285502D01*
X10649506Y10226537D01*
X10576557Y10166669D01*
X10426583Y10246832D01*
X10211588Y10312051D01*
X9988000Y10334072D01*
X8972000Y10334072D01*
X8748412Y10312051D01*
X8533417Y10246832D01*
X8335277Y10140924D01*
X8210000Y10038112D01*
X8084723Y10140924D01*
X7886583Y10246832D01*
X7856000Y10256109D01*
X7856000Y11370107D01*
X7860914Y11420001D01*
X7856000Y11469895D01*
X7856000Y11469902D01*
X7841298Y11619171D01*
X7836000Y11636636D01*
X7836000Y12886921D01*
X7942279Y12943728D01*
X8114738Y13085262D01*
X8256272Y13257721D01*
X8277624Y13297669D01*
X8367721Y13223728D01*
X8564479Y13118559D01*
X8777973Y13053796D01*
X9000000Y13031928D01*
X10000000Y13031928D01*
X10222027Y13053796D01*
X10435521Y13118559D01*
X10632279Y13223728D01*
X10720192Y13295877D01*
X10758815Y13248815D01*
X10855506Y13169463D01*
X10965820Y13110498D01*
X11085518Y13074188D01*
X11210000Y13061928D01*
X11924250Y13065000D01*
X12083000Y13223750D01*
X12083000Y14573000D01*
X12063000Y14573000D01*
X12063000Y14827000D01*
X12083000Y14827000D01*
X12083000Y14847000D01*
X12337000Y14847000D01*
X12337000Y14827000D01*
X13686250Y14827000D01*
X13845000Y14985750D01*
X13848072Y15700000D01*
X13835812Y15824482D01*
X13799502Y15944180D01*
X13740537Y16054494D01*
X13661185Y16151185D01*
X13564494Y16230537D01*
X13471844Y16280060D01*
X13514738Y16315262D01*
X13656272Y16487721D01*
X13761441Y16684479D01*
X13826204Y16897973D01*
X13848072Y17120000D01*
X13848072Y18120000D01*
X13826204Y18342027D01*
X13761441Y18555521D01*
X13656272Y18752279D01*
X13514738Y18924738D01*
X13342279Y19066272D01*
X13145521Y19171441D01*
X12932027Y19236204D01*
X12710000Y19258072D01*
X12260000Y19258072D01*
X12260000Y19340000D01*
X14740000Y19340000D01*
X14740000Y19032420D01*
G37*
%TD.AperFunction*%
D13*
X6740000Y19178072D02*
X6320000Y19178072D01*
X6097973Y19156204D01*
X5884479Y19091441D01*
X5687721Y18986272D01*
X5515262Y18844738D01*
X5373728Y18672279D01*
X5268559Y18475521D01*
X5203796Y18262027D01*
X5181928Y18040000D01*
X5181928Y17040000D01*
X5203796Y16817973D01*
X5253254Y16654932D01*
X5188341Y16601659D01*
X5160501Y16567736D01*
X4703269Y16110504D01*
X4669352Y16082669D01*
X4641517Y16048752D01*
X4641515Y16048750D01*
X4558258Y15947301D01*
X4475708Y15792862D01*
X4424874Y15625284D01*
X4407710Y15451010D01*
X4412011Y15407340D01*
X4412010Y13538072D01*
X3420000Y13538072D01*
X3197973Y13516204D01*
X2984479Y13451441D01*
X2787721Y13346272D01*
X2615262Y13204738D01*
X2473728Y13032279D01*
X2460000Y13006596D01*
X2446272Y13032279D01*
X2304738Y13204738D01*
X2132279Y13346272D01*
X1935521Y13451441D01*
X1722027Y13516204D01*
X1500000Y13538072D01*
X500000Y13538072D01*
X277973Y13516204D01*
X64479Y13451441D01*
X-132279Y13346272D01*
X-304738Y13204738D01*
X-340000Y13161771D01*
X-340000Y14740000D01*
X-32419Y14740000D01*
X0Y14736807D01*
X32419Y14740000D01*
X129383Y14749550D01*
X253793Y14787290D01*
X368450Y14848575D01*
X468948Y14931052D01*
X551425Y15031550D01*
X612710Y15146207D01*
X650450Y15270617D01*
X663193Y15400000D01*
X660000Y15432419D01*
X660000Y18340000D01*
X3567581Y18340000D01*
X3600000Y18336807D01*
X3632419Y18340000D01*
X3729383Y18349550D01*
X3853793Y18387290D01*
X3968450Y18448575D01*
X4068948Y18531052D01*
X4151425Y18631550D01*
X4212710Y18746207D01*
X4250450Y18870617D01*
X4263193Y19000000D01*
X4260000Y19032419D01*
X4260000Y19340000D01*
X6740000Y19340000D01*
X6740000Y19178072D01*
%TA.AperFunction,Conductor*%
D14*
G36*
X6740000Y19178072D02*
G01*
X6320000Y19178072D01*
X6097973Y19156204D01*
X5884479Y19091441D01*
X5687721Y18986272D01*
X5515262Y18844738D01*
X5373728Y18672279D01*
X5268559Y18475521D01*
X5203796Y18262027D01*
X5181928Y18040000D01*
X5181928Y17040000D01*
X5203796Y16817973D01*
X5253254Y16654932D01*
X5188341Y16601659D01*
X5160501Y16567736D01*
X4703269Y16110504D01*
X4669352Y16082669D01*
X4641517Y16048752D01*
X4641515Y16048750D01*
X4558258Y15947301D01*
X4475708Y15792862D01*
X4424874Y15625284D01*
X4407710Y15451010D01*
X4412011Y15407340D01*
X4412010Y13538072D01*
X3420000Y13538072D01*
X3197973Y13516204D01*
X2984479Y13451441D01*
X2787721Y13346272D01*
X2615262Y13204738D01*
X2473728Y13032279D01*
X2460000Y13006596D01*
X2446272Y13032279D01*
X2304738Y13204738D01*
X2132279Y13346272D01*
X1935521Y13451441D01*
X1722027Y13516204D01*
X1500000Y13538072D01*
X500000Y13538072D01*
X277973Y13516204D01*
X64479Y13451441D01*
X-132279Y13346272D01*
X-304738Y13204738D01*
X-340000Y13161771D01*
X-340000Y14740000D01*
X-32419Y14740000D01*
X0Y14736807D01*
X32419Y14740000D01*
X129383Y14749550D01*
X253793Y14787290D01*
X368450Y14848575D01*
X468948Y14931052D01*
X551425Y15031550D01*
X612710Y15146207D01*
X650450Y15270617D01*
X663193Y15400000D01*
X660000Y15432419D01*
X660000Y18340000D01*
X3567581Y18340000D01*
X3600000Y18336807D01*
X3632419Y18340000D01*
X3729383Y18349550D01*
X3853793Y18387290D01*
X3968450Y18448575D01*
X4068948Y18531052D01*
X4151425Y18631550D01*
X4212710Y18746207D01*
X4250450Y18870617D01*
X4263193Y19000000D01*
X4260000Y19032419D01*
X4260000Y19340000D01*
X6740000Y19340000D01*
X6740000Y19178072D01*
G37*
%TD.AperFunction*%
%TD*%
D15*
X12960000Y11560000D03*
X17830000Y14860000D03*
X7830000Y11150000D03*
X15210000Y3540000D03*
X1010000Y4110000D03*
X-250000Y14130000D03*
X10780000Y11750000D03*
X2600000Y2560000D03*
X12020000Y8680000D03*
X9480000Y8680000D03*
X6940000Y8680000D03*
M02*
