%TF.GenerationSoftware,KiCad,Pcbnew,(5.1.10)-1*%
%TF.CreationDate,2021-06-06T01:25:55+08:00*%
%TF.ProjectId,W2S2812B,57325332-3831-4324-922e-6b696361645f,rev?*%
%TF.SameCoordinates,Original*%
%TF.FileFunction,Legend,Top*%
%TF.FilePolarity,Positive*%
%FSLAX46Y46*%
G04 Gerber Fmt 4.6, Leading zero omitted, Abs format (unit mm)*
G04 Created by KiCad (PCBNEW (5.1.10)-1) date 2021-06-06 01:25:55*
%MOMM*%
%LPD*%
G01*
G04 APERTURE LIST*
%ADD10C,0.120000*%
%ADD11C,0.150000*%
G04 APERTURE END LIST*
D10*
%TO.C,J1*%
X5610000Y7350000D02*
X5610000Y8680000D01*
X6940000Y7350000D02*
X5610000Y7350000D01*
X8210000Y7350000D02*
X8210000Y10010000D01*
X8210000Y10010000D02*
X13350000Y10010000D01*
X8210000Y7350000D02*
X13350000Y7350000D01*
X13350000Y7350000D02*
X13350000Y10010000D01*
%TO.C,D4*%
X8690000Y1400000D02*
X8690000Y2550000D01*
X1390000Y1400000D02*
X8690000Y1400000D01*
X1390000Y6900000D02*
X8690000Y6900000D01*
%TO.C,D3*%
X18240000Y1700000D02*
X18240000Y2850000D01*
X10940000Y1700000D02*
X18240000Y1700000D01*
X10940000Y7200000D02*
X18240000Y7200000D01*
%TO.C,D2*%
X18090000Y12060000D02*
X18090000Y13210000D01*
X10790000Y12060000D02*
X18090000Y12060000D01*
X10790000Y17560000D02*
X18090000Y17560000D01*
%TO.C,D1*%
X8690000Y12190000D02*
X8690000Y13340000D01*
X1390000Y12190000D02*
X8690000Y12190000D01*
X1390000Y17690000D02*
X8690000Y17690000D01*
%TO.C,C4*%
X16436233Y8300000D02*
X16728767Y8300000D01*
X16436233Y9320000D02*
X16728767Y9320000D01*
%TO.C,C3*%
X3166267Y11660000D02*
X2873733Y11660000D01*
X3166267Y10640000D02*
X2873733Y10640000D01*
%TO.C,C2*%
X16441233Y10310000D02*
X16733767Y10310000D01*
X16441233Y11330000D02*
X16733767Y11330000D01*
%TO.C,C1*%
X3106267Y9210000D02*
X2813733Y9210000D01*
X3106267Y8190000D02*
X2813733Y8190000D01*
%TO.C,J1*%
D11*
X4062380Y8346666D02*
X4776666Y8346666D01*
X4919523Y8299047D01*
X5014761Y8203809D01*
X5062380Y8060952D01*
X5062380Y7965714D01*
X5062380Y9346666D02*
X5062380Y8775238D01*
X5062380Y9060952D02*
X4062380Y9060952D01*
X4205238Y8965714D01*
X4300476Y8870476D01*
X4348095Y8775238D01*
%TO.C,D4*%
X4301904Y7197619D02*
X4301904Y8197619D01*
X4540000Y8197619D01*
X4682857Y8150000D01*
X4778095Y8054761D01*
X4825714Y7959523D01*
X4873333Y7769047D01*
X4873333Y7626190D01*
X4825714Y7435714D01*
X4778095Y7340476D01*
X4682857Y7245238D01*
X4540000Y7197619D01*
X4301904Y7197619D01*
X5730476Y7864285D02*
X5730476Y7197619D01*
X5492380Y8245238D02*
X5254285Y7530952D01*
X5873333Y7530952D01*
X1175714Y5297619D02*
X604285Y5297619D01*
X890000Y5297619D02*
X890000Y6297619D01*
X794761Y6154761D01*
X699523Y6059523D01*
X604285Y6011904D01*
%TO.C,D3*%
X13851904Y7497619D02*
X13851904Y8497619D01*
X14090000Y8497619D01*
X14232857Y8450000D01*
X14328095Y8354761D01*
X14375714Y8259523D01*
X14423333Y8069047D01*
X14423333Y7926190D01*
X14375714Y7735714D01*
X14328095Y7640476D01*
X14232857Y7545238D01*
X14090000Y7497619D01*
X13851904Y7497619D01*
X14756666Y8497619D02*
X15375714Y8497619D01*
X15042380Y8116666D01*
X15185238Y8116666D01*
X15280476Y8069047D01*
X15328095Y8021428D01*
X15375714Y7926190D01*
X15375714Y7688095D01*
X15328095Y7592857D01*
X15280476Y7545238D01*
X15185238Y7497619D01*
X14899523Y7497619D01*
X14804285Y7545238D01*
X14756666Y7592857D01*
X10725714Y5597619D02*
X10154285Y5597619D01*
X10440000Y5597619D02*
X10440000Y6597619D01*
X10344761Y6454761D01*
X10249523Y6359523D01*
X10154285Y6311904D01*
%TO.C,D2*%
X13701904Y17857619D02*
X13701904Y18857619D01*
X13940000Y18857619D01*
X14082857Y18810000D01*
X14178095Y18714761D01*
X14225714Y18619523D01*
X14273333Y18429047D01*
X14273333Y18286190D01*
X14225714Y18095714D01*
X14178095Y18000476D01*
X14082857Y17905238D01*
X13940000Y17857619D01*
X13701904Y17857619D01*
X14654285Y18762380D02*
X14701904Y18810000D01*
X14797142Y18857619D01*
X15035238Y18857619D01*
X15130476Y18810000D01*
X15178095Y18762380D01*
X15225714Y18667142D01*
X15225714Y18571904D01*
X15178095Y18429047D01*
X14606666Y17857619D01*
X15225714Y17857619D01*
X10575714Y15957619D02*
X10004285Y15957619D01*
X10290000Y15957619D02*
X10290000Y16957619D01*
X10194761Y16814761D01*
X10099523Y16719523D01*
X10004285Y16671904D01*
%TO.C,D1*%
X4301904Y17987619D02*
X4301904Y18987619D01*
X4540000Y18987619D01*
X4682857Y18940000D01*
X4778095Y18844761D01*
X4825714Y18749523D01*
X4873333Y18559047D01*
X4873333Y18416190D01*
X4825714Y18225714D01*
X4778095Y18130476D01*
X4682857Y18035238D01*
X4540000Y17987619D01*
X4301904Y17987619D01*
X5825714Y17987619D02*
X5254285Y17987619D01*
X5540000Y17987619D02*
X5540000Y18987619D01*
X5444761Y18844761D01*
X5349523Y18749523D01*
X5254285Y18701904D01*
X1175714Y16087619D02*
X604285Y16087619D01*
X890000Y16087619D02*
X890000Y17087619D01*
X794761Y16944761D01*
X699523Y16849523D01*
X604285Y16801904D01*
%TO.C,C4*%
X16415833Y9882857D02*
X16368214Y9835238D01*
X16225357Y9787619D01*
X16130119Y9787619D01*
X15987261Y9835238D01*
X15892023Y9930476D01*
X15844404Y10025714D01*
X15796785Y10216190D01*
X15796785Y10359047D01*
X15844404Y10549523D01*
X15892023Y10644761D01*
X15987261Y10740000D01*
X16130119Y10787619D01*
X16225357Y10787619D01*
X16368214Y10740000D01*
X16415833Y10692380D01*
X17272976Y10454285D02*
X17272976Y9787619D01*
X17034880Y10835238D02*
X16796785Y10120952D01*
X17415833Y10120952D01*
%TO.C,C3*%
X2853333Y9362857D02*
X2805714Y9315238D01*
X2662857Y9267619D01*
X2567619Y9267619D01*
X2424761Y9315238D01*
X2329523Y9410476D01*
X2281904Y9505714D01*
X2234285Y9696190D01*
X2234285Y9839047D01*
X2281904Y10029523D01*
X2329523Y10124761D01*
X2424761Y10220000D01*
X2567619Y10267619D01*
X2662857Y10267619D01*
X2805714Y10220000D01*
X2853333Y10172380D01*
X3186666Y10267619D02*
X3805714Y10267619D01*
X3472380Y9886666D01*
X3615238Y9886666D01*
X3710476Y9839047D01*
X3758095Y9791428D01*
X3805714Y9696190D01*
X3805714Y9458095D01*
X3758095Y9362857D01*
X3710476Y9315238D01*
X3615238Y9267619D01*
X3329523Y9267619D01*
X3234285Y9315238D01*
X3186666Y9362857D01*
%TO.C,C2*%
X16420833Y11892857D02*
X16373214Y11845238D01*
X16230357Y11797619D01*
X16135119Y11797619D01*
X15992261Y11845238D01*
X15897023Y11940476D01*
X15849404Y12035714D01*
X15801785Y12226190D01*
X15801785Y12369047D01*
X15849404Y12559523D01*
X15897023Y12654761D01*
X15992261Y12750000D01*
X16135119Y12797619D01*
X16230357Y12797619D01*
X16373214Y12750000D01*
X16420833Y12702380D01*
X16801785Y12702380D02*
X16849404Y12750000D01*
X16944642Y12797619D01*
X17182738Y12797619D01*
X17277976Y12750000D01*
X17325595Y12702380D01*
X17373214Y12607142D01*
X17373214Y12511904D01*
X17325595Y12369047D01*
X16754166Y11797619D01*
X17373214Y11797619D01*
%TO.C,C1*%
X2793333Y6912857D02*
X2745714Y6865238D01*
X2602857Y6817619D01*
X2507619Y6817619D01*
X2364761Y6865238D01*
X2269523Y6960476D01*
X2221904Y7055714D01*
X2174285Y7246190D01*
X2174285Y7389047D01*
X2221904Y7579523D01*
X2269523Y7674761D01*
X2364761Y7770000D01*
X2507619Y7817619D01*
X2602857Y7817619D01*
X2745714Y7770000D01*
X2793333Y7722380D01*
X3745714Y6817619D02*
X3174285Y6817619D01*
X3460000Y6817619D02*
X3460000Y7817619D01*
X3364761Y7674761D01*
X3269523Y7579523D01*
X3174285Y7531904D01*
%TD*%
M02*
