%TF.GenerationSoftware,KiCad,Pcbnew,(5.1.10)-1*%
%TF.CreationDate,2021-06-06T01:25:55+08:00*%
%TF.ProjectId,W2S2812B,57325332-3831-4324-922e-6b696361645f,rev?*%
%TF.SameCoordinates,Original*%
%TF.FileFunction,Soldermask,Bot*%
%TF.FilePolarity,Negative*%
%FSLAX46Y46*%
G04 Gerber Fmt 4.6, Leading zero omitted, Abs format (unit mm)*
G04 Created by KiCad (PCBNEW (5.1.10)-1) date 2021-06-06 01:25:55*
%MOMM*%
%LPD*%
G01*
G04 APERTURE LIST*
G04 APERTURE END LIST*
%TO.C,R2*%
G36*
G01*
X10500000Y18090000D02*
X10500000Y17090000D01*
G75*
G02*
X10000000Y16590000I-500000J0D01*
G01*
X9000000Y16590000D01*
G75*
G02*
X8500000Y17090000I0J500000D01*
G01*
X8500000Y18090000D01*
G75*
G02*
X9000000Y18590000I500000J0D01*
G01*
X10000000Y18590000D01*
G75*
G02*
X10500000Y18090000I0J-500000D01*
G01*
G37*
G36*
G01*
X10500000Y15170000D02*
X10500000Y14170000D01*
G75*
G02*
X10000000Y13670000I-500000J0D01*
G01*
X9000000Y13670000D01*
G75*
G02*
X8500000Y14170000I0J500000D01*
G01*
X8500000Y15170000D01*
G75*
G02*
X9000000Y15670000I500000J0D01*
G01*
X10000000Y15670000D01*
G75*
G02*
X10500000Y15170000I0J-500000D01*
G01*
G37*
%TD*%
%TO.C,R1*%
G36*
G01*
X7820000Y18040000D02*
X7820000Y17040000D01*
G75*
G02*
X7320000Y16540000I-500000J0D01*
G01*
X6320000Y16540000D01*
G75*
G02*
X5820000Y17040000I0J500000D01*
G01*
X5820000Y18040000D01*
G75*
G02*
X6320000Y18540000I500000J0D01*
G01*
X7320000Y18540000D01*
G75*
G02*
X7820000Y18040000I0J-500000D01*
G01*
G37*
G36*
G01*
X7810000Y14890000D02*
X7810000Y13890000D01*
G75*
G02*
X7310000Y13390000I-500000J0D01*
G01*
X6310000Y13390000D01*
G75*
G02*
X5810000Y13890000I0J500000D01*
G01*
X5810000Y14890000D01*
G75*
G02*
X6310000Y15390000I500000J0D01*
G01*
X7310000Y15390000D01*
G75*
G02*
X7810000Y14890000I0J-500000D01*
G01*
G37*
%TD*%
%TO.C,R4*%
G36*
G01*
X3420000Y12900000D02*
X4420000Y12900000D01*
G75*
G02*
X4920000Y12400000I0J-500000D01*
G01*
X4920000Y11400000D01*
G75*
G02*
X4420000Y10900000I-500000J0D01*
G01*
X3420000Y10900000D01*
G75*
G02*
X2920000Y11400000I0J500000D01*
G01*
X2920000Y12400000D01*
G75*
G02*
X3420000Y12900000I500000J0D01*
G01*
G37*
G36*
G01*
X500000Y12900000D02*
X1500000Y12900000D01*
G75*
G02*
X2000000Y12400000I0J-500000D01*
G01*
X2000000Y11400000D01*
G75*
G02*
X1500000Y10900000I-500000J0D01*
G01*
X500000Y10900000D01*
G75*
G02*
X0Y11400000I0J500000D01*
G01*
X0Y12400000D01*
G75*
G02*
X500000Y12900000I500000J0D01*
G01*
G37*
%TD*%
%TO.C,R4*%
G36*
G01*
X3420000Y10170000D02*
X4420000Y10170000D01*
G75*
G02*
X4920000Y9670000I0J-500000D01*
G01*
X4920000Y8670000D01*
G75*
G02*
X4420000Y8170000I-500000J0D01*
G01*
X3420000Y8170000D01*
G75*
G02*
X2920000Y8670000I0J500000D01*
G01*
X2920000Y9670000D01*
G75*
G02*
X3420000Y10170000I500000J0D01*
G01*
G37*
G36*
G01*
X500000Y10170000D02*
X1500000Y10170000D01*
G75*
G02*
X2000000Y9670000I0J-500000D01*
G01*
X2000000Y8670000D01*
G75*
G02*
X1500000Y8170000I-500000J0D01*
G01*
X500000Y8170000D01*
G75*
G02*
X0Y8670000I0J500000D01*
G01*
X0Y9670000D01*
G75*
G02*
X500000Y10170000I500000J0D01*
G01*
G37*
%TD*%
%TO.C,R4*%
G36*
G01*
X3450000Y7460000D02*
X4450000Y7460000D01*
G75*
G02*
X4950000Y6960000I0J-500000D01*
G01*
X4950000Y5960000D01*
G75*
G02*
X4450000Y5460000I-500000J0D01*
G01*
X3450000Y5460000D01*
G75*
G02*
X2950000Y5960000I0J500000D01*
G01*
X2950000Y6960000D01*
G75*
G02*
X3450000Y7460000I500000J0D01*
G01*
G37*
G36*
G01*
X530000Y7460000D02*
X1530000Y7460000D01*
G75*
G02*
X2030000Y6960000I0J-500000D01*
G01*
X2030000Y5960000D01*
G75*
G02*
X1530000Y5460000I-500000J0D01*
G01*
X530000Y5460000D01*
G75*
G02*
X30000Y5960000I0J500000D01*
G01*
X30000Y6960000D01*
G75*
G02*
X530000Y7460000I500000J0D01*
G01*
G37*
%TD*%
%TO.C,R4*%
G36*
G01*
X17050000Y7650000D02*
X18050000Y7650000D01*
G75*
G02*
X18550000Y7150000I0J-500000D01*
G01*
X18550000Y6150000D01*
G75*
G02*
X18050000Y5650000I-500000J0D01*
G01*
X17050000Y5650000D01*
G75*
G02*
X16550000Y6150000I0J500000D01*
G01*
X16550000Y7150000D01*
G75*
G02*
X17050000Y7650000I500000J0D01*
G01*
G37*
G36*
G01*
X14130000Y7650000D02*
X15130000Y7650000D01*
G75*
G02*
X15630000Y7150000I0J-500000D01*
G01*
X15630000Y6150000D01*
G75*
G02*
X15130000Y5650000I-500000J0D01*
G01*
X14130000Y5650000D01*
G75*
G02*
X13630000Y6150000I0J500000D01*
G01*
X13630000Y7150000D01*
G75*
G02*
X14130000Y7650000I500000J0D01*
G01*
G37*
%TD*%
%TO.C,R4*%
G36*
G01*
X17040000Y10400000D02*
X18040000Y10400000D01*
G75*
G02*
X18540000Y9900000I0J-500000D01*
G01*
X18540000Y8900000D01*
G75*
G02*
X18040000Y8400000I-500000J0D01*
G01*
X17040000Y8400000D01*
G75*
G02*
X16540000Y8900000I0J500000D01*
G01*
X16540000Y9900000D01*
G75*
G02*
X17040000Y10400000I500000J0D01*
G01*
G37*
G36*
G01*
X14120000Y10400000D02*
X15120000Y10400000D01*
G75*
G02*
X15620000Y9900000I0J-500000D01*
G01*
X15620000Y8900000D01*
G75*
G02*
X15120000Y8400000I-500000J0D01*
G01*
X14120000Y8400000D01*
G75*
G02*
X13620000Y8900000I0J500000D01*
G01*
X13620000Y9900000D01*
G75*
G02*
X14120000Y10400000I500000J0D01*
G01*
G37*
%TD*%
%TO.C,R4*%
G36*
G01*
X17010000Y13190000D02*
X18010000Y13190000D01*
G75*
G02*
X18510000Y12690000I0J-500000D01*
G01*
X18510000Y11690000D01*
G75*
G02*
X18010000Y11190000I-500000J0D01*
G01*
X17010000Y11190000D01*
G75*
G02*
X16510000Y11690000I0J500000D01*
G01*
X16510000Y12690000D01*
G75*
G02*
X17010000Y13190000I500000J0D01*
G01*
G37*
G36*
G01*
X14090000Y13190000D02*
X15090000Y13190000D01*
G75*
G02*
X15590000Y12690000I0J-500000D01*
G01*
X15590000Y11690000D01*
G75*
G02*
X15090000Y11190000I-500000J0D01*
G01*
X14090000Y11190000D01*
G75*
G02*
X13590000Y11690000I0J500000D01*
G01*
X13590000Y12690000D01*
G75*
G02*
X14090000Y13190000I500000J0D01*
G01*
G37*
%TD*%
%TO.C,R12*%
G36*
G01*
X10510000Y4840000D02*
X10510000Y3840000D01*
G75*
G02*
X10010000Y3340000I-500000J0D01*
G01*
X9010000Y3340000D01*
G75*
G02*
X8510000Y3840000I0J500000D01*
G01*
X8510000Y4840000D01*
G75*
G02*
X9010000Y5340000I500000J0D01*
G01*
X10010000Y5340000D01*
G75*
G02*
X10510000Y4840000I0J-500000D01*
G01*
G37*
G36*
G01*
X10510000Y1920000D02*
X10510000Y920000D01*
G75*
G02*
X10010000Y420000I-500000J0D01*
G01*
X9010000Y420000D01*
G75*
G02*
X8510000Y920000I0J500000D01*
G01*
X8510000Y1920000D01*
G75*
G02*
X9010000Y2420000I500000J0D01*
G01*
X10010000Y2420000D01*
G75*
G02*
X10510000Y1920000I0J-500000D01*
G01*
G37*
%TD*%
%TO.C,R11*%
G36*
G01*
X7740000Y4840000D02*
X7740000Y3840000D01*
G75*
G02*
X7240000Y3340000I-500000J0D01*
G01*
X6240000Y3340000D01*
G75*
G02*
X5740000Y3840000I0J500000D01*
G01*
X5740000Y4840000D01*
G75*
G02*
X6240000Y5340000I500000J0D01*
G01*
X7240000Y5340000D01*
G75*
G02*
X7740000Y4840000I0J-500000D01*
G01*
G37*
G36*
G01*
X7740000Y1920000D02*
X7740000Y920000D01*
G75*
G02*
X7240000Y420000I-500000J0D01*
G01*
X6240000Y420000D01*
G75*
G02*
X5740000Y920000I0J500000D01*
G01*
X5740000Y1920000D01*
G75*
G02*
X6240000Y2420000I500000J0D01*
G01*
X7240000Y2420000D01*
G75*
G02*
X7740000Y1920000I0J-500000D01*
G01*
G37*
%TD*%
%TO.C,R4*%
G36*
G01*
X13280000Y4840000D02*
X13280000Y3840000D01*
G75*
G02*
X12780000Y3340000I-500000J0D01*
G01*
X11780000Y3340000D01*
G75*
G02*
X11280000Y3840000I0J500000D01*
G01*
X11280000Y4840000D01*
G75*
G02*
X11780000Y5340000I500000J0D01*
G01*
X12780000Y5340000D01*
G75*
G02*
X13280000Y4840000I0J-500000D01*
G01*
G37*
G36*
G01*
X13280000Y1920000D02*
X13280000Y920000D01*
G75*
G02*
X12780000Y420000I-500000J0D01*
G01*
X11780000Y420000D01*
G75*
G02*
X11280000Y920000I0J500000D01*
G01*
X11280000Y1920000D01*
G75*
G02*
X11780000Y2420000I500000J0D01*
G01*
X12780000Y2420000D01*
G75*
G02*
X13280000Y1920000I0J-500000D01*
G01*
G37*
%TD*%
%TO.C,R3*%
G36*
G01*
X13210000Y18120000D02*
X13210000Y17120000D01*
G75*
G02*
X12710000Y16620000I-500000J0D01*
G01*
X11710000Y16620000D01*
G75*
G02*
X11210000Y17120000I0J500000D01*
G01*
X11210000Y18120000D01*
G75*
G02*
X11710000Y18620000I500000J0D01*
G01*
X12710000Y18620000D01*
G75*
G02*
X13210000Y18120000I0J-500000D01*
G01*
G37*
G36*
G01*
X13210000Y15200000D02*
X13210000Y14200000D01*
G75*
G02*
X12710000Y13700000I-500000J0D01*
G01*
X11710000Y13700000D01*
G75*
G02*
X11210000Y14200000I0J500000D01*
G01*
X11210000Y15200000D01*
G75*
G02*
X11710000Y15700000I500000J0D01*
G01*
X12710000Y15700000D01*
G75*
G02*
X13210000Y15200000I0J-500000D01*
G01*
G37*
%TD*%
%TO.C,J1*%
G36*
G01*
X12528000Y7664000D02*
X11512000Y7664000D01*
G75*
G02*
X11004000Y8172000I0J508000D01*
G01*
X11004000Y9188000D01*
G75*
G02*
X11512000Y9696000I508000J0D01*
G01*
X12528000Y9696000D01*
G75*
G02*
X13036000Y9188000I0J-508000D01*
G01*
X13036000Y8172000D01*
G75*
G02*
X12528000Y7664000I-508000J0D01*
G01*
G37*
G36*
G01*
X9988000Y7664000D02*
X8972000Y7664000D01*
G75*
G02*
X8464000Y8172000I0J508000D01*
G01*
X8464000Y9188000D01*
G75*
G02*
X8972000Y9696000I508000J0D01*
G01*
X9988000Y9696000D01*
G75*
G02*
X10496000Y9188000I0J-508000D01*
G01*
X10496000Y8172000D01*
G75*
G02*
X9988000Y7664000I-508000J0D01*
G01*
G37*
G36*
G01*
X7448000Y7664000D02*
X6432000Y7664000D01*
G75*
G02*
X5924000Y8172000I0J508000D01*
G01*
X5924000Y9188000D01*
G75*
G02*
X6432000Y9696000I508000J0D01*
G01*
X7448000Y9696000D01*
G75*
G02*
X7956000Y9188000I0J-508000D01*
G01*
X7956000Y8172000D01*
G75*
G02*
X7448000Y7664000I-508000J0D01*
G01*
G37*
%TD*%
M02*
