%TF.GenerationSoftware,KiCad,Pcbnew,(5.1.10)-1*%
%TF.CreationDate,2021-06-06T01:15:34+08:00*%
%TF.ProjectId,tuya_arduino,74757961-5f61-4726-9475-696e6f2e6b69,rev?*%
%TF.SameCoordinates,Original*%
%TF.FileFunction,Legend,Top*%
%TF.FilePolarity,Positive*%
%FSLAX46Y46*%
G04 Gerber Fmt 4.6, Leading zero omitted, Abs format (unit mm)*
G04 Created by KiCad (PCBNEW (5.1.10)-1) date 2021-06-06 01:15:34*
%MOMM*%
%LPD*%
G01*
G04 APERTURE LIST*
%ADD10C,0.101600*%
%ADD11C,0.127000*%
%ADD12C,0.150000*%
%ADD13C,0.010000*%
%ADD14C,0.120000*%
G04 APERTURE END LIST*
D10*
X127632500Y-66933809D02*
X127602261Y-66994285D01*
X127602261Y-67085000D01*
X127632500Y-67175714D01*
X127692976Y-67236190D01*
X127753452Y-67266428D01*
X127874404Y-67296666D01*
X127965119Y-67296666D01*
X128086071Y-67266428D01*
X128146547Y-67236190D01*
X128207023Y-67175714D01*
X128237261Y-67085000D01*
X128237261Y-67024523D01*
X128207023Y-66933809D01*
X128176785Y-66903571D01*
X127965119Y-66903571D01*
X127965119Y-67024523D01*
X128237261Y-66631428D02*
X127602261Y-66631428D01*
X128237261Y-66268571D01*
X127602261Y-66268571D01*
X128237261Y-65966190D02*
X127602261Y-65966190D01*
X127602261Y-65815000D01*
X127632500Y-65724285D01*
X127692976Y-65663809D01*
X127753452Y-65633571D01*
X127874404Y-65603333D01*
X127965119Y-65603333D01*
X128086071Y-65633571D01*
X128146547Y-65663809D01*
X128207023Y-65724285D01*
X128237261Y-65815000D01*
X128237261Y-65966190D01*
X127532714Y-64755000D02*
X127532714Y-64609857D01*
X127569000Y-64537285D01*
X127641571Y-64464714D01*
X127786714Y-64428428D01*
X128040714Y-64428428D01*
X128185857Y-64464714D01*
X128258428Y-64537285D01*
X128294714Y-64609857D01*
X128294714Y-64755000D01*
X128258428Y-64827571D01*
X128185857Y-64900142D01*
X128040714Y-64936428D01*
X127786714Y-64936428D01*
X127641571Y-64900142D01*
X127569000Y-64827571D01*
X127532714Y-64755000D01*
X127532714Y-64101857D02*
X128149571Y-64101857D01*
X128222142Y-64065571D01*
X128258428Y-64029285D01*
X128294714Y-63956714D01*
X128294714Y-63811571D01*
X128258428Y-63739000D01*
X128222142Y-63702714D01*
X128149571Y-63666428D01*
X127532714Y-63666428D01*
X127532714Y-63412428D02*
X127532714Y-62977000D01*
X128294714Y-63194714D02*
X127532714Y-63194714D01*
X128294714Y-62287571D02*
X127931857Y-62541571D01*
X128294714Y-62723000D02*
X127532714Y-62723000D01*
X127532714Y-62432714D01*
X127569000Y-62360142D01*
X127605285Y-62323857D01*
X127677857Y-62287571D01*
X127786714Y-62287571D01*
X127859285Y-62323857D01*
X127895571Y-62360142D01*
X127931857Y-62432714D01*
X127931857Y-62723000D01*
X127569000Y-61561857D02*
X127532714Y-61634428D01*
X127532714Y-61743285D01*
X127569000Y-61852142D01*
X127641571Y-61924714D01*
X127714142Y-61961000D01*
X127859285Y-61997285D01*
X127968142Y-61997285D01*
X128113285Y-61961000D01*
X128185857Y-61924714D01*
X128258428Y-61852142D01*
X128294714Y-61743285D01*
X128294714Y-61670714D01*
X128258428Y-61561857D01*
X128222142Y-61525571D01*
X127968142Y-61525571D01*
X127968142Y-61670714D01*
X127895571Y-60945000D02*
X127931857Y-60836142D01*
X127968142Y-60799857D01*
X128040714Y-60763571D01*
X128149571Y-60763571D01*
X128222142Y-60799857D01*
X128258428Y-60836142D01*
X128294714Y-60908714D01*
X128294714Y-61199000D01*
X127532714Y-61199000D01*
X127532714Y-60945000D01*
X127569000Y-60872428D01*
X127605285Y-60836142D01*
X127677857Y-60799857D01*
X127750428Y-60799857D01*
X127823000Y-60836142D01*
X127859285Y-60872428D01*
X127895571Y-60945000D01*
X127895571Y-61199000D01*
D11*
X127632714Y-59645142D02*
X127632714Y-60008000D01*
X127995571Y-60044285D01*
X127959285Y-60008000D01*
X127923000Y-59935428D01*
X127923000Y-59754000D01*
X127959285Y-59681428D01*
X127995571Y-59645142D01*
X128068142Y-59608857D01*
X128249571Y-59608857D01*
X128322142Y-59645142D01*
X128358428Y-59681428D01*
X128394714Y-59754000D01*
X128394714Y-59935428D01*
X128358428Y-60008000D01*
X128322142Y-60044285D01*
X127632714Y-59391142D02*
X128394714Y-59137142D01*
X127632714Y-58883142D01*
D12*
X128016666Y-74252380D02*
X128635714Y-74252380D01*
X128302380Y-74633333D01*
X128445238Y-74633333D01*
X128540476Y-74680952D01*
X128588095Y-74728571D01*
X128635714Y-74823809D01*
X128635714Y-75061904D01*
X128588095Y-75157142D01*
X128540476Y-75204761D01*
X128445238Y-75252380D01*
X128159523Y-75252380D01*
X128064285Y-75204761D01*
X128016666Y-75157142D01*
X128064285Y-71647619D02*
X128111904Y-71600000D01*
X128207142Y-71552380D01*
X128445238Y-71552380D01*
X128540476Y-71600000D01*
X128588095Y-71647619D01*
X128635714Y-71742857D01*
X128635714Y-71838095D01*
X128588095Y-71980952D01*
X128016666Y-72552380D01*
X128635714Y-72552380D01*
X128485714Y-69952380D02*
X127914285Y-69952380D01*
X128200000Y-69952380D02*
X128200000Y-68952380D01*
X128104761Y-69095238D01*
X128009523Y-69190476D01*
X127914285Y-69238095D01*
X119216666Y-65202380D02*
X119835714Y-65202380D01*
X119502380Y-65583333D01*
X119645238Y-65583333D01*
X119740476Y-65630952D01*
X119788095Y-65678571D01*
X119835714Y-65773809D01*
X119835714Y-66011904D01*
X119788095Y-66107142D01*
X119740476Y-66154761D01*
X119645238Y-66202380D01*
X119359523Y-66202380D01*
X119264285Y-66154761D01*
X119216666Y-66107142D01*
X119264285Y-62747619D02*
X119311904Y-62700000D01*
X119407142Y-62652380D01*
X119645238Y-62652380D01*
X119740476Y-62700000D01*
X119788095Y-62747619D01*
X119835714Y-62842857D01*
X119835714Y-62938095D01*
X119788095Y-63080952D01*
X119216666Y-63652380D01*
X119835714Y-63652380D01*
X119685714Y-61202380D02*
X119114285Y-61202380D01*
X119400000Y-61202380D02*
X119400000Y-60202380D01*
X119304761Y-60345238D01*
X119209523Y-60440476D01*
X119114285Y-60488095D01*
X81709523Y-44852380D02*
X81233333Y-44852380D01*
X81185714Y-45328571D01*
X81233333Y-45280952D01*
X81328571Y-45233333D01*
X81566666Y-45233333D01*
X81661904Y-45280952D01*
X81709523Y-45328571D01*
X81757142Y-45423809D01*
X81757142Y-45661904D01*
X81709523Y-45757142D01*
X81661904Y-45804761D01*
X81566666Y-45852380D01*
X81328571Y-45852380D01*
X81233333Y-45804761D01*
X81185714Y-45757142D01*
X82042857Y-44852380D02*
X82376190Y-45852380D01*
X82709523Y-44852380D01*
X94611904Y-75552380D02*
X95230952Y-75552380D01*
X94897619Y-75933333D01*
X95040476Y-75933333D01*
X95135714Y-75980952D01*
X95183333Y-76028571D01*
X95230952Y-76123809D01*
X95230952Y-76361904D01*
X95183333Y-76457142D01*
X95135714Y-76504761D01*
X95040476Y-76552380D01*
X94754761Y-76552380D01*
X94659523Y-76504761D01*
X94611904Y-76457142D01*
X95516666Y-75552380D02*
X95850000Y-76552380D01*
X96183333Y-75552380D01*
X96421428Y-75552380D02*
X97040476Y-75552380D01*
X96707142Y-75933333D01*
X96850000Y-75933333D01*
X96945238Y-75980952D01*
X96992857Y-76028571D01*
X97040476Y-76123809D01*
X97040476Y-76361904D01*
X96992857Y-76457142D01*
X96945238Y-76504761D01*
X96850000Y-76552380D01*
X96564285Y-76552380D01*
X96469047Y-76504761D01*
X96421428Y-76457142D01*
X99171428Y-98530952D02*
X99171428Y-97769047D01*
D11*
X93429333Y-97755500D02*
X93344666Y-97713166D01*
X93217666Y-97713166D01*
X93090666Y-97755500D01*
X93006000Y-97840166D01*
X92963666Y-97924833D01*
X92921333Y-98094166D01*
X92921333Y-98221166D01*
X92963666Y-98390500D01*
X93006000Y-98475166D01*
X93090666Y-98559833D01*
X93217666Y-98602166D01*
X93302333Y-98602166D01*
X93429333Y-98559833D01*
X93471666Y-98517500D01*
X93471666Y-98221166D01*
X93302333Y-98221166D01*
X93852666Y-98602166D02*
X93852666Y-97713166D01*
X94360666Y-98602166D01*
X94360666Y-97713166D01*
X94784000Y-98602166D02*
X94784000Y-97713166D01*
X94995666Y-97713166D01*
X95122666Y-97755500D01*
X95207333Y-97840166D01*
X95249666Y-97924833D01*
X95292000Y-98094166D01*
X95292000Y-98221166D01*
X95249666Y-98390500D01*
X95207333Y-98475166D01*
X95122666Y-98559833D01*
X94995666Y-98602166D01*
X94784000Y-98602166D01*
X96816000Y-97755500D02*
X96731333Y-97713166D01*
X96604333Y-97713166D01*
X96477333Y-97755500D01*
X96392666Y-97840166D01*
X96350333Y-97924833D01*
X96308000Y-98094166D01*
X96308000Y-98221166D01*
X96350333Y-98390500D01*
X96392666Y-98475166D01*
X96477333Y-98559833D01*
X96604333Y-98602166D01*
X96689000Y-98602166D01*
X96816000Y-98559833D01*
X96858333Y-98517500D01*
X96858333Y-98221166D01*
X96689000Y-98221166D01*
X97239333Y-98602166D02*
X97239333Y-97713166D01*
X97747333Y-98602166D01*
X97747333Y-97713166D01*
X98170666Y-98602166D02*
X98170666Y-97713166D01*
X98382333Y-97713166D01*
X98509333Y-97755500D01*
X98594000Y-97840166D01*
X98636333Y-97924833D01*
X98678666Y-98094166D01*
X98678666Y-98221166D01*
X98636333Y-98390500D01*
X98594000Y-98475166D01*
X98509333Y-98559833D01*
X98382333Y-98602166D01*
X98170666Y-98602166D01*
D12*
X92221428Y-98600000D02*
X92221428Y-97838095D01*
X92221428Y-97361904D02*
X92221428Y-96600000D01*
D11*
X88226857Y-97832714D02*
X88698571Y-97832714D01*
X88444571Y-98123000D01*
X88553428Y-98123000D01*
X88626000Y-98159285D01*
X88662285Y-98195571D01*
X88698571Y-98268142D01*
X88698571Y-98449571D01*
X88662285Y-98522142D01*
X88626000Y-98558428D01*
X88553428Y-98594714D01*
X88335714Y-98594714D01*
X88263142Y-98558428D01*
X88226857Y-98522142D01*
X88916285Y-97832714D02*
X89170285Y-98594714D01*
X89424285Y-97832714D01*
X89605714Y-97832714D02*
X90077428Y-97832714D01*
X89823428Y-98123000D01*
X89932285Y-98123000D01*
X90004857Y-98159285D01*
X90041142Y-98195571D01*
X90077428Y-98268142D01*
X90077428Y-98449571D01*
X90041142Y-98522142D01*
X90004857Y-98558428D01*
X89932285Y-98594714D01*
X89714571Y-98594714D01*
X89642000Y-98558428D01*
X89605714Y-98522142D01*
X91347428Y-97832714D02*
X90984571Y-97832714D01*
X90948285Y-98195571D01*
X90984571Y-98159285D01*
X91057142Y-98123000D01*
X91238571Y-98123000D01*
X91311142Y-98159285D01*
X91347428Y-98195571D01*
X91383714Y-98268142D01*
X91383714Y-98449571D01*
X91347428Y-98522142D01*
X91311142Y-98558428D01*
X91238571Y-98594714D01*
X91057142Y-98594714D01*
X90984571Y-98558428D01*
X90948285Y-98522142D01*
X91601428Y-97832714D02*
X91855428Y-98594714D01*
X92109428Y-97832714D01*
D12*
X127685714Y-89747619D02*
X128352380Y-89557142D01*
X127876190Y-89366666D01*
X128352380Y-89176190D01*
X127685714Y-88985714D01*
X128352380Y-88604761D02*
X127685714Y-88604761D01*
X127352380Y-88604761D02*
X127400000Y-88652380D01*
X127447619Y-88604761D01*
X127400000Y-88557142D01*
X127352380Y-88604761D01*
X127447619Y-88604761D01*
X127685714Y-88271428D02*
X127685714Y-87890476D01*
X128352380Y-88128571D02*
X127495238Y-88128571D01*
X127400000Y-88080952D01*
X127352380Y-87985714D01*
X127352380Y-87890476D01*
X128352380Y-87557142D02*
X127685714Y-87557142D01*
X127352380Y-87557142D02*
X127400000Y-87604761D01*
X127447619Y-87557142D01*
X127400000Y-87509523D01*
X127352380Y-87557142D01*
X127447619Y-87557142D01*
X128447619Y-87319047D02*
X128447619Y-86557142D01*
X128352380Y-86319047D02*
X127352380Y-86319047D01*
X127733333Y-86319047D02*
X127685714Y-86223809D01*
X127685714Y-86033333D01*
X127733333Y-85938095D01*
X127780952Y-85890476D01*
X127876190Y-85842857D01*
X128161904Y-85842857D01*
X128257142Y-85890476D01*
X128304761Y-85938095D01*
X128352380Y-86033333D01*
X128352380Y-86223809D01*
X128304761Y-86319047D01*
X128352380Y-85271428D02*
X128304761Y-85366666D01*
X128209523Y-85414285D01*
X127352380Y-85414285D01*
X127685714Y-84461904D02*
X128352380Y-84461904D01*
X127685714Y-84890476D02*
X128209523Y-84890476D01*
X128304761Y-84842857D01*
X128352380Y-84747619D01*
X128352380Y-84604761D01*
X128304761Y-84509523D01*
X128257142Y-84461904D01*
X128304761Y-83604761D02*
X128352380Y-83700000D01*
X128352380Y-83890476D01*
X128304761Y-83985714D01*
X128209523Y-84033333D01*
X127828571Y-84033333D01*
X127733333Y-83985714D01*
X127685714Y-83890476D01*
X127685714Y-83700000D01*
X127733333Y-83604761D01*
X127828571Y-83557142D01*
X127923809Y-83557142D01*
X128019047Y-84033333D01*
X127685714Y-83271428D02*
X127685714Y-82890476D01*
X127352380Y-83128571D02*
X128209523Y-83128571D01*
X128304761Y-83080952D01*
X128352380Y-82985714D01*
X128352380Y-82890476D01*
X128352380Y-82414285D02*
X128304761Y-82509523D01*
X128257142Y-82557142D01*
X128161904Y-82604761D01*
X127876190Y-82604761D01*
X127780952Y-82557142D01*
X127733333Y-82509523D01*
X127685714Y-82414285D01*
X127685714Y-82271428D01*
X127733333Y-82176190D01*
X127780952Y-82128571D01*
X127876190Y-82080952D01*
X128161904Y-82080952D01*
X128257142Y-82128571D01*
X128304761Y-82176190D01*
X128352380Y-82271428D01*
X128352380Y-82414285D01*
X128352380Y-81509523D02*
X128304761Y-81604761D01*
X128257142Y-81652380D01*
X128161904Y-81700000D01*
X127876190Y-81700000D01*
X127780952Y-81652380D01*
X127733333Y-81604761D01*
X127685714Y-81509523D01*
X127685714Y-81366666D01*
X127733333Y-81271428D01*
X127780952Y-81223809D01*
X127876190Y-81176190D01*
X128161904Y-81176190D01*
X128257142Y-81223809D01*
X128304761Y-81271428D01*
X128352380Y-81366666D01*
X128352380Y-81509523D01*
X127685714Y-80890476D02*
X127685714Y-80509523D01*
X127352380Y-80747619D02*
X128209523Y-80747619D01*
X128304761Y-80700000D01*
X128352380Y-80604761D01*
X128352380Y-80509523D01*
X128352380Y-80176190D02*
X127352380Y-80176190D01*
X128352380Y-79747619D02*
X127828571Y-79747619D01*
X127733333Y-79795238D01*
X127685714Y-79890476D01*
X127685714Y-80033333D01*
X127733333Y-80128571D01*
X127780952Y-80176190D01*
X79609523Y-49272619D02*
X79800000Y-49129761D01*
X79990476Y-49272619D01*
X79800000Y-52160714D02*
X79800000Y-50732142D01*
D13*
%TO.C,G\u002A\u002A\u002A*%
G36*
X82575087Y-56380810D02*
G01*
X82609697Y-55218832D01*
X82698021Y-54351687D01*
X82863058Y-53736632D01*
X83127811Y-53330927D01*
X83515280Y-53091830D01*
X84048467Y-52976599D01*
X84750372Y-52942493D01*
X85643997Y-52946770D01*
X86239892Y-52950000D01*
X88925000Y-52950000D01*
X88925000Y-58839771D01*
X88924336Y-60570431D01*
X88919777Y-61927718D01*
X88907467Y-62961595D01*
X88883553Y-63722023D01*
X88844179Y-64258962D01*
X88785491Y-64622374D01*
X88703635Y-64862221D01*
X88594757Y-65028463D01*
X88455001Y-65171062D01*
X88435107Y-65189771D01*
X88198323Y-65381542D01*
X87915816Y-65511364D01*
X87505366Y-65591157D01*
X86884753Y-65632837D01*
X85971757Y-65648324D01*
X85260107Y-65650000D01*
X84995989Y-65650000D01*
X84995989Y-64555154D01*
X85236459Y-64532833D01*
X85326666Y-64274167D01*
X85513912Y-64020847D01*
X85919333Y-63956667D01*
X86448208Y-63870895D01*
X86766000Y-63702667D01*
X86949750Y-63357116D01*
X87015176Y-62920231D01*
X86953946Y-62571255D01*
X86823054Y-62475000D01*
X86643581Y-62654974D01*
X86558471Y-62951250D01*
X86355380Y-63345842D01*
X85908750Y-63494477D01*
X85524181Y-63487297D01*
X85524181Y-62051275D01*
X86084251Y-62011387D01*
X86610581Y-61832553D01*
X86937435Y-61450504D01*
X87022069Y-60908994D01*
X86864486Y-60395753D01*
X86610581Y-60154114D01*
X86143587Y-59999804D01*
X85724082Y-59954885D01*
X85724082Y-59511667D01*
X86439550Y-59418069D01*
X86859705Y-59087439D01*
X87078680Y-58453334D01*
X87159663Y-58084499D01*
X87235783Y-58116748D01*
X87335316Y-58400417D01*
X87566502Y-58770353D01*
X87785520Y-58876667D01*
X88051405Y-58760448D01*
X87965247Y-58411120D01*
X87690164Y-58020864D01*
X87317334Y-57706591D01*
X86753344Y-57523575D01*
X86102664Y-57442037D01*
X86019873Y-57440907D01*
X86019873Y-56976643D01*
X86547828Y-56812529D01*
X86916619Y-56396278D01*
X87013563Y-55966250D01*
X86940204Y-55719944D01*
X86895178Y-55701667D01*
X86685383Y-55848089D01*
X86398980Y-56160298D01*
X85981181Y-56472857D01*
X85598300Y-56460628D01*
X85373509Y-56159212D01*
X85364737Y-55861363D01*
X85499699Y-55527836D01*
X85860185Y-55365325D01*
X86226250Y-55318473D01*
X86811309Y-55215664D01*
X87000825Y-55071309D01*
X86812508Y-54935682D01*
X86264070Y-54859056D01*
X86062962Y-54855000D01*
X85437195Y-54891961D01*
X85087109Y-55044781D01*
X84868770Y-55375496D01*
X84746141Y-55857182D01*
X84914921Y-56323960D01*
X84984021Y-56433830D01*
X85457141Y-56859963D01*
X86019873Y-56976643D01*
X86019873Y-57440907D01*
X85410560Y-57432585D01*
X84984305Y-57516052D01*
X84866240Y-57658428D01*
X85098708Y-57825703D01*
X85485416Y-57937813D01*
X86133411Y-58094209D01*
X86466158Y-58232115D01*
X86585326Y-58406467D01*
X86596666Y-58538260D01*
X86414713Y-58848554D01*
X85971943Y-59023446D01*
X85422992Y-59008845D01*
X85326666Y-58982500D01*
X84983359Y-58967700D01*
X84903333Y-59179903D01*
X85031538Y-59410354D01*
X85467313Y-59504912D01*
X85724082Y-59511667D01*
X85724082Y-59954885D01*
X85601208Y-59941727D01*
X85137899Y-59980557D01*
X84908115Y-60116967D01*
X84903333Y-60146667D01*
X85086653Y-60297671D01*
X85512415Y-60358334D01*
X86053242Y-60469797D01*
X86433098Y-60741725D01*
X86541872Y-61080424D01*
X86496563Y-61195728D01*
X86210876Y-61345239D01*
X85695548Y-61415832D01*
X85631674Y-61416667D01*
X85088706Y-61487982D01*
X84903956Y-61714283D01*
X84903333Y-61734167D01*
X85082544Y-61956102D01*
X85524181Y-62051275D01*
X85524181Y-63487297D01*
X85487033Y-63486603D01*
X85339310Y-63249056D01*
X85326666Y-63000588D01*
X85228316Y-62602845D01*
X85013205Y-62541417D01*
X84801241Y-62801622D01*
X84729861Y-63073663D01*
X84558008Y-63437539D01*
X84359445Y-63533334D01*
X84108257Y-63643281D01*
X84108257Y-54977147D01*
X84338425Y-54972527D01*
X84611719Y-54752437D01*
X84766986Y-54472191D01*
X84750238Y-54358439D01*
X84541645Y-54343319D01*
X84308803Y-54512149D01*
X84098283Y-54823455D01*
X84108257Y-54977147D01*
X84108257Y-63643281D01*
X84087345Y-63652435D01*
X84056666Y-63745000D01*
X84226420Y-63936549D01*
X84351520Y-63956667D01*
X84678283Y-64127403D01*
X84768210Y-64274167D01*
X84995989Y-64555154D01*
X84995989Y-65650000D01*
X83508863Y-65650000D01*
X83508863Y-55397436D01*
X83568882Y-55036306D01*
X83575103Y-54994787D01*
X83873708Y-54369455D01*
X84282884Y-54042287D01*
X84748894Y-53762693D01*
X84864232Y-53628207D01*
X84652956Y-53586991D01*
X84495119Y-53585000D01*
X83931996Y-53772311D01*
X83559653Y-54267350D01*
X83453381Y-54923036D01*
X83478509Y-55364481D01*
X83508863Y-55397436D01*
X83508863Y-65650000D01*
X82575000Y-65650000D01*
X82575000Y-59760230D01*
X82571189Y-57880363D01*
X82575087Y-56380810D01*
G37*
X82575087Y-56380810D02*
X82609697Y-55218832D01*
X82698021Y-54351687D01*
X82863058Y-53736632D01*
X83127811Y-53330927D01*
X83515280Y-53091830D01*
X84048467Y-52976599D01*
X84750372Y-52942493D01*
X85643997Y-52946770D01*
X86239892Y-52950000D01*
X88925000Y-52950000D01*
X88925000Y-58839771D01*
X88924336Y-60570431D01*
X88919777Y-61927718D01*
X88907467Y-62961595D01*
X88883553Y-63722023D01*
X88844179Y-64258962D01*
X88785491Y-64622374D01*
X88703635Y-64862221D01*
X88594757Y-65028463D01*
X88455001Y-65171062D01*
X88435107Y-65189771D01*
X88198323Y-65381542D01*
X87915816Y-65511364D01*
X87505366Y-65591157D01*
X86884753Y-65632837D01*
X85971757Y-65648324D01*
X85260107Y-65650000D01*
X84995989Y-65650000D01*
X84995989Y-64555154D01*
X85236459Y-64532833D01*
X85326666Y-64274167D01*
X85513912Y-64020847D01*
X85919333Y-63956667D01*
X86448208Y-63870895D01*
X86766000Y-63702667D01*
X86949750Y-63357116D01*
X87015176Y-62920231D01*
X86953946Y-62571255D01*
X86823054Y-62475000D01*
X86643581Y-62654974D01*
X86558471Y-62951250D01*
X86355380Y-63345842D01*
X85908750Y-63494477D01*
X85524181Y-63487297D01*
X85524181Y-62051275D01*
X86084251Y-62011387D01*
X86610581Y-61832553D01*
X86937435Y-61450504D01*
X87022069Y-60908994D01*
X86864486Y-60395753D01*
X86610581Y-60154114D01*
X86143587Y-59999804D01*
X85724082Y-59954885D01*
X85724082Y-59511667D01*
X86439550Y-59418069D01*
X86859705Y-59087439D01*
X87078680Y-58453334D01*
X87159663Y-58084499D01*
X87235783Y-58116748D01*
X87335316Y-58400417D01*
X87566502Y-58770353D01*
X87785520Y-58876667D01*
X88051405Y-58760448D01*
X87965247Y-58411120D01*
X87690164Y-58020864D01*
X87317334Y-57706591D01*
X86753344Y-57523575D01*
X86102664Y-57442037D01*
X86019873Y-57440907D01*
X86019873Y-56976643D01*
X86547828Y-56812529D01*
X86916619Y-56396278D01*
X87013563Y-55966250D01*
X86940204Y-55719944D01*
X86895178Y-55701667D01*
X86685383Y-55848089D01*
X86398980Y-56160298D01*
X85981181Y-56472857D01*
X85598300Y-56460628D01*
X85373509Y-56159212D01*
X85364737Y-55861363D01*
X85499699Y-55527836D01*
X85860185Y-55365325D01*
X86226250Y-55318473D01*
X86811309Y-55215664D01*
X87000825Y-55071309D01*
X86812508Y-54935682D01*
X86264070Y-54859056D01*
X86062962Y-54855000D01*
X85437195Y-54891961D01*
X85087109Y-55044781D01*
X84868770Y-55375496D01*
X84746141Y-55857182D01*
X84914921Y-56323960D01*
X84984021Y-56433830D01*
X85457141Y-56859963D01*
X86019873Y-56976643D01*
X86019873Y-57440907D01*
X85410560Y-57432585D01*
X84984305Y-57516052D01*
X84866240Y-57658428D01*
X85098708Y-57825703D01*
X85485416Y-57937813D01*
X86133411Y-58094209D01*
X86466158Y-58232115D01*
X86585326Y-58406467D01*
X86596666Y-58538260D01*
X86414713Y-58848554D01*
X85971943Y-59023446D01*
X85422992Y-59008845D01*
X85326666Y-58982500D01*
X84983359Y-58967700D01*
X84903333Y-59179903D01*
X85031538Y-59410354D01*
X85467313Y-59504912D01*
X85724082Y-59511667D01*
X85724082Y-59954885D01*
X85601208Y-59941727D01*
X85137899Y-59980557D01*
X84908115Y-60116967D01*
X84903333Y-60146667D01*
X85086653Y-60297671D01*
X85512415Y-60358334D01*
X86053242Y-60469797D01*
X86433098Y-60741725D01*
X86541872Y-61080424D01*
X86496563Y-61195728D01*
X86210876Y-61345239D01*
X85695548Y-61415832D01*
X85631674Y-61416667D01*
X85088706Y-61487982D01*
X84903956Y-61714283D01*
X84903333Y-61734167D01*
X85082544Y-61956102D01*
X85524181Y-62051275D01*
X85524181Y-63487297D01*
X85487033Y-63486603D01*
X85339310Y-63249056D01*
X85326666Y-63000588D01*
X85228316Y-62602845D01*
X85013205Y-62541417D01*
X84801241Y-62801622D01*
X84729861Y-63073663D01*
X84558008Y-63437539D01*
X84359445Y-63533334D01*
X84108257Y-63643281D01*
X84108257Y-54977147D01*
X84338425Y-54972527D01*
X84611719Y-54752437D01*
X84766986Y-54472191D01*
X84750238Y-54358439D01*
X84541645Y-54343319D01*
X84308803Y-54512149D01*
X84098283Y-54823455D01*
X84108257Y-54977147D01*
X84108257Y-63643281D01*
X84087345Y-63652435D01*
X84056666Y-63745000D01*
X84226420Y-63936549D01*
X84351520Y-63956667D01*
X84678283Y-64127403D01*
X84768210Y-64274167D01*
X84995989Y-64555154D01*
X84995989Y-65650000D01*
X83508863Y-65650000D01*
X83508863Y-55397436D01*
X83568882Y-55036306D01*
X83575103Y-54994787D01*
X83873708Y-54369455D01*
X84282884Y-54042287D01*
X84748894Y-53762693D01*
X84864232Y-53628207D01*
X84652956Y-53586991D01*
X84495119Y-53585000D01*
X83931996Y-53772311D01*
X83559653Y-54267350D01*
X83453381Y-54923036D01*
X83478509Y-55364481D01*
X83508863Y-55397436D01*
X83508863Y-65650000D01*
X82575000Y-65650000D01*
X82575000Y-59760230D01*
X82571189Y-57880363D01*
X82575087Y-56380810D01*
D14*
%TO.C,U2*%
X126920000Y-93760000D02*
X109100000Y-93750000D01*
X126920000Y-76615000D02*
X106250000Y-76620000D01*
X125650000Y-79155000D02*
X125015000Y-79155000D01*
X125650000Y-77250000D02*
X125650000Y-79155000D01*
X121205000Y-77250000D02*
X125650000Y-77250000D01*
X125650000Y-77885000D02*
X125650000Y-78520000D01*
X125650000Y-77250000D02*
X125650000Y-77885000D01*
X121205000Y-92490000D02*
X121205000Y-93125000D01*
X121205000Y-91855000D02*
X121205000Y-92490000D01*
X125015000Y-91855000D02*
X121205000Y-91855000D01*
X125015000Y-89315000D02*
X125015000Y-91855000D01*
X121205000Y-89315000D02*
X125015000Y-89315000D01*
X121205000Y-86775000D02*
X121205000Y-89315000D01*
X125015000Y-86775000D02*
X121205000Y-86775000D01*
X125015000Y-86140000D02*
X125015000Y-86775000D01*
X125015000Y-85505000D02*
X125015000Y-86140000D01*
X125015000Y-84235000D02*
X125015000Y-85505000D01*
X121205000Y-84235000D02*
X125015000Y-84235000D01*
X121205000Y-81695000D02*
X121205000Y-84235000D01*
X125015000Y-81695000D02*
X121205000Y-81695000D01*
X125015000Y-79155000D02*
X125015000Y-81695000D01*
X121205000Y-79155000D02*
X125015000Y-79155000D01*
X121205000Y-77250000D02*
X121205000Y-79155000D01*
X120570000Y-76615000D02*
X120570000Y-93760000D01*
X126920000Y-76615000D02*
X126920000Y-93760000D01*
X104060000Y-93760000D02*
X104060000Y-76615000D01*
%TO.C,J8*%
X82920000Y-98770000D02*
X88120000Y-98770000D01*
X82920000Y-96170000D02*
X82920000Y-98770000D01*
X88120000Y-93570000D02*
X88120000Y-98770000D01*
X82920000Y-96170000D02*
X85520000Y-96170000D01*
X85520000Y-96170000D02*
X85520000Y-93570000D01*
X85520000Y-93570000D02*
X88120000Y-93570000D01*
X82920000Y-94900000D02*
X82920000Y-93570000D01*
X82920000Y-93570000D02*
X84250000Y-93570000D01*
%TO.C,U1*%
X96690000Y-88610000D02*
X97950000Y-88610000D01*
X103510000Y-88610000D02*
X102250000Y-88610000D01*
X96690000Y-84850000D02*
X96690000Y-88610000D01*
X103510000Y-82600000D02*
X103510000Y-88610000D01*
%TO.C,J4*%
X80980000Y-53250000D02*
X80960000Y-50340000D01*
X119060000Y-50320000D02*
X80990000Y-50320000D01*
X80970000Y-53260000D02*
X81200000Y-53260000D01*
X119060000Y-53250000D02*
X119060000Y-50510000D01*
X119060000Y-50510000D02*
X119060000Y-50320000D01*
X81130000Y-53260000D02*
X119060000Y-53250000D01*
X81070000Y-68280000D02*
X81300000Y-68280000D01*
X81070000Y-68260000D02*
X81070000Y-68280000D01*
X81090000Y-65340000D02*
X81070000Y-68260000D01*
X119160000Y-65340000D02*
X81090000Y-65340000D01*
X119160000Y-65530000D02*
X119160000Y-65340000D01*
X119160000Y-68270000D02*
X119160000Y-65530000D01*
X81230000Y-68280000D02*
X119160000Y-68270000D01*
X117750000Y-65220000D02*
X117750000Y-53220000D01*
X117750000Y-61220000D02*
X118750000Y-61220000D01*
X118750000Y-61220000D02*
X118750000Y-57220000D01*
X118750000Y-57220000D02*
X117750000Y-57220000D01*
%TO.C,J3*%
X80860000Y-49330000D02*
X80860000Y-48000000D01*
X82190000Y-49330000D02*
X80860000Y-49330000D01*
X83460000Y-49330000D02*
X83460000Y-46670000D01*
X83460000Y-46670000D02*
X119080000Y-46670000D01*
X83460000Y-49330000D02*
X119080000Y-49330000D01*
X119080000Y-49330000D02*
X119080000Y-46670000D01*
%TO.C,J1*%
X80970000Y-71930000D02*
X80970000Y-70600000D01*
X82300000Y-71930000D02*
X80970000Y-71930000D01*
X83570000Y-71930000D02*
X83570000Y-69270000D01*
X83570000Y-69270000D02*
X119190000Y-69270000D01*
X83570000Y-71930000D02*
X119190000Y-71930000D01*
X119190000Y-71930000D02*
X119190000Y-69270000D01*
%TO.C,R8*%
X89695276Y-95072500D02*
X90204724Y-95072500D01*
X89695276Y-94027500D02*
X90204724Y-94027500D01*
%TO.C,R7*%
X109645276Y-58922500D02*
X110154724Y-58922500D01*
X109645276Y-57877500D02*
X110154724Y-57877500D01*
%TO.C,R6*%
X109595276Y-64722500D02*
X110104724Y-64722500D01*
X109595276Y-63677500D02*
X110104724Y-63677500D01*
%TO.C,R5*%
X109632776Y-59577500D02*
X110142224Y-59577500D01*
X109632776Y-60622500D02*
X110142224Y-60622500D01*
%TO.C,R4*%
X117072500Y-62942224D02*
X117072500Y-62432776D01*
X116027500Y-62942224D02*
X116027500Y-62432776D01*
%TO.C,R3*%
X109595276Y-62522500D02*
X110104724Y-62522500D01*
X109595276Y-61477500D02*
X110104724Y-61477500D01*
%TO.C,R2*%
X104504724Y-44427500D02*
X103995276Y-44427500D01*
X104504724Y-45472500D02*
X103995276Y-45472500D01*
%TO.C,R1*%
X101595276Y-77872500D02*
X102104724Y-77872500D01*
X101595276Y-76827500D02*
X102104724Y-76827500D01*
%TO.C,Q1*%
X114460000Y-64580000D02*
X113000000Y-64580000D01*
X114460000Y-61420000D02*
X112300000Y-61420000D01*
X114460000Y-61420000D02*
X114460000Y-62350000D01*
X114460000Y-64580000D02*
X114460000Y-63650000D01*
%TO.C,JP3*%
X120420000Y-59220000D02*
X121750000Y-59220000D01*
X120420000Y-60550000D02*
X120420000Y-59220000D01*
X120420000Y-61820000D02*
X123080000Y-61820000D01*
X123080000Y-61820000D02*
X123080000Y-66960000D01*
X120420000Y-61820000D02*
X120420000Y-66960000D01*
X120420000Y-66960000D02*
X123080000Y-66960000D01*
%TO.C,JP2*%
X125070000Y-68140000D02*
X126400000Y-68140000D01*
X125070000Y-69470000D02*
X125070000Y-68140000D01*
X125070000Y-70740000D02*
X127730000Y-70740000D01*
X127730000Y-70740000D02*
X127730000Y-75880000D01*
X125070000Y-70740000D02*
X125070000Y-75880000D01*
X125070000Y-75880000D02*
X127730000Y-75880000D01*
%TO.C,JP1*%
X121470000Y-68120000D02*
X122800000Y-68120000D01*
X121470000Y-69450000D02*
X121470000Y-68120000D01*
X121470000Y-70720000D02*
X124130000Y-70720000D01*
X124130000Y-70720000D02*
X124130000Y-75860000D01*
X121470000Y-70720000D02*
X121470000Y-75860000D01*
X121470000Y-75860000D02*
X124130000Y-75860000D01*
%TO.C,J7*%
X120490000Y-94720000D02*
X120490000Y-96050000D01*
X119160000Y-94720000D02*
X120490000Y-94720000D01*
X117890000Y-94720000D02*
X117890000Y-97380000D01*
X117890000Y-97380000D02*
X92430000Y-97380000D01*
X117890000Y-94720000D02*
X92430000Y-94720000D01*
X92430000Y-94720000D02*
X92430000Y-97380000D01*
%TO.C,J6*%
X120180000Y-72970000D02*
X120180000Y-74300000D01*
X118850000Y-72970000D02*
X120180000Y-72970000D01*
X117580000Y-72970000D02*
X117580000Y-75630000D01*
X117580000Y-75630000D02*
X92120000Y-75630000D01*
X117580000Y-72970000D02*
X92120000Y-72970000D01*
X92120000Y-72970000D02*
X92120000Y-75630000D01*
%TO.C,J5*%
X124670000Y-59220000D02*
X126000000Y-59220000D01*
X124670000Y-60550000D02*
X124670000Y-59220000D01*
X124670000Y-61820000D02*
X127330000Y-61820000D01*
X127330000Y-61820000D02*
X127330000Y-66960000D01*
X124670000Y-61820000D02*
X124670000Y-66960000D01*
X124670000Y-66960000D02*
X127330000Y-66960000D01*
%TO.C,J2*%
X78150000Y-80850000D02*
X78873400Y-80483800D01*
X78162200Y-72635200D02*
X78873400Y-73016200D01*
X78150000Y-80850000D02*
X78150000Y-72650000D01*
X84250000Y-74950000D02*
X84250000Y-73000000D01*
X81850000Y-73000000D02*
X84250000Y-73000000D01*
X78850000Y-73000000D02*
X80150000Y-73000000D01*
X84250000Y-80450000D02*
X84250000Y-78550000D01*
X81850000Y-80500000D02*
X84250000Y-80500000D01*
X78850000Y-80500000D02*
X80150000Y-80500000D01*
X78850000Y-80500000D02*
X78850000Y-73000000D01*
%TO.C,F1*%
X88761252Y-73890000D02*
X88238748Y-73890000D01*
X88761252Y-75310000D02*
X88238748Y-75310000D01*
%TO.C,D5*%
X88335000Y-97635000D02*
X90795000Y-97635000D01*
X88335000Y-96165000D02*
X88335000Y-97635000D01*
X90795000Y-96165000D02*
X88335000Y-96165000D01*
%TO.C,D4*%
X106090000Y-45685000D02*
X108550000Y-45685000D01*
X106090000Y-44215000D02*
X106090000Y-45685000D01*
X108550000Y-44215000D02*
X106090000Y-44215000D01*
%TO.C,D3*%
X99960000Y-76615000D02*
X97500000Y-76615000D01*
X99960000Y-78085000D02*
X99960000Y-76615000D01*
X97500000Y-78085000D02*
X99960000Y-78085000D01*
%TO.C,D2*%
X86600000Y-80650000D02*
X93900000Y-80650000D01*
X86600000Y-84950000D02*
X93900000Y-84950000D01*
X86600000Y-80650000D02*
X86600000Y-84950000D01*
%TO.C,D1*%
X95800000Y-80050000D02*
X88900000Y-80050000D01*
X95800000Y-76750000D02*
X88900000Y-76750000D01*
X95800000Y-80050000D02*
X95800000Y-76750000D01*
%TO.C,C10*%
X80996267Y-94390000D02*
X80703733Y-94390000D01*
X80996267Y-95410000D02*
X80703733Y-95410000D01*
%TO.C,C9*%
X80946267Y-92490000D02*
X80653733Y-92490000D01*
X80946267Y-93510000D02*
X80653733Y-93510000D01*
%TO.C,C8*%
X97460000Y-92296267D02*
X97460000Y-92003733D01*
X96440000Y-92296267D02*
X96440000Y-92003733D01*
%TO.C,C7*%
X111308767Y-44440000D02*
X111016233Y-44440000D01*
X111308767Y-45460000D02*
X111016233Y-45460000D01*
%TO.C,C6*%
X118158767Y-44390000D02*
X117866233Y-44390000D01*
X118158767Y-45410000D02*
X117866233Y-45410000D01*
%TO.C,C5*%
X114696267Y-44440000D02*
X114403733Y-44440000D01*
X114696267Y-45460000D02*
X114403733Y-45460000D01*
%TO.C,C4*%
X98015000Y-93635000D02*
X102100000Y-93635000D01*
X98015000Y-91765000D02*
X98015000Y-93635000D01*
X102100000Y-91765000D02*
X98015000Y-91765000D01*
%TO.C,C3*%
X102140000Y-80153733D02*
X102140000Y-80446267D01*
X103160000Y-80153733D02*
X103160000Y-80446267D01*
%TO.C,C2*%
X96615000Y-80635000D02*
X100700000Y-80635000D01*
X96615000Y-78765000D02*
X96615000Y-80635000D01*
X100700000Y-78765000D02*
X96615000Y-78765000D01*
%TO.C,C1*%
X84354000Y-81714759D02*
X83724000Y-81714759D01*
X84039000Y-81399759D02*
X84039000Y-82029759D01*
X82602000Y-88141000D02*
X81798000Y-88141000D01*
X82833000Y-88101000D02*
X81567000Y-88101000D01*
X83002000Y-88061000D02*
X81398000Y-88061000D01*
X83140000Y-88021000D02*
X81260000Y-88021000D01*
X83259000Y-87981000D02*
X81141000Y-87981000D01*
X83365000Y-87941000D02*
X81035000Y-87941000D01*
X83462000Y-87901000D02*
X80938000Y-87901000D01*
X83550000Y-87861000D02*
X80850000Y-87861000D01*
X83632000Y-87821000D02*
X80768000Y-87821000D01*
X83709000Y-87781000D02*
X80691000Y-87781000D01*
X83781000Y-87741000D02*
X80619000Y-87741000D01*
X83850000Y-87701000D02*
X80550000Y-87701000D01*
X83914000Y-87661000D02*
X80486000Y-87661000D01*
X83976000Y-87621000D02*
X80424000Y-87621000D01*
X84034000Y-87581000D02*
X80366000Y-87581000D01*
X84090000Y-87541000D02*
X80310000Y-87541000D01*
X84144000Y-87501000D02*
X80256000Y-87501000D01*
X84195000Y-87461000D02*
X80205000Y-87461000D01*
X84244000Y-87421000D02*
X80156000Y-87421000D01*
X84292000Y-87381000D02*
X80108000Y-87381000D01*
X84337000Y-87341000D02*
X80063000Y-87341000D01*
X84382000Y-87301000D02*
X80018000Y-87301000D01*
X84424000Y-87261000D02*
X79976000Y-87261000D01*
X84465000Y-87221000D02*
X79935000Y-87221000D01*
X81160000Y-87181000D02*
X79895000Y-87181000D01*
X84505000Y-87181000D02*
X83240000Y-87181000D01*
X81160000Y-87141000D02*
X79857000Y-87141000D01*
X84543000Y-87141000D02*
X83240000Y-87141000D01*
X81160000Y-87101000D02*
X79820000Y-87101000D01*
X84580000Y-87101000D02*
X83240000Y-87101000D01*
X81160000Y-87061000D02*
X79784000Y-87061000D01*
X84616000Y-87061000D02*
X83240000Y-87061000D01*
X81160000Y-87021000D02*
X79750000Y-87021000D01*
X84650000Y-87021000D02*
X83240000Y-87021000D01*
X81160000Y-86981000D02*
X79716000Y-86981000D01*
X84684000Y-86981000D02*
X83240000Y-86981000D01*
X81160000Y-86941000D02*
X79684000Y-86941000D01*
X84716000Y-86941000D02*
X83240000Y-86941000D01*
X81160000Y-86901000D02*
X79652000Y-86901000D01*
X84748000Y-86901000D02*
X83240000Y-86901000D01*
X81160000Y-86861000D02*
X79622000Y-86861000D01*
X84778000Y-86861000D02*
X83240000Y-86861000D01*
X81160000Y-86821000D02*
X79593000Y-86821000D01*
X84807000Y-86821000D02*
X83240000Y-86821000D01*
X81160000Y-86781000D02*
X79564000Y-86781000D01*
X84836000Y-86781000D02*
X83240000Y-86781000D01*
X81160000Y-86741000D02*
X79536000Y-86741000D01*
X84864000Y-86741000D02*
X83240000Y-86741000D01*
X81160000Y-86701000D02*
X79510000Y-86701000D01*
X84890000Y-86701000D02*
X83240000Y-86701000D01*
X81160000Y-86661000D02*
X79484000Y-86661000D01*
X84916000Y-86661000D02*
X83240000Y-86661000D01*
X81160000Y-86621000D02*
X79458000Y-86621000D01*
X84942000Y-86621000D02*
X83240000Y-86621000D01*
X81160000Y-86581000D02*
X79434000Y-86581000D01*
X84966000Y-86581000D02*
X83240000Y-86581000D01*
X81160000Y-86541000D02*
X79410000Y-86541000D01*
X84990000Y-86541000D02*
X83240000Y-86541000D01*
X81160000Y-86501000D02*
X79388000Y-86501000D01*
X85012000Y-86501000D02*
X83240000Y-86501000D01*
X81160000Y-86461000D02*
X79366000Y-86461000D01*
X85034000Y-86461000D02*
X83240000Y-86461000D01*
X81160000Y-86421000D02*
X79344000Y-86421000D01*
X85056000Y-86421000D02*
X83240000Y-86421000D01*
X81160000Y-86381000D02*
X79324000Y-86381000D01*
X85076000Y-86381000D02*
X83240000Y-86381000D01*
X81160000Y-86341000D02*
X79304000Y-86341000D01*
X85096000Y-86341000D02*
X83240000Y-86341000D01*
X81160000Y-86301000D02*
X79284000Y-86301000D01*
X85116000Y-86301000D02*
X83240000Y-86301000D01*
X81160000Y-86261000D02*
X79266000Y-86261000D01*
X85134000Y-86261000D02*
X83240000Y-86261000D01*
X81160000Y-86221000D02*
X79248000Y-86221000D01*
X85152000Y-86221000D02*
X83240000Y-86221000D01*
X81160000Y-86181000D02*
X79230000Y-86181000D01*
X85170000Y-86181000D02*
X83240000Y-86181000D01*
X81160000Y-86141000D02*
X79214000Y-86141000D01*
X85186000Y-86141000D02*
X83240000Y-86141000D01*
X81160000Y-86101000D02*
X79198000Y-86101000D01*
X85202000Y-86101000D02*
X83240000Y-86101000D01*
X81160000Y-86061000D02*
X79182000Y-86061000D01*
X85218000Y-86061000D02*
X83240000Y-86061000D01*
X81160000Y-86021000D02*
X79167000Y-86021000D01*
X85233000Y-86021000D02*
X83240000Y-86021000D01*
X81160000Y-85981000D02*
X79153000Y-85981000D01*
X85247000Y-85981000D02*
X83240000Y-85981000D01*
X81160000Y-85941000D02*
X79139000Y-85941000D01*
X85261000Y-85941000D02*
X83240000Y-85941000D01*
X81160000Y-85901000D02*
X79126000Y-85901000D01*
X85274000Y-85901000D02*
X83240000Y-85901000D01*
X81160000Y-85861000D02*
X79114000Y-85861000D01*
X85286000Y-85861000D02*
X83240000Y-85861000D01*
X81160000Y-85821000D02*
X79102000Y-85821000D01*
X85298000Y-85821000D02*
X83240000Y-85821000D01*
X81160000Y-85781000D02*
X79090000Y-85781000D01*
X85310000Y-85781000D02*
X83240000Y-85781000D01*
X81160000Y-85741000D02*
X79079000Y-85741000D01*
X85321000Y-85741000D02*
X83240000Y-85741000D01*
X81160000Y-85701000D02*
X79069000Y-85701000D01*
X85331000Y-85701000D02*
X83240000Y-85701000D01*
X81160000Y-85661000D02*
X79059000Y-85661000D01*
X85341000Y-85661000D02*
X83240000Y-85661000D01*
X81160000Y-85621000D02*
X79050000Y-85621000D01*
X85350000Y-85621000D02*
X83240000Y-85621000D01*
X81160000Y-85580000D02*
X79041000Y-85580000D01*
X85359000Y-85580000D02*
X83240000Y-85580000D01*
X81160000Y-85540000D02*
X79033000Y-85540000D01*
X85367000Y-85540000D02*
X83240000Y-85540000D01*
X81160000Y-85500000D02*
X79025000Y-85500000D01*
X85375000Y-85500000D02*
X83240000Y-85500000D01*
X81160000Y-85460000D02*
X79018000Y-85460000D01*
X85382000Y-85460000D02*
X83240000Y-85460000D01*
X81160000Y-85420000D02*
X79011000Y-85420000D01*
X85389000Y-85420000D02*
X83240000Y-85420000D01*
X81160000Y-85380000D02*
X79005000Y-85380000D01*
X85395000Y-85380000D02*
X83240000Y-85380000D01*
X81160000Y-85340000D02*
X78999000Y-85340000D01*
X85401000Y-85340000D02*
X83240000Y-85340000D01*
X81160000Y-85300000D02*
X78994000Y-85300000D01*
X85406000Y-85300000D02*
X83240000Y-85300000D01*
X81160000Y-85260000D02*
X78989000Y-85260000D01*
X85411000Y-85260000D02*
X83240000Y-85260000D01*
X81160000Y-85220000D02*
X78985000Y-85220000D01*
X85415000Y-85220000D02*
X83240000Y-85220000D01*
X81160000Y-85180000D02*
X78982000Y-85180000D01*
X85418000Y-85180000D02*
X83240000Y-85180000D01*
X81160000Y-85140000D02*
X78978000Y-85140000D01*
X85422000Y-85140000D02*
X83240000Y-85140000D01*
X85424000Y-85100000D02*
X78976000Y-85100000D01*
X85427000Y-85060000D02*
X78973000Y-85060000D01*
X85428000Y-85020000D02*
X78972000Y-85020000D01*
X85430000Y-84980000D02*
X78970000Y-84980000D01*
X85430000Y-84940000D02*
X78970000Y-84940000D01*
X85430000Y-84900000D02*
X78970000Y-84900000D01*
X85470000Y-84900000D02*
G75*
G03*
X85470000Y-84900000I-3270000J0D01*
G01*
%TO.C,U2*%
D12*
X127452380Y-93161904D02*
X128261904Y-93161904D01*
X128357142Y-93114285D01*
X128404761Y-93066666D01*
X128452380Y-92971428D01*
X128452380Y-92780952D01*
X128404761Y-92685714D01*
X128357142Y-92638095D01*
X128261904Y-92590476D01*
X127452380Y-92590476D01*
X127547619Y-92161904D02*
X127500000Y-92114285D01*
X127452380Y-92019047D01*
X127452380Y-91780952D01*
X127500000Y-91685714D01*
X127547619Y-91638095D01*
X127642857Y-91590476D01*
X127738095Y-91590476D01*
X127880952Y-91638095D01*
X128452380Y-92209523D01*
X128452380Y-91590476D01*
%TO.C,J8*%
X81816666Y-97102380D02*
X81816666Y-97816666D01*
X81769047Y-97959523D01*
X81673809Y-98054761D01*
X81530952Y-98102380D01*
X81435714Y-98102380D01*
X82435714Y-97530952D02*
X82340476Y-97483333D01*
X82292857Y-97435714D01*
X82245238Y-97340476D01*
X82245238Y-97292857D01*
X82292857Y-97197619D01*
X82340476Y-97150000D01*
X82435714Y-97102380D01*
X82626190Y-97102380D01*
X82721428Y-97150000D01*
X82769047Y-97197619D01*
X82816666Y-97292857D01*
X82816666Y-97340476D01*
X82769047Y-97435714D01*
X82721428Y-97483333D01*
X82626190Y-97530952D01*
X82435714Y-97530952D01*
X82340476Y-97578571D01*
X82292857Y-97626190D01*
X82245238Y-97721428D01*
X82245238Y-97911904D01*
X82292857Y-98007142D01*
X82340476Y-98054761D01*
X82435714Y-98102380D01*
X82626190Y-98102380D01*
X82721428Y-98054761D01*
X82769047Y-98007142D01*
X82816666Y-97911904D01*
X82816666Y-97721428D01*
X82769047Y-97626190D01*
X82721428Y-97578571D01*
X82626190Y-97530952D01*
%TO.C,U1*%
X99188095Y-86652380D02*
X99188095Y-87461904D01*
X99235714Y-87557142D01*
X99283333Y-87604761D01*
X99378571Y-87652380D01*
X99569047Y-87652380D01*
X99664285Y-87604761D01*
X99711904Y-87557142D01*
X99759523Y-87461904D01*
X99759523Y-86652380D01*
X100759523Y-87652380D02*
X100188095Y-87652380D01*
X100473809Y-87652380D02*
X100473809Y-86652380D01*
X100378571Y-86795238D01*
X100283333Y-86890476D01*
X100188095Y-86938095D01*
%TO.C,J4*%
X103116666Y-54952380D02*
X103116666Y-55666666D01*
X103069047Y-55809523D01*
X102973809Y-55904761D01*
X102830952Y-55952380D01*
X102735714Y-55952380D01*
X104021428Y-55285714D02*
X104021428Y-55952380D01*
X103783333Y-54904761D02*
X103545238Y-55619047D01*
X104164285Y-55619047D01*
X92264285Y-55416666D02*
X92740476Y-55416666D01*
X92169047Y-55702380D02*
X92502380Y-54702380D01*
X92835714Y-55702380D01*
X93169047Y-55702380D02*
X93169047Y-55035714D01*
X93169047Y-55226190D02*
X93216666Y-55130952D01*
X93264285Y-55083333D01*
X93359523Y-55035714D01*
X93454761Y-55035714D01*
X94216666Y-55702380D02*
X94216666Y-54702380D01*
X94216666Y-55654761D02*
X94121428Y-55702380D01*
X93930952Y-55702380D01*
X93835714Y-55654761D01*
X93788095Y-55607142D01*
X93740476Y-55511904D01*
X93740476Y-55226190D01*
X93788095Y-55130952D01*
X93835714Y-55083333D01*
X93930952Y-55035714D01*
X94121428Y-55035714D01*
X94216666Y-55083333D01*
X95121428Y-55035714D02*
X95121428Y-55702380D01*
X94692857Y-55035714D02*
X94692857Y-55559523D01*
X94740476Y-55654761D01*
X94835714Y-55702380D01*
X94978571Y-55702380D01*
X95073809Y-55654761D01*
X95121428Y-55607142D01*
X95597619Y-55702380D02*
X95597619Y-55035714D01*
X95597619Y-54702380D02*
X95550000Y-54750000D01*
X95597619Y-54797619D01*
X95645238Y-54750000D01*
X95597619Y-54702380D01*
X95597619Y-54797619D01*
X96073809Y-55035714D02*
X96073809Y-55702380D01*
X96073809Y-55130952D02*
X96121428Y-55083333D01*
X96216666Y-55035714D01*
X96359523Y-55035714D01*
X96454761Y-55083333D01*
X96502380Y-55178571D01*
X96502380Y-55702380D01*
X97121428Y-55702380D02*
X97026190Y-55654761D01*
X96978571Y-55607142D01*
X96930952Y-55511904D01*
X96930952Y-55226190D01*
X96978571Y-55130952D01*
X97026190Y-55083333D01*
X97121428Y-55035714D01*
X97264285Y-55035714D01*
X97359523Y-55083333D01*
X97407142Y-55130952D01*
X97454761Y-55226190D01*
X97454761Y-55511904D01*
X97407142Y-55607142D01*
X97359523Y-55654761D01*
X97264285Y-55702380D01*
X97121428Y-55702380D01*
X97645238Y-55797619D02*
X98407142Y-55797619D01*
X98645238Y-55035714D02*
X98645238Y-55702380D01*
X98645238Y-55130952D02*
X98692857Y-55083333D01*
X98788095Y-55035714D01*
X98930952Y-55035714D01*
X99026190Y-55083333D01*
X99073809Y-55178571D01*
X99073809Y-55702380D01*
X99978571Y-55702380D02*
X99978571Y-55178571D01*
X99930952Y-55083333D01*
X99835714Y-55035714D01*
X99645238Y-55035714D01*
X99550000Y-55083333D01*
X99978571Y-55654761D02*
X99883333Y-55702380D01*
X99645238Y-55702380D01*
X99550000Y-55654761D01*
X99502380Y-55559523D01*
X99502380Y-55464285D01*
X99550000Y-55369047D01*
X99645238Y-55321428D01*
X99883333Y-55321428D01*
X99978571Y-55273809D01*
X100454761Y-55035714D02*
X100454761Y-55702380D01*
X100454761Y-55130952D02*
X100502380Y-55083333D01*
X100597619Y-55035714D01*
X100740476Y-55035714D01*
X100835714Y-55083333D01*
X100883333Y-55178571D01*
X100883333Y-55702380D01*
X101502380Y-55702380D02*
X101407142Y-55654761D01*
X101359523Y-55607142D01*
X101311904Y-55511904D01*
X101311904Y-55226190D01*
X101359523Y-55130952D01*
X101407142Y-55083333D01*
X101502380Y-55035714D01*
X101645238Y-55035714D01*
X101740476Y-55083333D01*
X101788095Y-55130952D01*
X101835714Y-55226190D01*
X101835714Y-55511904D01*
X101788095Y-55607142D01*
X101740476Y-55654761D01*
X101645238Y-55702380D01*
X101502380Y-55702380D01*
%TO.C,J3*%
X79312380Y-48333333D02*
X80026666Y-48333333D01*
X80169523Y-48380952D01*
X80264761Y-48476190D01*
X80312380Y-48619047D01*
X80312380Y-48714285D01*
X79312380Y-47952380D02*
X79312380Y-47333333D01*
X79693333Y-47666666D01*
X79693333Y-47523809D01*
X79740952Y-47428571D01*
X79788571Y-47380952D01*
X79883809Y-47333333D01*
X80121904Y-47333333D01*
X80217142Y-47380952D01*
X80264761Y-47428571D01*
X80312380Y-47523809D01*
X80312380Y-47809523D01*
X80264761Y-47904761D01*
X80217142Y-47952380D01*
%TO.C,J1*%
X79422380Y-70933333D02*
X80136666Y-70933333D01*
X80279523Y-70980952D01*
X80374761Y-71076190D01*
X80422380Y-71219047D01*
X80422380Y-71314285D01*
X80422380Y-69933333D02*
X80422380Y-70504761D01*
X80422380Y-70219047D02*
X79422380Y-70219047D01*
X79565238Y-70314285D01*
X79660476Y-70409523D01*
X79708095Y-70504761D01*
%TO.C,SW5*%
X89566666Y-86254761D02*
X89709523Y-86302380D01*
X89947619Y-86302380D01*
X90042857Y-86254761D01*
X90090476Y-86207142D01*
X90138095Y-86111904D01*
X90138095Y-86016666D01*
X90090476Y-85921428D01*
X90042857Y-85873809D01*
X89947619Y-85826190D01*
X89757142Y-85778571D01*
X89661904Y-85730952D01*
X89614285Y-85683333D01*
X89566666Y-85588095D01*
X89566666Y-85492857D01*
X89614285Y-85397619D01*
X89661904Y-85350000D01*
X89757142Y-85302380D01*
X89995238Y-85302380D01*
X90138095Y-85350000D01*
X90471428Y-85302380D02*
X90709523Y-86302380D01*
X90900000Y-85588095D01*
X91090476Y-86302380D01*
X91328571Y-85302380D01*
X92185714Y-85302380D02*
X91709523Y-85302380D01*
X91661904Y-85778571D01*
X91709523Y-85730952D01*
X91804761Y-85683333D01*
X92042857Y-85683333D01*
X92138095Y-85730952D01*
X92185714Y-85778571D01*
X92233333Y-85873809D01*
X92233333Y-86111904D01*
X92185714Y-86207142D01*
X92138095Y-86254761D01*
X92042857Y-86302380D01*
X91804761Y-86302380D01*
X91709523Y-86254761D01*
X91661904Y-86207142D01*
%TO.C,SW4*%
X93266666Y-86054761D02*
X93409523Y-86102380D01*
X93647619Y-86102380D01*
X93742857Y-86054761D01*
X93790476Y-86007142D01*
X93838095Y-85911904D01*
X93838095Y-85816666D01*
X93790476Y-85721428D01*
X93742857Y-85673809D01*
X93647619Y-85626190D01*
X93457142Y-85578571D01*
X93361904Y-85530952D01*
X93314285Y-85483333D01*
X93266666Y-85388095D01*
X93266666Y-85292857D01*
X93314285Y-85197619D01*
X93361904Y-85150000D01*
X93457142Y-85102380D01*
X93695238Y-85102380D01*
X93838095Y-85150000D01*
X94171428Y-85102380D02*
X94409523Y-86102380D01*
X94600000Y-85388095D01*
X94790476Y-86102380D01*
X95028571Y-85102380D01*
X95838095Y-85435714D02*
X95838095Y-86102380D01*
X95600000Y-85054761D02*
X95361904Y-85769047D01*
X95980952Y-85769047D01*
%TO.C,SW3*%
X128154761Y-48833333D02*
X128202380Y-48690476D01*
X128202380Y-48452380D01*
X128154761Y-48357142D01*
X128107142Y-48309523D01*
X128011904Y-48261904D01*
X127916666Y-48261904D01*
X127821428Y-48309523D01*
X127773809Y-48357142D01*
X127726190Y-48452380D01*
X127678571Y-48642857D01*
X127630952Y-48738095D01*
X127583333Y-48785714D01*
X127488095Y-48833333D01*
X127392857Y-48833333D01*
X127297619Y-48785714D01*
X127250000Y-48738095D01*
X127202380Y-48642857D01*
X127202380Y-48404761D01*
X127250000Y-48261904D01*
X127202380Y-47928571D02*
X128202380Y-47690476D01*
X127488095Y-47500000D01*
X128202380Y-47309523D01*
X127202380Y-47071428D01*
X127202380Y-46785714D02*
X127202380Y-46166666D01*
X127583333Y-46500000D01*
X127583333Y-46357142D01*
X127630952Y-46261904D01*
X127678571Y-46214285D01*
X127773809Y-46166666D01*
X128011904Y-46166666D01*
X128107142Y-46214285D01*
X128154761Y-46261904D01*
X128202380Y-46357142D01*
X128202380Y-46642857D01*
X128154761Y-46738095D01*
X128107142Y-46785714D01*
%TO.C,SW2*%
D11*
X128158428Y-55116000D02*
X128194714Y-55007142D01*
X128194714Y-54825714D01*
X128158428Y-54753142D01*
X128122142Y-54716857D01*
X128049571Y-54680571D01*
X127977000Y-54680571D01*
X127904428Y-54716857D01*
X127868142Y-54753142D01*
X127831857Y-54825714D01*
X127795571Y-54970857D01*
X127759285Y-55043428D01*
X127723000Y-55079714D01*
X127650428Y-55116000D01*
X127577857Y-55116000D01*
X127505285Y-55079714D01*
X127469000Y-55043428D01*
X127432714Y-54970857D01*
X127432714Y-54789428D01*
X127469000Y-54680571D01*
X127432714Y-54426571D02*
X128194714Y-54245142D01*
X127650428Y-54100000D01*
X128194714Y-53954857D01*
X127432714Y-53773428D01*
X127505285Y-53519428D02*
X127469000Y-53483142D01*
X127432714Y-53410571D01*
X127432714Y-53229142D01*
X127469000Y-53156571D01*
X127505285Y-53120285D01*
X127577857Y-53084000D01*
X127650428Y-53084000D01*
X127759285Y-53120285D01*
X128194714Y-53555714D01*
X128194714Y-53084000D01*
%TO.C,SW1*%
D12*
X128104761Y-52033333D02*
X128152380Y-51890476D01*
X128152380Y-51652380D01*
X128104761Y-51557142D01*
X128057142Y-51509523D01*
X127961904Y-51461904D01*
X127866666Y-51461904D01*
X127771428Y-51509523D01*
X127723809Y-51557142D01*
X127676190Y-51652380D01*
X127628571Y-51842857D01*
X127580952Y-51938095D01*
X127533333Y-51985714D01*
X127438095Y-52033333D01*
X127342857Y-52033333D01*
X127247619Y-51985714D01*
X127200000Y-51938095D01*
X127152380Y-51842857D01*
X127152380Y-51604761D01*
X127200000Y-51461904D01*
X127152380Y-51128571D02*
X128152380Y-50890476D01*
X127438095Y-50700000D01*
X128152380Y-50509523D01*
X127152380Y-50271428D01*
X128152380Y-49366666D02*
X128152380Y-49938095D01*
X128152380Y-49652380D02*
X127152380Y-49652380D01*
X127295238Y-49747619D01*
X127390476Y-49842857D01*
X127438095Y-49938095D01*
%TO.C,R8*%
X90033333Y-93952380D02*
X89700000Y-93476190D01*
X89461904Y-93952380D02*
X89461904Y-92952380D01*
X89842857Y-92952380D01*
X89938095Y-93000000D01*
X89985714Y-93047619D01*
X90033333Y-93142857D01*
X90033333Y-93285714D01*
X89985714Y-93380952D01*
X89938095Y-93428571D01*
X89842857Y-93476190D01*
X89461904Y-93476190D01*
X90604761Y-93380952D02*
X90509523Y-93333333D01*
X90461904Y-93285714D01*
X90414285Y-93190476D01*
X90414285Y-93142857D01*
X90461904Y-93047619D01*
X90509523Y-93000000D01*
X90604761Y-92952380D01*
X90795238Y-92952380D01*
X90890476Y-93000000D01*
X90938095Y-93047619D01*
X90985714Y-93142857D01*
X90985714Y-93190476D01*
X90938095Y-93285714D01*
X90890476Y-93333333D01*
X90795238Y-93380952D01*
X90604761Y-93380952D01*
X90509523Y-93428571D01*
X90461904Y-93476190D01*
X90414285Y-93571428D01*
X90414285Y-93761904D01*
X90461904Y-93857142D01*
X90509523Y-93904761D01*
X90604761Y-93952380D01*
X90795238Y-93952380D01*
X90890476Y-93904761D01*
X90938095Y-93857142D01*
X90985714Y-93761904D01*
X90985714Y-93571428D01*
X90938095Y-93476190D01*
X90890476Y-93428571D01*
X90795238Y-93380952D01*
%TO.C,R7*%
X106683333Y-58902380D02*
X106350000Y-58426190D01*
X106111904Y-58902380D02*
X106111904Y-57902380D01*
X106492857Y-57902380D01*
X106588095Y-57950000D01*
X106635714Y-57997619D01*
X106683333Y-58092857D01*
X106683333Y-58235714D01*
X106635714Y-58330952D01*
X106588095Y-58378571D01*
X106492857Y-58426190D01*
X106111904Y-58426190D01*
X107016666Y-57902380D02*
X107683333Y-57902380D01*
X107254761Y-58902380D01*
%TO.C,R6*%
X106783333Y-64852380D02*
X106450000Y-64376190D01*
X106211904Y-64852380D02*
X106211904Y-63852380D01*
X106592857Y-63852380D01*
X106688095Y-63900000D01*
X106735714Y-63947619D01*
X106783333Y-64042857D01*
X106783333Y-64185714D01*
X106735714Y-64280952D01*
X106688095Y-64328571D01*
X106592857Y-64376190D01*
X106211904Y-64376190D01*
X107640476Y-63852380D02*
X107450000Y-63852380D01*
X107354761Y-63900000D01*
X107307142Y-63947619D01*
X107211904Y-64090476D01*
X107164285Y-64280952D01*
X107164285Y-64661904D01*
X107211904Y-64757142D01*
X107259523Y-64804761D01*
X107354761Y-64852380D01*
X107545238Y-64852380D01*
X107640476Y-64804761D01*
X107688095Y-64757142D01*
X107735714Y-64661904D01*
X107735714Y-64423809D01*
X107688095Y-64328571D01*
X107640476Y-64280952D01*
X107545238Y-64233333D01*
X107354761Y-64233333D01*
X107259523Y-64280952D01*
X107211904Y-64328571D01*
X107164285Y-64423809D01*
%TO.C,R5*%
X106633333Y-60402380D02*
X106300000Y-59926190D01*
X106061904Y-60402380D02*
X106061904Y-59402380D01*
X106442857Y-59402380D01*
X106538095Y-59450000D01*
X106585714Y-59497619D01*
X106633333Y-59592857D01*
X106633333Y-59735714D01*
X106585714Y-59830952D01*
X106538095Y-59878571D01*
X106442857Y-59926190D01*
X106061904Y-59926190D01*
X107538095Y-59402380D02*
X107061904Y-59402380D01*
X107014285Y-59878571D01*
X107061904Y-59830952D01*
X107157142Y-59783333D01*
X107395238Y-59783333D01*
X107490476Y-59830952D01*
X107538095Y-59878571D01*
X107585714Y-59973809D01*
X107585714Y-60211904D01*
X107538095Y-60307142D01*
X107490476Y-60354761D01*
X107395238Y-60402380D01*
X107157142Y-60402380D01*
X107061904Y-60354761D01*
X107014285Y-60307142D01*
%TO.C,R4*%
X118502380Y-63316666D02*
X118026190Y-63650000D01*
X118502380Y-63888095D02*
X117502380Y-63888095D01*
X117502380Y-63507142D01*
X117550000Y-63411904D01*
X117597619Y-63364285D01*
X117692857Y-63316666D01*
X117835714Y-63316666D01*
X117930952Y-63364285D01*
X117978571Y-63411904D01*
X118026190Y-63507142D01*
X118026190Y-63888095D01*
X117835714Y-62459523D02*
X118502380Y-62459523D01*
X117454761Y-62697619D02*
X118169047Y-62935714D01*
X118169047Y-62316666D01*
%TO.C,R3*%
X106783333Y-62302380D02*
X106450000Y-61826190D01*
X106211904Y-62302380D02*
X106211904Y-61302380D01*
X106592857Y-61302380D01*
X106688095Y-61350000D01*
X106735714Y-61397619D01*
X106783333Y-61492857D01*
X106783333Y-61635714D01*
X106735714Y-61730952D01*
X106688095Y-61778571D01*
X106592857Y-61826190D01*
X106211904Y-61826190D01*
X107116666Y-61302380D02*
X107735714Y-61302380D01*
X107402380Y-61683333D01*
X107545238Y-61683333D01*
X107640476Y-61730952D01*
X107688095Y-61778571D01*
X107735714Y-61873809D01*
X107735714Y-62111904D01*
X107688095Y-62207142D01*
X107640476Y-62254761D01*
X107545238Y-62302380D01*
X107259523Y-62302380D01*
X107164285Y-62254761D01*
X107116666Y-62207142D01*
%TO.C,R2*%
X93633333Y-45502380D02*
X93300000Y-45026190D01*
X93061904Y-45502380D02*
X93061904Y-44502380D01*
X93442857Y-44502380D01*
X93538095Y-44550000D01*
X93585714Y-44597619D01*
X93633333Y-44692857D01*
X93633333Y-44835714D01*
X93585714Y-44930952D01*
X93538095Y-44978571D01*
X93442857Y-45026190D01*
X93061904Y-45026190D01*
X94014285Y-44597619D02*
X94061904Y-44550000D01*
X94157142Y-44502380D01*
X94395238Y-44502380D01*
X94490476Y-44550000D01*
X94538095Y-44597619D01*
X94585714Y-44692857D01*
X94585714Y-44788095D01*
X94538095Y-44930952D01*
X93966666Y-45502380D01*
X94585714Y-45502380D01*
%TO.C,R1*%
X106083333Y-77302380D02*
X105750000Y-76826190D01*
X105511904Y-77302380D02*
X105511904Y-76302380D01*
X105892857Y-76302380D01*
X105988095Y-76350000D01*
X106035714Y-76397619D01*
X106083333Y-76492857D01*
X106083333Y-76635714D01*
X106035714Y-76730952D01*
X105988095Y-76778571D01*
X105892857Y-76826190D01*
X105511904Y-76826190D01*
X107035714Y-77302380D02*
X106464285Y-77302380D01*
X106750000Y-77302380D02*
X106750000Y-76302380D01*
X106654761Y-76445238D01*
X106559523Y-76540476D01*
X106464285Y-76588095D01*
%TO.C,Q1*%
X113754761Y-60997619D02*
X113659523Y-60950000D01*
X113564285Y-60854761D01*
X113421428Y-60711904D01*
X113326190Y-60664285D01*
X113230952Y-60664285D01*
X113278571Y-60902380D02*
X113183333Y-60854761D01*
X113088095Y-60759523D01*
X113040476Y-60569047D01*
X113040476Y-60235714D01*
X113088095Y-60045238D01*
X113183333Y-59950000D01*
X113278571Y-59902380D01*
X113469047Y-59902380D01*
X113564285Y-59950000D01*
X113659523Y-60045238D01*
X113707142Y-60235714D01*
X113707142Y-60569047D01*
X113659523Y-60759523D01*
X113564285Y-60854761D01*
X113469047Y-60902380D01*
X113278571Y-60902380D01*
X114659523Y-60902380D02*
X114088095Y-60902380D01*
X114373809Y-60902380D02*
X114373809Y-59902380D01*
X114278571Y-60045238D01*
X114183333Y-60140476D01*
X114088095Y-60188095D01*
%TO.C,JP3*%
X121066666Y-67052380D02*
X121066666Y-67766666D01*
X121019047Y-67909523D01*
X120923809Y-68004761D01*
X120780952Y-68052380D01*
X120685714Y-68052380D01*
X121542857Y-68052380D02*
X121542857Y-67052380D01*
X121923809Y-67052380D01*
X122019047Y-67100000D01*
X122066666Y-67147619D01*
X122114285Y-67242857D01*
X122114285Y-67385714D01*
X122066666Y-67480952D01*
X122019047Y-67528571D01*
X121923809Y-67576190D01*
X121542857Y-67576190D01*
X122447619Y-67052380D02*
X123066666Y-67052380D01*
X122733333Y-67433333D01*
X122876190Y-67433333D01*
X122971428Y-67480952D01*
X123019047Y-67528571D01*
X123066666Y-67623809D01*
X123066666Y-67861904D01*
X123019047Y-67957142D01*
X122971428Y-68004761D01*
X122876190Y-68052380D01*
X122590476Y-68052380D01*
X122495238Y-68004761D01*
X122447619Y-67957142D01*
%TO.C,JP2*%
X125466666Y-76052380D02*
X125466666Y-76766666D01*
X125419047Y-76909523D01*
X125323809Y-77004761D01*
X125180952Y-77052380D01*
X125085714Y-77052380D01*
X125942857Y-77052380D02*
X125942857Y-76052380D01*
X126323809Y-76052380D01*
X126419047Y-76100000D01*
X126466666Y-76147619D01*
X126514285Y-76242857D01*
X126514285Y-76385714D01*
X126466666Y-76480952D01*
X126419047Y-76528571D01*
X126323809Y-76576190D01*
X125942857Y-76576190D01*
X126895238Y-76147619D02*
X126942857Y-76100000D01*
X127038095Y-76052380D01*
X127276190Y-76052380D01*
X127371428Y-76100000D01*
X127419047Y-76147619D01*
X127466666Y-76242857D01*
X127466666Y-76338095D01*
X127419047Y-76480952D01*
X126847619Y-77052380D01*
X127466666Y-77052380D01*
%TO.C,JP1*%
X121916666Y-76002380D02*
X121916666Y-76716666D01*
X121869047Y-76859523D01*
X121773809Y-76954761D01*
X121630952Y-77002380D01*
X121535714Y-77002380D01*
X122392857Y-77002380D02*
X122392857Y-76002380D01*
X122773809Y-76002380D01*
X122869047Y-76050000D01*
X122916666Y-76097619D01*
X122964285Y-76192857D01*
X122964285Y-76335714D01*
X122916666Y-76430952D01*
X122869047Y-76478571D01*
X122773809Y-76526190D01*
X122392857Y-76526190D01*
X123916666Y-77002380D02*
X123345238Y-77002380D01*
X123630952Y-77002380D02*
X123630952Y-76002380D01*
X123535714Y-76145238D01*
X123440476Y-76240476D01*
X123345238Y-76288095D01*
%TO.C,J7*%
X121052380Y-96383333D02*
X121766666Y-96383333D01*
X121909523Y-96430952D01*
X122004761Y-96526190D01*
X122052380Y-96669047D01*
X122052380Y-96764285D01*
X121052380Y-96002380D02*
X121052380Y-95335714D01*
X122052380Y-95764285D01*
%TO.C,J6*%
X120632380Y-74633333D02*
X121346666Y-74633333D01*
X121489523Y-74680952D01*
X121584761Y-74776190D01*
X121632380Y-74919047D01*
X121632380Y-75014285D01*
X120632380Y-73728571D02*
X120632380Y-73919047D01*
X120680000Y-74014285D01*
X120727619Y-74061904D01*
X120870476Y-74157142D01*
X121060952Y-74204761D01*
X121441904Y-74204761D01*
X121537142Y-74157142D01*
X121584761Y-74109523D01*
X121632380Y-74014285D01*
X121632380Y-73823809D01*
X121584761Y-73728571D01*
X121537142Y-73680952D01*
X121441904Y-73633333D01*
X121203809Y-73633333D01*
X121108571Y-73680952D01*
X121060952Y-73728571D01*
X121013333Y-73823809D01*
X121013333Y-74014285D01*
X121060952Y-74109523D01*
X121108571Y-74157142D01*
X121203809Y-74204761D01*
%TO.C,J5*%
X125666666Y-66952380D02*
X125666666Y-67666666D01*
X125619047Y-67809523D01*
X125523809Y-67904761D01*
X125380952Y-67952380D01*
X125285714Y-67952380D01*
X126619047Y-66952380D02*
X126142857Y-66952380D01*
X126095238Y-67428571D01*
X126142857Y-67380952D01*
X126238095Y-67333333D01*
X126476190Y-67333333D01*
X126571428Y-67380952D01*
X126619047Y-67428571D01*
X126666666Y-67523809D01*
X126666666Y-67761904D01*
X126619047Y-67857142D01*
X126571428Y-67904761D01*
X126476190Y-67952380D01*
X126238095Y-67952380D01*
X126142857Y-67904761D01*
X126095238Y-67857142D01*
%TO.C,J2*%
X79052380Y-81833333D02*
X79766666Y-81833333D01*
X79909523Y-81880952D01*
X80004761Y-81976190D01*
X80052380Y-82119047D01*
X80052380Y-82214285D01*
X79147619Y-81404761D02*
X79100000Y-81357142D01*
X79052380Y-81261904D01*
X79052380Y-81023809D01*
X79100000Y-80928571D01*
X79147619Y-80880952D01*
X79242857Y-80833333D01*
X79338095Y-80833333D01*
X79480952Y-80880952D01*
X80052380Y-81452380D01*
X80052380Y-80833333D01*
%TO.C,F1*%
X90966666Y-74578571D02*
X90633333Y-74578571D01*
X90633333Y-75102380D02*
X90633333Y-74102380D01*
X91109523Y-74102380D01*
X92014285Y-75102380D02*
X91442857Y-75102380D01*
X91728571Y-75102380D02*
X91728571Y-74102380D01*
X91633333Y-74245238D01*
X91538095Y-74340476D01*
X91442857Y-74388095D01*
%TO.C,D5*%
X89261904Y-96152380D02*
X89261904Y-95152380D01*
X89500000Y-95152380D01*
X89642857Y-95200000D01*
X89738095Y-95295238D01*
X89785714Y-95390476D01*
X89833333Y-95580952D01*
X89833333Y-95723809D01*
X89785714Y-95914285D01*
X89738095Y-96009523D01*
X89642857Y-96104761D01*
X89500000Y-96152380D01*
X89261904Y-96152380D01*
X90738095Y-95152380D02*
X90261904Y-95152380D01*
X90214285Y-95628571D01*
X90261904Y-95580952D01*
X90357142Y-95533333D01*
X90595238Y-95533333D01*
X90690476Y-95580952D01*
X90738095Y-95628571D01*
X90785714Y-95723809D01*
X90785714Y-95961904D01*
X90738095Y-96057142D01*
X90690476Y-96104761D01*
X90595238Y-96152380D01*
X90357142Y-96152380D01*
X90261904Y-96104761D01*
X90214285Y-96057142D01*
%TO.C,D4*%
X95061904Y-45552380D02*
X95061904Y-44552380D01*
X95300000Y-44552380D01*
X95442857Y-44600000D01*
X95538095Y-44695238D01*
X95585714Y-44790476D01*
X95633333Y-44980952D01*
X95633333Y-45123809D01*
X95585714Y-45314285D01*
X95538095Y-45409523D01*
X95442857Y-45504761D01*
X95300000Y-45552380D01*
X95061904Y-45552380D01*
X96490476Y-44885714D02*
X96490476Y-45552380D01*
X96252380Y-44504761D02*
X96014285Y-45219047D01*
X96633333Y-45219047D01*
%TO.C,D3*%
X103611904Y-77702380D02*
X103611904Y-76702380D01*
X103850000Y-76702380D01*
X103992857Y-76750000D01*
X104088095Y-76845238D01*
X104135714Y-76940476D01*
X104183333Y-77130952D01*
X104183333Y-77273809D01*
X104135714Y-77464285D01*
X104088095Y-77559523D01*
X103992857Y-77654761D01*
X103850000Y-77702380D01*
X103611904Y-77702380D01*
X104516666Y-76702380D02*
X105135714Y-76702380D01*
X104802380Y-77083333D01*
X104945238Y-77083333D01*
X105040476Y-77130952D01*
X105088095Y-77178571D01*
X105135714Y-77273809D01*
X105135714Y-77511904D01*
X105088095Y-77607142D01*
X105040476Y-77654761D01*
X104945238Y-77702380D01*
X104659523Y-77702380D01*
X104564285Y-77654761D01*
X104516666Y-77607142D01*
%TO.C,D2*%
X86861904Y-86402380D02*
X86861904Y-85402380D01*
X87100000Y-85402380D01*
X87242857Y-85450000D01*
X87338095Y-85545238D01*
X87385714Y-85640476D01*
X87433333Y-85830952D01*
X87433333Y-85973809D01*
X87385714Y-86164285D01*
X87338095Y-86259523D01*
X87242857Y-86354761D01*
X87100000Y-86402380D01*
X86861904Y-86402380D01*
X87814285Y-85497619D02*
X87861904Y-85450000D01*
X87957142Y-85402380D01*
X88195238Y-85402380D01*
X88290476Y-85450000D01*
X88338095Y-85497619D01*
X88385714Y-85592857D01*
X88385714Y-85688095D01*
X88338095Y-85830952D01*
X87766666Y-86402380D01*
X88385714Y-86402380D01*
%TO.C,D1*%
X92361904Y-76602380D02*
X92361904Y-75602380D01*
X92600000Y-75602380D01*
X92742857Y-75650000D01*
X92838095Y-75745238D01*
X92885714Y-75840476D01*
X92933333Y-76030952D01*
X92933333Y-76173809D01*
X92885714Y-76364285D01*
X92838095Y-76459523D01*
X92742857Y-76554761D01*
X92600000Y-76602380D01*
X92361904Y-76602380D01*
X93885714Y-76602380D02*
X93314285Y-76602380D01*
X93600000Y-76602380D02*
X93600000Y-75602380D01*
X93504761Y-75745238D01*
X93409523Y-75840476D01*
X93314285Y-75888095D01*
%TO.C,C10*%
X80407142Y-96657142D02*
X80359523Y-96704761D01*
X80216666Y-96752380D01*
X80121428Y-96752380D01*
X79978571Y-96704761D01*
X79883333Y-96609523D01*
X79835714Y-96514285D01*
X79788095Y-96323809D01*
X79788095Y-96180952D01*
X79835714Y-95990476D01*
X79883333Y-95895238D01*
X79978571Y-95800000D01*
X80121428Y-95752380D01*
X80216666Y-95752380D01*
X80359523Y-95800000D01*
X80407142Y-95847619D01*
X81359523Y-96752380D02*
X80788095Y-96752380D01*
X81073809Y-96752380D02*
X81073809Y-95752380D01*
X80978571Y-95895238D01*
X80883333Y-95990476D01*
X80788095Y-96038095D01*
X81978571Y-95752380D02*
X82073809Y-95752380D01*
X82169047Y-95800000D01*
X82216666Y-95847619D01*
X82264285Y-95942857D01*
X82311904Y-96133333D01*
X82311904Y-96371428D01*
X82264285Y-96561904D01*
X82216666Y-96657142D01*
X82169047Y-96704761D01*
X82073809Y-96752380D01*
X81978571Y-96752380D01*
X81883333Y-96704761D01*
X81835714Y-96657142D01*
X81788095Y-96561904D01*
X81740476Y-96371428D01*
X81740476Y-96133333D01*
X81788095Y-95942857D01*
X81835714Y-95847619D01*
X81883333Y-95800000D01*
X81978571Y-95752380D01*
%TO.C,C9*%
X83483333Y-93207142D02*
X83435714Y-93254761D01*
X83292857Y-93302380D01*
X83197619Y-93302380D01*
X83054761Y-93254761D01*
X82959523Y-93159523D01*
X82911904Y-93064285D01*
X82864285Y-92873809D01*
X82864285Y-92730952D01*
X82911904Y-92540476D01*
X82959523Y-92445238D01*
X83054761Y-92350000D01*
X83197619Y-92302380D01*
X83292857Y-92302380D01*
X83435714Y-92350000D01*
X83483333Y-92397619D01*
X83959523Y-93302380D02*
X84150000Y-93302380D01*
X84245238Y-93254761D01*
X84292857Y-93207142D01*
X84388095Y-93064285D01*
X84435714Y-92873809D01*
X84435714Y-92492857D01*
X84388095Y-92397619D01*
X84340476Y-92350000D01*
X84245238Y-92302380D01*
X84054761Y-92302380D01*
X83959523Y-92350000D01*
X83911904Y-92397619D01*
X83864285Y-92492857D01*
X83864285Y-92730952D01*
X83911904Y-92826190D01*
X83959523Y-92873809D01*
X84054761Y-92921428D01*
X84245238Y-92921428D01*
X84340476Y-92873809D01*
X84388095Y-92826190D01*
X84435714Y-92730952D01*
%TO.C,C8*%
X95083333Y-94407142D02*
X95035714Y-94454761D01*
X94892857Y-94502380D01*
X94797619Y-94502380D01*
X94654761Y-94454761D01*
X94559523Y-94359523D01*
X94511904Y-94264285D01*
X94464285Y-94073809D01*
X94464285Y-93930952D01*
X94511904Y-93740476D01*
X94559523Y-93645238D01*
X94654761Y-93550000D01*
X94797619Y-93502380D01*
X94892857Y-93502380D01*
X95035714Y-93550000D01*
X95083333Y-93597619D01*
X95654761Y-93930952D02*
X95559523Y-93883333D01*
X95511904Y-93835714D01*
X95464285Y-93740476D01*
X95464285Y-93692857D01*
X95511904Y-93597619D01*
X95559523Y-93550000D01*
X95654761Y-93502380D01*
X95845238Y-93502380D01*
X95940476Y-93550000D01*
X95988095Y-93597619D01*
X96035714Y-93692857D01*
X96035714Y-93740476D01*
X95988095Y-93835714D01*
X95940476Y-93883333D01*
X95845238Y-93930952D01*
X95654761Y-93930952D01*
X95559523Y-93978571D01*
X95511904Y-94026190D01*
X95464285Y-94121428D01*
X95464285Y-94311904D01*
X95511904Y-94407142D01*
X95559523Y-94454761D01*
X95654761Y-94502380D01*
X95845238Y-94502380D01*
X95940476Y-94454761D01*
X95988095Y-94407142D01*
X96035714Y-94311904D01*
X96035714Y-94121428D01*
X95988095Y-94026190D01*
X95940476Y-93978571D01*
X95845238Y-93930952D01*
%TO.C,C7*%
X97533333Y-45457142D02*
X97485714Y-45504761D01*
X97342857Y-45552380D01*
X97247619Y-45552380D01*
X97104761Y-45504761D01*
X97009523Y-45409523D01*
X96961904Y-45314285D01*
X96914285Y-45123809D01*
X96914285Y-44980952D01*
X96961904Y-44790476D01*
X97009523Y-44695238D01*
X97104761Y-44600000D01*
X97247619Y-44552380D01*
X97342857Y-44552380D01*
X97485714Y-44600000D01*
X97533333Y-44647619D01*
X97866666Y-44552380D02*
X98533333Y-44552380D01*
X98104761Y-45552380D01*
%TO.C,C6*%
X101183333Y-45407142D02*
X101135714Y-45454761D01*
X100992857Y-45502380D01*
X100897619Y-45502380D01*
X100754761Y-45454761D01*
X100659523Y-45359523D01*
X100611904Y-45264285D01*
X100564285Y-45073809D01*
X100564285Y-44930952D01*
X100611904Y-44740476D01*
X100659523Y-44645238D01*
X100754761Y-44550000D01*
X100897619Y-44502380D01*
X100992857Y-44502380D01*
X101135714Y-44550000D01*
X101183333Y-44597619D01*
X102040476Y-44502380D02*
X101850000Y-44502380D01*
X101754761Y-44550000D01*
X101707142Y-44597619D01*
X101611904Y-44740476D01*
X101564285Y-44930952D01*
X101564285Y-45311904D01*
X101611904Y-45407142D01*
X101659523Y-45454761D01*
X101754761Y-45502380D01*
X101945238Y-45502380D01*
X102040476Y-45454761D01*
X102088095Y-45407142D01*
X102135714Y-45311904D01*
X102135714Y-45073809D01*
X102088095Y-44978571D01*
X102040476Y-44930952D01*
X101945238Y-44883333D01*
X101754761Y-44883333D01*
X101659523Y-44930952D01*
X101611904Y-44978571D01*
X101564285Y-45073809D01*
%TO.C,C5*%
X99333333Y-45407142D02*
X99285714Y-45454761D01*
X99142857Y-45502380D01*
X99047619Y-45502380D01*
X98904761Y-45454761D01*
X98809523Y-45359523D01*
X98761904Y-45264285D01*
X98714285Y-45073809D01*
X98714285Y-44930952D01*
X98761904Y-44740476D01*
X98809523Y-44645238D01*
X98904761Y-44550000D01*
X99047619Y-44502380D01*
X99142857Y-44502380D01*
X99285714Y-44550000D01*
X99333333Y-44597619D01*
X100238095Y-44502380D02*
X99761904Y-44502380D01*
X99714285Y-44978571D01*
X99761904Y-44930952D01*
X99857142Y-44883333D01*
X100095238Y-44883333D01*
X100190476Y-44930952D01*
X100238095Y-44978571D01*
X100285714Y-45073809D01*
X100285714Y-45311904D01*
X100238095Y-45407142D01*
X100190476Y-45454761D01*
X100095238Y-45502380D01*
X99857142Y-45502380D01*
X99761904Y-45454761D01*
X99714285Y-45407142D01*
%TO.C,C4*%
X102983333Y-94407142D02*
X102935714Y-94454761D01*
X102792857Y-94502380D01*
X102697619Y-94502380D01*
X102554761Y-94454761D01*
X102459523Y-94359523D01*
X102411904Y-94264285D01*
X102364285Y-94073809D01*
X102364285Y-93930952D01*
X102411904Y-93740476D01*
X102459523Y-93645238D01*
X102554761Y-93550000D01*
X102697619Y-93502380D01*
X102792857Y-93502380D01*
X102935714Y-93550000D01*
X102983333Y-93597619D01*
X103840476Y-93835714D02*
X103840476Y-94502380D01*
X103602380Y-93454761D02*
X103364285Y-94169047D01*
X103983333Y-94169047D01*
%TO.C,C3*%
X104357142Y-81016666D02*
X104404761Y-81064285D01*
X104452380Y-81207142D01*
X104452380Y-81302380D01*
X104404761Y-81445238D01*
X104309523Y-81540476D01*
X104214285Y-81588095D01*
X104023809Y-81635714D01*
X103880952Y-81635714D01*
X103690476Y-81588095D01*
X103595238Y-81540476D01*
X103500000Y-81445238D01*
X103452380Y-81302380D01*
X103452380Y-81207142D01*
X103500000Y-81064285D01*
X103547619Y-81016666D01*
X103452380Y-80683333D02*
X103452380Y-80064285D01*
X103833333Y-80397619D01*
X103833333Y-80254761D01*
X103880952Y-80159523D01*
X103928571Y-80111904D01*
X104023809Y-80064285D01*
X104261904Y-80064285D01*
X104357142Y-80111904D01*
X104404761Y-80159523D01*
X104452380Y-80254761D01*
X104452380Y-80540476D01*
X104404761Y-80635714D01*
X104357142Y-80683333D01*
%TO.C,C2*%
X99033333Y-81907142D02*
X98985714Y-81954761D01*
X98842857Y-82002380D01*
X98747619Y-82002380D01*
X98604761Y-81954761D01*
X98509523Y-81859523D01*
X98461904Y-81764285D01*
X98414285Y-81573809D01*
X98414285Y-81430952D01*
X98461904Y-81240476D01*
X98509523Y-81145238D01*
X98604761Y-81050000D01*
X98747619Y-81002380D01*
X98842857Y-81002380D01*
X98985714Y-81050000D01*
X99033333Y-81097619D01*
X99414285Y-81097619D02*
X99461904Y-81050000D01*
X99557142Y-81002380D01*
X99795238Y-81002380D01*
X99890476Y-81050000D01*
X99938095Y-81097619D01*
X99985714Y-81192857D01*
X99985714Y-81288095D01*
X99938095Y-81430952D01*
X99366666Y-82002380D01*
X99985714Y-82002380D01*
%TO.C,C1*%
X79907142Y-88216666D02*
X79954761Y-88264285D01*
X80002380Y-88407142D01*
X80002380Y-88502380D01*
X79954761Y-88645238D01*
X79859523Y-88740476D01*
X79764285Y-88788095D01*
X79573809Y-88835714D01*
X79430952Y-88835714D01*
X79240476Y-88788095D01*
X79145238Y-88740476D01*
X79050000Y-88645238D01*
X79002380Y-88502380D01*
X79002380Y-88407142D01*
X79050000Y-88264285D01*
X79097619Y-88216666D01*
X80002380Y-87264285D02*
X80002380Y-87835714D01*
X80002380Y-87550000D02*
X79002380Y-87550000D01*
X79145238Y-87645238D01*
X79240476Y-87740476D01*
X79288095Y-87835714D01*
%TD*%
M02*
