M48
; DRILL file {KiCad (5.1.10)-1} date 06/06/21 01:15:34
; FORMAT={-:-/ absolute / metric / decimal}
; #@! TF.CreationDate,2021-06-06T01:15:34+08:00
; #@! TF.GenerationSoftware,Kicad,Pcbnew,(5.1.10)-1
; #@! TF.FileFunction,Plated,1,2,PTH
FMAT,2
METRIC
T1C0.400
T2C0.500
T3C0.700
T4C0.800
T5C1.000
T6C2.000
T7C3.000
%
G90
G05
T1
X80.3Y-50.0
X81.4Y-96.0
X81.75Y-75.85
X82.0Y-56.3
X84.95Y-45.45
X86.8Y-88.2
X86.92Y-91.66
X87.15Y-68.7
X88.0Y-85.75
X88.85Y-71.95
X89.9Y-97.8
X90.85Y-95.7
X91.1Y-85.5
X91.65Y-87.1
X95.15Y-45.4
X99.25Y-64.45
X100.1Y-89.75
X100.537Y-79.7
X102.75Y-77.3
X105.65Y-61.95
X106.25Y-55.85
X106.45Y-81.55
X111.15Y-77.4
X112.55Y-77.4
X114.1Y-90.25
X115.4Y-79.75
X118.15Y-82.5
X119.7Y-97.8
X119.78Y-57.13
X121.83Y-53.57
X121.85Y-45.8
X123.5Y-57.45
X123.65Y-64.5
X125.48Y-53.52
X126.4Y-49.9
T3
X83.63Y-74.325
X83.63Y-79.175
T4
X82.2Y-83.65
X82.2Y-86.15
T5
X82.19Y-48.0
X82.19Y-51.8
X82.19Y-66.8
X82.3Y-70.6
X84.25Y-94.9
X84.25Y-97.44
X84.73Y-48.0
X84.73Y-51.8
X84.73Y-66.8
X84.84Y-70.6
X86.79Y-94.9
X86.79Y-97.44
X87.27Y-48.0
X87.27Y-51.8
X87.27Y-66.8
X87.38Y-70.6
X89.81Y-48.0
X89.81Y-51.8
X89.81Y-66.8
X89.92Y-70.6
X92.35Y-48.0
X92.35Y-51.8
X92.35Y-66.8
X92.46Y-70.6
X93.45Y-74.3
X93.76Y-96.05
X94.89Y-48.0
X94.89Y-51.8
X94.89Y-66.8
X95.0Y-70.6
X95.99Y-74.3
X96.3Y-96.05
X97.43Y-48.0
X97.43Y-51.8
X97.43Y-66.8
X97.54Y-70.6
X98.53Y-74.3
X98.84Y-96.05
X99.97Y-48.0
X99.97Y-51.8
X99.97Y-66.8
X100.08Y-70.6
X101.07Y-74.3
X101.38Y-96.05
X102.51Y-48.0
X102.51Y-51.8
X102.51Y-66.8
X102.62Y-70.6
X103.61Y-74.3
X103.92Y-96.05
X105.05Y-48.0
X105.05Y-51.8
X105.05Y-66.8
X105.16Y-70.6
X106.15Y-74.3
X106.46Y-96.05
X107.59Y-48.0
X107.59Y-51.8
X107.59Y-66.8
X107.7Y-70.6
X108.69Y-74.3
X109.0Y-96.05
X110.13Y-48.0
X110.13Y-51.8
X110.13Y-66.8
X110.24Y-70.6
X111.23Y-74.3
X111.54Y-96.05
X112.67Y-48.0
X112.67Y-51.8
X112.67Y-66.8
X112.78Y-70.6
X113.77Y-74.3
X114.08Y-96.05
X115.21Y-48.0
X115.21Y-51.8
X115.21Y-66.8
X115.32Y-70.6
X116.31Y-74.3
X116.62Y-96.05
X117.75Y-48.0
X117.75Y-51.8
X117.75Y-66.8
X117.86Y-70.6
X118.85Y-74.3
X119.16Y-96.05
X121.75Y-60.55
X121.75Y-63.09
X121.75Y-65.63
X122.8Y-69.45
X122.8Y-71.99
X122.8Y-74.53
X126.0Y-60.55
X126.0Y-63.09
X126.0Y-65.63
X126.4Y-69.47
X126.4Y-72.01
X126.4Y-74.55
T6
X124.65Y-96.65
T7
X82.5Y-90.2
T2
G00X80.65Y-73.125
M15
G01X81.25Y-73.125
M16
G05
G00X80.65Y-80.375
M15
G01X81.25Y-80.375
M16
G05
T0
M30
