%TF.GenerationSoftware,KiCad,Pcbnew,(5.1.10)-1*%
%TF.CreationDate,2021-06-06T01:15:34+08:00*%
%TF.ProjectId,tuya_arduino,74757961-5f61-4726-9475-696e6f2e6b69,rev?*%
%TF.SameCoordinates,Original*%
%TF.FileFunction,Paste,Top*%
%TF.FilePolarity,Positive*%
%FSLAX46Y46*%
G04 Gerber Fmt 4.6, Leading zero omitted, Abs format (unit mm)*
G04 Created by KiCad (PCBNEW (5.1.10)-1) date 2021-06-06 01:15:34*
%MOMM*%
%LPD*%
G01*
G04 APERTURE LIST*
%ADD10R,1.500000X2.000000*%
%ADD11R,3.800000X2.000000*%
%ADD12R,1.700000X1.700000*%
%ADD13R,0.900000X0.800000*%
%ADD14R,1.600000X0.400000*%
%ADD15R,3.500000X2.300000*%
%ADD16R,3.500000X1.800000*%
G04 APERTURE END LIST*
%TO.C,U2*%
G36*
G01*
X119050000Y-93250000D02*
X119050000Y-92550000D01*
G75*
G02*
X119300000Y-92300000I250000J0D01*
G01*
X119800000Y-92300000D01*
G75*
G02*
X120050000Y-92550000I0J-250000D01*
G01*
X120050000Y-93250000D01*
G75*
G02*
X119800000Y-93500000I-250000J0D01*
G01*
X119300000Y-93500000D01*
G75*
G02*
X119050000Y-93250000I0J250000D01*
G01*
G37*
G36*
G01*
X117650000Y-93250000D02*
X117650000Y-92550000D01*
G75*
G02*
X117900000Y-92300000I250000J0D01*
G01*
X118400000Y-92300000D01*
G75*
G02*
X118650000Y-92550000I0J-250000D01*
G01*
X118650000Y-93250000D01*
G75*
G02*
X118400000Y-93500000I-250000J0D01*
G01*
X117900000Y-93500000D01*
G75*
G02*
X117650000Y-93250000I0J250000D01*
G01*
G37*
G36*
G01*
X110650000Y-93250000D02*
X110650000Y-92550000D01*
G75*
G02*
X110900000Y-92300000I250000J0D01*
G01*
X111400000Y-92300000D01*
G75*
G02*
X111650000Y-92550000I0J-250000D01*
G01*
X111650000Y-93250000D01*
G75*
G02*
X111400000Y-93500000I-250000J0D01*
G01*
X110900000Y-93500000D01*
G75*
G02*
X110650000Y-93250000I0J250000D01*
G01*
G37*
G36*
G01*
X114850000Y-93250000D02*
X114850000Y-92550000D01*
G75*
G02*
X115100000Y-92300000I250000J0D01*
G01*
X115600000Y-92300000D01*
G75*
G02*
X115850000Y-92550000I0J-250000D01*
G01*
X115850000Y-93250000D01*
G75*
G02*
X115600000Y-93500000I-250000J0D01*
G01*
X115100000Y-93500000D01*
G75*
G02*
X114850000Y-93250000I0J250000D01*
G01*
G37*
G36*
G01*
X116250000Y-93250000D02*
X116250000Y-92550000D01*
G75*
G02*
X116500000Y-92300000I250000J0D01*
G01*
X117000000Y-92300000D01*
G75*
G02*
X117250000Y-92550000I0J-250000D01*
G01*
X117250000Y-93250000D01*
G75*
G02*
X117000000Y-93500000I-250000J0D01*
G01*
X116500000Y-93500000D01*
G75*
G02*
X116250000Y-93250000I0J250000D01*
G01*
G37*
G36*
G01*
X112050000Y-93250000D02*
X112050000Y-92550000D01*
G75*
G02*
X112300000Y-92300000I250000J0D01*
G01*
X112800000Y-92300000D01*
G75*
G02*
X113050000Y-92550000I0J-250000D01*
G01*
X113050000Y-93250000D01*
G75*
G02*
X112800000Y-93500000I-250000J0D01*
G01*
X112300000Y-93500000D01*
G75*
G02*
X112050000Y-93250000I0J250000D01*
G01*
G37*
G36*
G01*
X113450000Y-93250000D02*
X113450000Y-92550000D01*
G75*
G02*
X113700000Y-92300000I250000J0D01*
G01*
X114200000Y-92300000D01*
G75*
G02*
X114450000Y-92550000I0J-250000D01*
G01*
X114450000Y-93250000D01*
G75*
G02*
X114200000Y-93500000I-250000J0D01*
G01*
X113700000Y-93500000D01*
G75*
G02*
X113450000Y-93250000I0J250000D01*
G01*
G37*
G36*
G01*
X104850000Y-90800000D02*
X104850000Y-90300000D01*
G75*
G02*
X105100000Y-90050000I250000J0D01*
G01*
X107800000Y-90050000D01*
G75*
G02*
X108050000Y-90300000I0J-250000D01*
G01*
X108050000Y-90800000D01*
G75*
G02*
X107800000Y-91050000I-250000J0D01*
G01*
X105100000Y-91050000D01*
G75*
G02*
X104850000Y-90800000I0J250000D01*
G01*
G37*
G36*
G01*
X104850000Y-89000000D02*
X104850000Y-88500000D01*
G75*
G02*
X105100000Y-88250000I250000J0D01*
G01*
X107800000Y-88250000D01*
G75*
G02*
X108050000Y-88500000I0J-250000D01*
G01*
X108050000Y-89000000D01*
G75*
G02*
X107800000Y-89250000I-250000J0D01*
G01*
X105100000Y-89250000D01*
G75*
G02*
X104850000Y-89000000I0J250000D01*
G01*
G37*
G36*
G01*
X104850000Y-87200000D02*
X104850000Y-86700000D01*
G75*
G02*
X105100000Y-86450000I250000J0D01*
G01*
X107800000Y-86450000D01*
G75*
G02*
X108050000Y-86700000I0J-250000D01*
G01*
X108050000Y-87200000D01*
G75*
G02*
X107800000Y-87450000I-250000J0D01*
G01*
X105100000Y-87450000D01*
G75*
G02*
X104850000Y-87200000I0J250000D01*
G01*
G37*
G36*
G01*
X104850000Y-85400000D02*
X104850000Y-84900000D01*
G75*
G02*
X105100000Y-84650000I250000J0D01*
G01*
X107800000Y-84650000D01*
G75*
G02*
X108050000Y-84900000I0J-250000D01*
G01*
X108050000Y-85400000D01*
G75*
G02*
X107800000Y-85650000I-250000J0D01*
G01*
X105100000Y-85650000D01*
G75*
G02*
X104850000Y-85400000I0J250000D01*
G01*
G37*
G36*
G01*
X104850000Y-83600000D02*
X104850000Y-83100000D01*
G75*
G02*
X105100000Y-82850000I250000J0D01*
G01*
X107800000Y-82850000D01*
G75*
G02*
X108050000Y-83100000I0J-250000D01*
G01*
X108050000Y-83600000D01*
G75*
G02*
X107800000Y-83850000I-250000J0D01*
G01*
X105100000Y-83850000D01*
G75*
G02*
X104850000Y-83600000I0J250000D01*
G01*
G37*
G36*
G01*
X104850000Y-81800000D02*
X104850000Y-81300000D01*
G75*
G02*
X105100000Y-81050000I250000J0D01*
G01*
X107800000Y-81050000D01*
G75*
G02*
X108050000Y-81300000I0J-250000D01*
G01*
X108050000Y-81800000D01*
G75*
G02*
X107800000Y-82050000I-250000J0D01*
G01*
X105100000Y-82050000D01*
G75*
G02*
X104850000Y-81800000I0J250000D01*
G01*
G37*
G36*
G01*
X104850000Y-80000000D02*
X104850000Y-79500000D01*
G75*
G02*
X105100000Y-79250000I250000J0D01*
G01*
X107800000Y-79250000D01*
G75*
G02*
X108050000Y-79500000I0J-250000D01*
G01*
X108050000Y-80000000D01*
G75*
G02*
X107800000Y-80250000I-250000J0D01*
G01*
X105100000Y-80250000D01*
G75*
G02*
X104850000Y-80000000I0J250000D01*
G01*
G37*
G36*
G01*
X110650000Y-77750000D02*
X110650000Y-77050000D01*
G75*
G02*
X110900000Y-76800000I250000J0D01*
G01*
X111400000Y-76800000D01*
G75*
G02*
X111650000Y-77050000I0J-250000D01*
G01*
X111650000Y-77750000D01*
G75*
G02*
X111400000Y-78000000I-250000J0D01*
G01*
X110900000Y-78000000D01*
G75*
G02*
X110650000Y-77750000I0J250000D01*
G01*
G37*
G36*
G01*
X112050000Y-77750000D02*
X112050000Y-77050000D01*
G75*
G02*
X112300000Y-76800000I250000J0D01*
G01*
X112800000Y-76800000D01*
G75*
G02*
X113050000Y-77050000I0J-250000D01*
G01*
X113050000Y-77750000D01*
G75*
G02*
X112800000Y-78000000I-250000J0D01*
G01*
X112300000Y-78000000D01*
G75*
G02*
X112050000Y-77750000I0J250000D01*
G01*
G37*
G36*
G01*
X113450000Y-77750000D02*
X113450000Y-77050000D01*
G75*
G02*
X113700000Y-76800000I250000J0D01*
G01*
X114200000Y-76800000D01*
G75*
G02*
X114450000Y-77050000I0J-250000D01*
G01*
X114450000Y-77750000D01*
G75*
G02*
X114200000Y-78000000I-250000J0D01*
G01*
X113700000Y-78000000D01*
G75*
G02*
X113450000Y-77750000I0J250000D01*
G01*
G37*
G36*
G01*
X114850000Y-77750000D02*
X114850000Y-77050000D01*
G75*
G02*
X115100000Y-76800000I250000J0D01*
G01*
X115600000Y-76800000D01*
G75*
G02*
X115850000Y-77050000I0J-250000D01*
G01*
X115850000Y-77750000D01*
G75*
G02*
X115600000Y-78000000I-250000J0D01*
G01*
X115100000Y-78000000D01*
G75*
G02*
X114850000Y-77750000I0J250000D01*
G01*
G37*
G36*
G01*
X116250000Y-77750000D02*
X116250000Y-77050000D01*
G75*
G02*
X116500000Y-76800000I250000J0D01*
G01*
X117000000Y-76800000D01*
G75*
G02*
X117250000Y-77050000I0J-250000D01*
G01*
X117250000Y-77750000D01*
G75*
G02*
X117000000Y-78000000I-250000J0D01*
G01*
X116500000Y-78000000D01*
G75*
G02*
X116250000Y-77750000I0J250000D01*
G01*
G37*
G36*
G01*
X117650000Y-77750000D02*
X117650000Y-77050000D01*
G75*
G02*
X117900000Y-76800000I250000J0D01*
G01*
X118400000Y-76800000D01*
G75*
G02*
X118650000Y-77050000I0J-250000D01*
G01*
X118650000Y-77750000D01*
G75*
G02*
X118400000Y-78000000I-250000J0D01*
G01*
X117900000Y-78000000D01*
G75*
G02*
X117650000Y-77750000I0J250000D01*
G01*
G37*
G36*
G01*
X119050000Y-77750000D02*
X119050000Y-77050000D01*
G75*
G02*
X119300000Y-76800000I250000J0D01*
G01*
X119800000Y-76800000D01*
G75*
G02*
X120050000Y-77050000I0J-250000D01*
G01*
X120050000Y-77750000D01*
G75*
G02*
X119800000Y-78000000I-250000J0D01*
G01*
X119300000Y-78000000D01*
G75*
G02*
X119050000Y-77750000I0J250000D01*
G01*
G37*
%TD*%
D10*
%TO.C,U1*%
X102400000Y-83550000D03*
X97800000Y-83550000D03*
X100100000Y-83550000D03*
D11*
X100100000Y-89850000D03*
%TD*%
D12*
%TO.C,SW5*%
X94580000Y-88230000D03*
X86880000Y-88230000D03*
%TD*%
%TO.C,SW4*%
X94280000Y-91680000D03*
X86580000Y-91680000D03*
%TD*%
%TO.C,SW3*%
X125480000Y-45820000D03*
X125480000Y-53520000D03*
%TD*%
%TO.C,SW2*%
X127480000Y-57130000D03*
X119780000Y-57130000D03*
%TD*%
%TO.C,SW1*%
X121830000Y-45870000D03*
X121830000Y-53570000D03*
%TD*%
%TO.C,R8*%
G36*
G01*
X90375000Y-94787500D02*
X90375000Y-94312500D01*
G75*
G02*
X90612500Y-94075000I237500J0D01*
G01*
X91112500Y-94075000D01*
G75*
G02*
X91350000Y-94312500I0J-237500D01*
G01*
X91350000Y-94787500D01*
G75*
G02*
X91112500Y-95025000I-237500J0D01*
G01*
X90612500Y-95025000D01*
G75*
G02*
X90375000Y-94787500I0J237500D01*
G01*
G37*
G36*
G01*
X88550000Y-94787500D02*
X88550000Y-94312500D01*
G75*
G02*
X88787500Y-94075000I237500J0D01*
G01*
X89287500Y-94075000D01*
G75*
G02*
X89525000Y-94312500I0J-237500D01*
G01*
X89525000Y-94787500D01*
G75*
G02*
X89287500Y-95025000I-237500J0D01*
G01*
X88787500Y-95025000D01*
G75*
G02*
X88550000Y-94787500I0J237500D01*
G01*
G37*
%TD*%
%TO.C,R7*%
G36*
G01*
X110325000Y-58637500D02*
X110325000Y-58162500D01*
G75*
G02*
X110562500Y-57925000I237500J0D01*
G01*
X111062500Y-57925000D01*
G75*
G02*
X111300000Y-58162500I0J-237500D01*
G01*
X111300000Y-58637500D01*
G75*
G02*
X111062500Y-58875000I-237500J0D01*
G01*
X110562500Y-58875000D01*
G75*
G02*
X110325000Y-58637500I0J237500D01*
G01*
G37*
G36*
G01*
X108500000Y-58637500D02*
X108500000Y-58162500D01*
G75*
G02*
X108737500Y-57925000I237500J0D01*
G01*
X109237500Y-57925000D01*
G75*
G02*
X109475000Y-58162500I0J-237500D01*
G01*
X109475000Y-58637500D01*
G75*
G02*
X109237500Y-58875000I-237500J0D01*
G01*
X108737500Y-58875000D01*
G75*
G02*
X108500000Y-58637500I0J237500D01*
G01*
G37*
%TD*%
%TO.C,R6*%
G36*
G01*
X110275000Y-64437500D02*
X110275000Y-63962500D01*
G75*
G02*
X110512500Y-63725000I237500J0D01*
G01*
X111012500Y-63725000D01*
G75*
G02*
X111250000Y-63962500I0J-237500D01*
G01*
X111250000Y-64437500D01*
G75*
G02*
X111012500Y-64675000I-237500J0D01*
G01*
X110512500Y-64675000D01*
G75*
G02*
X110275000Y-64437500I0J237500D01*
G01*
G37*
G36*
G01*
X108450000Y-64437500D02*
X108450000Y-63962500D01*
G75*
G02*
X108687500Y-63725000I237500J0D01*
G01*
X109187500Y-63725000D01*
G75*
G02*
X109425000Y-63962500I0J-237500D01*
G01*
X109425000Y-64437500D01*
G75*
G02*
X109187500Y-64675000I-237500J0D01*
G01*
X108687500Y-64675000D01*
G75*
G02*
X108450000Y-64437500I0J237500D01*
G01*
G37*
%TD*%
%TO.C,R5*%
G36*
G01*
X108487500Y-60337500D02*
X108487500Y-59862500D01*
G75*
G02*
X108725000Y-59625000I237500J0D01*
G01*
X109225000Y-59625000D01*
G75*
G02*
X109462500Y-59862500I0J-237500D01*
G01*
X109462500Y-60337500D01*
G75*
G02*
X109225000Y-60575000I-237500J0D01*
G01*
X108725000Y-60575000D01*
G75*
G02*
X108487500Y-60337500I0J237500D01*
G01*
G37*
G36*
G01*
X110312500Y-60337500D02*
X110312500Y-59862500D01*
G75*
G02*
X110550000Y-59625000I237500J0D01*
G01*
X111050000Y-59625000D01*
G75*
G02*
X111287500Y-59862500I0J-237500D01*
G01*
X111287500Y-60337500D01*
G75*
G02*
X111050000Y-60575000I-237500J0D01*
G01*
X110550000Y-60575000D01*
G75*
G02*
X110312500Y-60337500I0J237500D01*
G01*
G37*
%TD*%
%TO.C,R4*%
G36*
G01*
X116787500Y-62262500D02*
X116312500Y-62262500D01*
G75*
G02*
X116075000Y-62025000I0J237500D01*
G01*
X116075000Y-61525000D01*
G75*
G02*
X116312500Y-61287500I237500J0D01*
G01*
X116787500Y-61287500D01*
G75*
G02*
X117025000Y-61525000I0J-237500D01*
G01*
X117025000Y-62025000D01*
G75*
G02*
X116787500Y-62262500I-237500J0D01*
G01*
G37*
G36*
G01*
X116787500Y-64087500D02*
X116312500Y-64087500D01*
G75*
G02*
X116075000Y-63850000I0J237500D01*
G01*
X116075000Y-63350000D01*
G75*
G02*
X116312500Y-63112500I237500J0D01*
G01*
X116787500Y-63112500D01*
G75*
G02*
X117025000Y-63350000I0J-237500D01*
G01*
X117025000Y-63850000D01*
G75*
G02*
X116787500Y-64087500I-237500J0D01*
G01*
G37*
%TD*%
%TO.C,R3*%
G36*
G01*
X110275000Y-62237500D02*
X110275000Y-61762500D01*
G75*
G02*
X110512500Y-61525000I237500J0D01*
G01*
X111012500Y-61525000D01*
G75*
G02*
X111250000Y-61762500I0J-237500D01*
G01*
X111250000Y-62237500D01*
G75*
G02*
X111012500Y-62475000I-237500J0D01*
G01*
X110512500Y-62475000D01*
G75*
G02*
X110275000Y-62237500I0J237500D01*
G01*
G37*
G36*
G01*
X108450000Y-62237500D02*
X108450000Y-61762500D01*
G75*
G02*
X108687500Y-61525000I237500J0D01*
G01*
X109187500Y-61525000D01*
G75*
G02*
X109425000Y-61762500I0J-237500D01*
G01*
X109425000Y-62237500D01*
G75*
G02*
X109187500Y-62475000I-237500J0D01*
G01*
X108687500Y-62475000D01*
G75*
G02*
X108450000Y-62237500I0J237500D01*
G01*
G37*
%TD*%
%TO.C,R2*%
G36*
G01*
X103825000Y-44712500D02*
X103825000Y-45187500D01*
G75*
G02*
X103587500Y-45425000I-237500J0D01*
G01*
X103087500Y-45425000D01*
G75*
G02*
X102850000Y-45187500I0J237500D01*
G01*
X102850000Y-44712500D01*
G75*
G02*
X103087500Y-44475000I237500J0D01*
G01*
X103587500Y-44475000D01*
G75*
G02*
X103825000Y-44712500I0J-237500D01*
G01*
G37*
G36*
G01*
X105650000Y-44712500D02*
X105650000Y-45187500D01*
G75*
G02*
X105412500Y-45425000I-237500J0D01*
G01*
X104912500Y-45425000D01*
G75*
G02*
X104675000Y-45187500I0J237500D01*
G01*
X104675000Y-44712500D01*
G75*
G02*
X104912500Y-44475000I237500J0D01*
G01*
X105412500Y-44475000D01*
G75*
G02*
X105650000Y-44712500I0J-237500D01*
G01*
G37*
%TD*%
%TO.C,R1*%
G36*
G01*
X102275000Y-77587500D02*
X102275000Y-77112500D01*
G75*
G02*
X102512500Y-76875000I237500J0D01*
G01*
X103012500Y-76875000D01*
G75*
G02*
X103250000Y-77112500I0J-237500D01*
G01*
X103250000Y-77587500D01*
G75*
G02*
X103012500Y-77825000I-237500J0D01*
G01*
X102512500Y-77825000D01*
G75*
G02*
X102275000Y-77587500I0J237500D01*
G01*
G37*
G36*
G01*
X100450000Y-77587500D02*
X100450000Y-77112500D01*
G75*
G02*
X100687500Y-76875000I237500J0D01*
G01*
X101187500Y-76875000D01*
G75*
G02*
X101425000Y-77112500I0J-237500D01*
G01*
X101425000Y-77587500D01*
G75*
G02*
X101187500Y-77825000I-237500J0D01*
G01*
X100687500Y-77825000D01*
G75*
G02*
X100450000Y-77587500I0J237500D01*
G01*
G37*
%TD*%
D13*
%TO.C,Q1*%
X114700000Y-63000000D03*
X112700000Y-63950000D03*
X112700000Y-62050000D03*
%TD*%
D14*
%TO.C,J2*%
X84150000Y-78050000D03*
X84150000Y-77400000D03*
X84150000Y-75450000D03*
X84150000Y-76100000D03*
X84150000Y-76750000D03*
%TD*%
%TO.C,F1*%
G36*
G01*
X88050000Y-74149999D02*
X88050000Y-75050001D01*
G75*
G02*
X87800001Y-75300000I-249999J0D01*
G01*
X87149999Y-75300000D01*
G75*
G02*
X86900000Y-75050001I0J249999D01*
G01*
X86900000Y-74149999D01*
G75*
G02*
X87149999Y-73900000I249999J0D01*
G01*
X87800001Y-73900000D01*
G75*
G02*
X88050000Y-74149999I0J-249999D01*
G01*
G37*
G36*
G01*
X90100000Y-74149999D02*
X90100000Y-75050001D01*
G75*
G02*
X89850001Y-75300000I-249999J0D01*
G01*
X89199999Y-75300000D01*
G75*
G02*
X88950000Y-75050001I0J249999D01*
G01*
X88950000Y-74149999D01*
G75*
G02*
X89199999Y-73900000I249999J0D01*
G01*
X89850001Y-73900000D01*
G75*
G02*
X90100000Y-74149999I0J-249999D01*
G01*
G37*
%TD*%
%TO.C,D5*%
G36*
G01*
X90345000Y-97137500D02*
X90345000Y-96662500D01*
G75*
G02*
X90582500Y-96425000I237500J0D01*
G01*
X91157500Y-96425000D01*
G75*
G02*
X91395000Y-96662500I0J-237500D01*
G01*
X91395000Y-97137500D01*
G75*
G02*
X91157500Y-97375000I-237500J0D01*
G01*
X90582500Y-97375000D01*
G75*
G02*
X90345000Y-97137500I0J237500D01*
G01*
G37*
G36*
G01*
X88595000Y-97137500D02*
X88595000Y-96662500D01*
G75*
G02*
X88832500Y-96425000I237500J0D01*
G01*
X89407500Y-96425000D01*
G75*
G02*
X89645000Y-96662500I0J-237500D01*
G01*
X89645000Y-97137500D01*
G75*
G02*
X89407500Y-97375000I-237500J0D01*
G01*
X88832500Y-97375000D01*
G75*
G02*
X88595000Y-97137500I0J237500D01*
G01*
G37*
%TD*%
%TO.C,D4*%
G36*
G01*
X108100000Y-45187500D02*
X108100000Y-44712500D01*
G75*
G02*
X108337500Y-44475000I237500J0D01*
G01*
X108912500Y-44475000D01*
G75*
G02*
X109150000Y-44712500I0J-237500D01*
G01*
X109150000Y-45187500D01*
G75*
G02*
X108912500Y-45425000I-237500J0D01*
G01*
X108337500Y-45425000D01*
G75*
G02*
X108100000Y-45187500I0J237500D01*
G01*
G37*
G36*
G01*
X106350000Y-45187500D02*
X106350000Y-44712500D01*
G75*
G02*
X106587500Y-44475000I237500J0D01*
G01*
X107162500Y-44475000D01*
G75*
G02*
X107400000Y-44712500I0J-237500D01*
G01*
X107400000Y-45187500D01*
G75*
G02*
X107162500Y-45425000I-237500J0D01*
G01*
X106587500Y-45425000D01*
G75*
G02*
X106350000Y-45187500I0J237500D01*
G01*
G37*
%TD*%
%TO.C,D3*%
G36*
G01*
X97950000Y-77112500D02*
X97950000Y-77587500D01*
G75*
G02*
X97712500Y-77825000I-237500J0D01*
G01*
X97137500Y-77825000D01*
G75*
G02*
X96900000Y-77587500I0J237500D01*
G01*
X96900000Y-77112500D01*
G75*
G02*
X97137500Y-76875000I237500J0D01*
G01*
X97712500Y-76875000D01*
G75*
G02*
X97950000Y-77112500I0J-237500D01*
G01*
G37*
G36*
G01*
X99700000Y-77112500D02*
X99700000Y-77587500D01*
G75*
G02*
X99462500Y-77825000I-237500J0D01*
G01*
X98887500Y-77825000D01*
G75*
G02*
X98650000Y-77587500I0J237500D01*
G01*
X98650000Y-77112500D01*
G75*
G02*
X98887500Y-76875000I237500J0D01*
G01*
X99462500Y-76875000D01*
G75*
G02*
X99700000Y-77112500I0J-237500D01*
G01*
G37*
%TD*%
D15*
%TO.C,D2*%
X93900000Y-82800000D03*
X88500000Y-82800000D03*
%TD*%
D16*
%TO.C,D1*%
X88900000Y-78400000D03*
X93900000Y-78400000D03*
%TD*%
%TO.C,C10*%
G36*
G01*
X80525000Y-94662500D02*
X80525000Y-95137500D01*
G75*
G02*
X80287500Y-95375000I-237500J0D01*
G01*
X79687500Y-95375000D01*
G75*
G02*
X79450000Y-95137500I0J237500D01*
G01*
X79450000Y-94662500D01*
G75*
G02*
X79687500Y-94425000I237500J0D01*
G01*
X80287500Y-94425000D01*
G75*
G02*
X80525000Y-94662500I0J-237500D01*
G01*
G37*
G36*
G01*
X82250000Y-94662500D02*
X82250000Y-95137500D01*
G75*
G02*
X82012500Y-95375000I-237500J0D01*
G01*
X81412500Y-95375000D01*
G75*
G02*
X81175000Y-95137500I0J237500D01*
G01*
X81175000Y-94662500D01*
G75*
G02*
X81412500Y-94425000I237500J0D01*
G01*
X82012500Y-94425000D01*
G75*
G02*
X82250000Y-94662500I0J-237500D01*
G01*
G37*
%TD*%
%TO.C,C9*%
G36*
G01*
X80475000Y-92762500D02*
X80475000Y-93237500D01*
G75*
G02*
X80237500Y-93475000I-237500J0D01*
G01*
X79637500Y-93475000D01*
G75*
G02*
X79400000Y-93237500I0J237500D01*
G01*
X79400000Y-92762500D01*
G75*
G02*
X79637500Y-92525000I237500J0D01*
G01*
X80237500Y-92525000D01*
G75*
G02*
X80475000Y-92762500I0J-237500D01*
G01*
G37*
G36*
G01*
X82200000Y-92762500D02*
X82200000Y-93237500D01*
G75*
G02*
X81962500Y-93475000I-237500J0D01*
G01*
X81362500Y-93475000D01*
G75*
G02*
X81125000Y-93237500I0J237500D01*
G01*
X81125000Y-92762500D01*
G75*
G02*
X81362500Y-92525000I237500J0D01*
G01*
X81962500Y-92525000D01*
G75*
G02*
X82200000Y-92762500I0J-237500D01*
G01*
G37*
%TD*%
%TO.C,C8*%
G36*
G01*
X97187500Y-91825000D02*
X96712500Y-91825000D01*
G75*
G02*
X96475000Y-91587500I0J237500D01*
G01*
X96475000Y-90987500D01*
G75*
G02*
X96712500Y-90750000I237500J0D01*
G01*
X97187500Y-90750000D01*
G75*
G02*
X97425000Y-90987500I0J-237500D01*
G01*
X97425000Y-91587500D01*
G75*
G02*
X97187500Y-91825000I-237500J0D01*
G01*
G37*
G36*
G01*
X97187500Y-93550000D02*
X96712500Y-93550000D01*
G75*
G02*
X96475000Y-93312500I0J237500D01*
G01*
X96475000Y-92712500D01*
G75*
G02*
X96712500Y-92475000I237500J0D01*
G01*
X97187500Y-92475000D01*
G75*
G02*
X97425000Y-92712500I0J-237500D01*
G01*
X97425000Y-93312500D01*
G75*
G02*
X97187500Y-93550000I-237500J0D01*
G01*
G37*
%TD*%
%TO.C,C7*%
G36*
G01*
X110837500Y-44712500D02*
X110837500Y-45187500D01*
G75*
G02*
X110600000Y-45425000I-237500J0D01*
G01*
X110000000Y-45425000D01*
G75*
G02*
X109762500Y-45187500I0J237500D01*
G01*
X109762500Y-44712500D01*
G75*
G02*
X110000000Y-44475000I237500J0D01*
G01*
X110600000Y-44475000D01*
G75*
G02*
X110837500Y-44712500I0J-237500D01*
G01*
G37*
G36*
G01*
X112562500Y-44712500D02*
X112562500Y-45187500D01*
G75*
G02*
X112325000Y-45425000I-237500J0D01*
G01*
X111725000Y-45425000D01*
G75*
G02*
X111487500Y-45187500I0J237500D01*
G01*
X111487500Y-44712500D01*
G75*
G02*
X111725000Y-44475000I237500J0D01*
G01*
X112325000Y-44475000D01*
G75*
G02*
X112562500Y-44712500I0J-237500D01*
G01*
G37*
%TD*%
%TO.C,C6*%
G36*
G01*
X117687500Y-44662500D02*
X117687500Y-45137500D01*
G75*
G02*
X117450000Y-45375000I-237500J0D01*
G01*
X116850000Y-45375000D01*
G75*
G02*
X116612500Y-45137500I0J237500D01*
G01*
X116612500Y-44662500D01*
G75*
G02*
X116850000Y-44425000I237500J0D01*
G01*
X117450000Y-44425000D01*
G75*
G02*
X117687500Y-44662500I0J-237500D01*
G01*
G37*
G36*
G01*
X119412500Y-44662500D02*
X119412500Y-45137500D01*
G75*
G02*
X119175000Y-45375000I-237500J0D01*
G01*
X118575000Y-45375000D01*
G75*
G02*
X118337500Y-45137500I0J237500D01*
G01*
X118337500Y-44662500D01*
G75*
G02*
X118575000Y-44425000I237500J0D01*
G01*
X119175000Y-44425000D01*
G75*
G02*
X119412500Y-44662500I0J-237500D01*
G01*
G37*
%TD*%
%TO.C,C5*%
G36*
G01*
X114225000Y-44712500D02*
X114225000Y-45187500D01*
G75*
G02*
X113987500Y-45425000I-237500J0D01*
G01*
X113387500Y-45425000D01*
G75*
G02*
X113150000Y-45187500I0J237500D01*
G01*
X113150000Y-44712500D01*
G75*
G02*
X113387500Y-44475000I237500J0D01*
G01*
X113987500Y-44475000D01*
G75*
G02*
X114225000Y-44712500I0J-237500D01*
G01*
G37*
G36*
G01*
X115950000Y-44712500D02*
X115950000Y-45187500D01*
G75*
G02*
X115712500Y-45425000I-237500J0D01*
G01*
X115112500Y-45425000D01*
G75*
G02*
X114875000Y-45187500I0J237500D01*
G01*
X114875000Y-44712500D01*
G75*
G02*
X115112500Y-44475000I237500J0D01*
G01*
X115712500Y-44475000D01*
G75*
G02*
X115950000Y-44712500I0J-237500D01*
G01*
G37*
%TD*%
%TO.C,C4*%
G36*
G01*
X101150000Y-93125001D02*
X101150000Y-92274999D01*
G75*
G02*
X101399999Y-92025000I249999J0D01*
G01*
X102475001Y-92025000D01*
G75*
G02*
X102725000Y-92274999I0J-249999D01*
G01*
X102725000Y-93125001D01*
G75*
G02*
X102475001Y-93375000I-249999J0D01*
G01*
X101399999Y-93375000D01*
G75*
G02*
X101150000Y-93125001I0J249999D01*
G01*
G37*
G36*
G01*
X98275000Y-93125001D02*
X98275000Y-92274999D01*
G75*
G02*
X98524999Y-92025000I249999J0D01*
G01*
X99600001Y-92025000D01*
G75*
G02*
X99850000Y-92274999I0J-249999D01*
G01*
X99850000Y-93125001D01*
G75*
G02*
X99600001Y-93375000I-249999J0D01*
G01*
X98524999Y-93375000D01*
G75*
G02*
X98275000Y-93125001I0J249999D01*
G01*
G37*
%TD*%
%TO.C,C3*%
G36*
G01*
X102412500Y-80625000D02*
X102887500Y-80625000D01*
G75*
G02*
X103125000Y-80862500I0J-237500D01*
G01*
X103125000Y-81462500D01*
G75*
G02*
X102887500Y-81700000I-237500J0D01*
G01*
X102412500Y-81700000D01*
G75*
G02*
X102175000Y-81462500I0J237500D01*
G01*
X102175000Y-80862500D01*
G75*
G02*
X102412500Y-80625000I237500J0D01*
G01*
G37*
G36*
G01*
X102412500Y-78900000D02*
X102887500Y-78900000D01*
G75*
G02*
X103125000Y-79137500I0J-237500D01*
G01*
X103125000Y-79737500D01*
G75*
G02*
X102887500Y-79975000I-237500J0D01*
G01*
X102412500Y-79975000D01*
G75*
G02*
X102175000Y-79737500I0J237500D01*
G01*
X102175000Y-79137500D01*
G75*
G02*
X102412500Y-78900000I237500J0D01*
G01*
G37*
%TD*%
%TO.C,C2*%
G36*
G01*
X99750000Y-80125001D02*
X99750000Y-79274999D01*
G75*
G02*
X99999999Y-79025000I249999J0D01*
G01*
X101075001Y-79025000D01*
G75*
G02*
X101325000Y-79274999I0J-249999D01*
G01*
X101325000Y-80125001D01*
G75*
G02*
X101075001Y-80375000I-249999J0D01*
G01*
X99999999Y-80375000D01*
G75*
G02*
X99750000Y-80125001I0J249999D01*
G01*
G37*
G36*
G01*
X96875000Y-80125001D02*
X96875000Y-79274999D01*
G75*
G02*
X97124999Y-79025000I249999J0D01*
G01*
X98200001Y-79025000D01*
G75*
G02*
X98450000Y-79274999I0J-249999D01*
G01*
X98450000Y-80125001D01*
G75*
G02*
X98200001Y-80375000I-249999J0D01*
G01*
X97124999Y-80375000D01*
G75*
G02*
X96875000Y-80125001I0J249999D01*
G01*
G37*
%TD*%
M02*
