%TF.GenerationSoftware,KiCad,Pcbnew,(5.1.10)-1*%
%TF.CreationDate,2021-06-06T01:41:03+08:00*%
%TF.ProjectId,WS2812B1,57533238-3132-4423-912e-6b696361645f,rev?*%
%TF.SameCoordinates,Original*%
%TF.FileFunction,Copper,L1,Top*%
%TF.FilePolarity,Positive*%
%FSLAX46Y46*%
G04 Gerber Fmt 4.6, Leading zero omitted, Abs format (unit mm)*
G04 Created by KiCad (PCBNEW (5.1.10)-1) date 2021-06-06 01:41:03*
%MOMM*%
%LPD*%
G01*
G04 APERTURE LIST*
%TA.AperFunction,SMDPad,CuDef*%
%ADD10R,1.500000X1.000000*%
%TD*%
%TA.AperFunction,ViaPad*%
%ADD11C,0.800000*%
%TD*%
%TA.AperFunction,Conductor*%
%ADD12C,0.762000*%
%TD*%
%TA.AperFunction,Conductor*%
%ADD13C,0.254000*%
%TD*%
%TA.AperFunction,Conductor*%
%ADD14C,0.508000*%
%TD*%
%TA.AperFunction,Conductor*%
%ADD15C,0.350000*%
%TD*%
%TA.AperFunction,Conductor*%
%ADD16C,0.025400*%
%TD*%
%ADD17C,0.350000*%
G04 APERTURE END LIST*
D10*
%TO.P,D4,1*%
%TO.N,+5V*%
X68930000Y-89020000D03*
%TO.P,D4,2*%
%TO.N,/out-rgb*%
X68930000Y-92220000D03*
%TO.P,D4,4*%
%TO.N,Net-(D3-Pad2)*%
X73830000Y-89020000D03*
%TO.P,D4,3*%
%TO.N,GND*%
X73830000Y-92220000D03*
%TD*%
%TO.P,D3,1*%
%TO.N,+5V*%
X73520000Y-81450000D03*
%TO.P,D3,2*%
%TO.N,Net-(D3-Pad2)*%
X73520000Y-78250000D03*
%TO.P,D3,4*%
%TO.N,Net-(D2-Pad2)*%
X68620000Y-81450000D03*
%TO.P,D3,3*%
%TO.N,GND*%
X68620000Y-78250000D03*
%TD*%
%TO.P,D2,1*%
%TO.N,+5V*%
X63990000Y-81420000D03*
%TO.P,D2,2*%
%TO.N,Net-(D2-Pad2)*%
X63990000Y-78220000D03*
%TO.P,D2,4*%
%TO.N,Net-(D1-Pad2)*%
X59090000Y-81420000D03*
%TO.P,D2,3*%
%TO.N,GND*%
X59090000Y-78220000D03*
%TD*%
%TO.P,D1,1*%
%TO.N,+5V*%
X59130000Y-89140000D03*
%TO.P,D1,2*%
%TO.N,Net-(D1-Pad2)*%
X59130000Y-92340000D03*
%TO.P,D1,4*%
%TO.N,/in-rgb*%
X64030000Y-89140000D03*
%TO.P,D1,3*%
%TO.N,GND*%
X64030000Y-92340000D03*
%TD*%
%TO.P,C4,2*%
%TO.N,GND*%
%TA.AperFunction,SMDPad,CuDef*%
G36*
G01*
X65722500Y-92935000D02*
X66197500Y-92935000D01*
G75*
G02*
X66435000Y-93172500I0J-237500D01*
G01*
X66435000Y-93772500D01*
G75*
G02*
X66197500Y-94010000I-237500J0D01*
G01*
X65722500Y-94010000D01*
G75*
G02*
X65485000Y-93772500I0J237500D01*
G01*
X65485000Y-93172500D01*
G75*
G02*
X65722500Y-92935000I237500J0D01*
G01*
G37*
%TD.AperFunction*%
%TO.P,C4,1*%
%TO.N,+5V*%
%TA.AperFunction,SMDPad,CuDef*%
G36*
G01*
X65722500Y-91210000D02*
X66197500Y-91210000D01*
G75*
G02*
X66435000Y-91447500I0J-237500D01*
G01*
X66435000Y-92047500D01*
G75*
G02*
X66197500Y-92285000I-237500J0D01*
G01*
X65722500Y-92285000D01*
G75*
G02*
X65485000Y-92047500I0J237500D01*
G01*
X65485000Y-91447500D01*
G75*
G02*
X65722500Y-91210000I237500J0D01*
G01*
G37*
%TD.AperFunction*%
%TD*%
%TO.P,C3,2*%
%TO.N,GND*%
%TA.AperFunction,SMDPad,CuDef*%
G36*
G01*
X66197500Y-88875000D02*
X65722500Y-88875000D01*
G75*
G02*
X65485000Y-88637500I0J237500D01*
G01*
X65485000Y-88037500D01*
G75*
G02*
X65722500Y-87800000I237500J0D01*
G01*
X66197500Y-87800000D01*
G75*
G02*
X66435000Y-88037500I0J-237500D01*
G01*
X66435000Y-88637500D01*
G75*
G02*
X66197500Y-88875000I-237500J0D01*
G01*
G37*
%TD.AperFunction*%
%TO.P,C3,1*%
%TO.N,+5V*%
%TA.AperFunction,SMDPad,CuDef*%
G36*
G01*
X66197500Y-90600000D02*
X65722500Y-90600000D01*
G75*
G02*
X65485000Y-90362500I0J237500D01*
G01*
X65485000Y-89762500D01*
G75*
G02*
X65722500Y-89525000I237500J0D01*
G01*
X66197500Y-89525000D01*
G75*
G02*
X66435000Y-89762500I0J-237500D01*
G01*
X66435000Y-90362500D01*
G75*
G02*
X66197500Y-90600000I-237500J0D01*
G01*
G37*
%TD.AperFunction*%
%TD*%
%TO.P,C2,2*%
%TO.N,GND*%
%TA.AperFunction,SMDPad,CuDef*%
G36*
G01*
X66307500Y-81865000D02*
X65832500Y-81865000D01*
G75*
G02*
X65595000Y-81627500I0J237500D01*
G01*
X65595000Y-81027500D01*
G75*
G02*
X65832500Y-80790000I237500J0D01*
G01*
X66307500Y-80790000D01*
G75*
G02*
X66545000Y-81027500I0J-237500D01*
G01*
X66545000Y-81627500D01*
G75*
G02*
X66307500Y-81865000I-237500J0D01*
G01*
G37*
%TD.AperFunction*%
%TO.P,C2,1*%
%TO.N,+5V*%
%TA.AperFunction,SMDPad,CuDef*%
G36*
G01*
X66307500Y-83590000D02*
X65832500Y-83590000D01*
G75*
G02*
X65595000Y-83352500I0J237500D01*
G01*
X65595000Y-82752500D01*
G75*
G02*
X65832500Y-82515000I237500J0D01*
G01*
X66307500Y-82515000D01*
G75*
G02*
X66545000Y-82752500I0J-237500D01*
G01*
X66545000Y-83352500D01*
G75*
G02*
X66307500Y-83590000I-237500J0D01*
G01*
G37*
%TD.AperFunction*%
%TD*%
%TO.P,C1,2*%
%TO.N,GND*%
%TA.AperFunction,SMDPad,CuDef*%
G36*
G01*
X66377500Y-78295000D02*
X65902500Y-78295000D01*
G75*
G02*
X65665000Y-78057500I0J237500D01*
G01*
X65665000Y-77457500D01*
G75*
G02*
X65902500Y-77220000I237500J0D01*
G01*
X66377500Y-77220000D01*
G75*
G02*
X66615000Y-77457500I0J-237500D01*
G01*
X66615000Y-78057500D01*
G75*
G02*
X66377500Y-78295000I-237500J0D01*
G01*
G37*
%TD.AperFunction*%
%TO.P,C1,1*%
%TO.N,+5V*%
%TA.AperFunction,SMDPad,CuDef*%
G36*
G01*
X66377500Y-80020000D02*
X65902500Y-80020000D01*
G75*
G02*
X65665000Y-79782500I0J237500D01*
G01*
X65665000Y-79182500D01*
G75*
G02*
X65902500Y-78945000I237500J0D01*
G01*
X66377500Y-78945000D01*
G75*
G02*
X66615000Y-79182500I0J-237500D01*
G01*
X66615000Y-79782500D01*
G75*
G02*
X66377500Y-80020000I-237500J0D01*
G01*
G37*
%TD.AperFunction*%
%TD*%
D11*
%TO.N,GND*%
X63660000Y-90440000D03*
X65050000Y-86940000D03*
X60980000Y-92270000D03*
X71520000Y-78820000D03*
X64600000Y-84360000D03*
X68110000Y-83650000D03*
X61910000Y-79410000D03*
%TO.N,+5V*%
X71740000Y-83030000D03*
X61150000Y-82870000D03*
X69130000Y-90240000D03*
%TO.N,/in-rgb*%
X61100000Y-85490000D03*
%TO.N,/out-rgb*%
X71770000Y-85680000D03*
%TD*%
D12*
%TO.N,GND*%
X68620000Y-78250000D02*
X68536200Y-78250000D01*
D13*
X64568602Y-90440000D02*
X63660000Y-90440000D01*
X65107001Y-89901601D02*
X64568602Y-90440000D01*
X65107001Y-86997001D02*
X65107001Y-89901601D01*
X65050000Y-86940000D02*
X65107001Y-86997001D01*
D14*
X66070000Y-81327500D02*
X66070000Y-81320000D01*
X66070000Y-81320000D02*
X64820000Y-80070000D01*
X65194001Y-78228499D02*
X65194001Y-79205999D01*
X65665000Y-77757500D02*
X65194001Y-78228499D01*
X66140000Y-77757500D02*
X65665000Y-77757500D01*
X65194001Y-79205999D02*
X64620000Y-79780000D01*
D12*
X67400000Y-84360000D02*
X64600000Y-84360000D01*
X68110000Y-83650000D02*
X67400000Y-84360000D01*
%TO.N,+5V*%
X61150000Y-82880000D02*
X61150000Y-82870000D01*
X61690000Y-83420000D02*
X61150000Y-82880000D01*
X59130000Y-84890000D02*
X61150000Y-82870000D01*
X59130000Y-89140000D02*
X59130000Y-84890000D01*
X62540000Y-82870000D02*
X63990000Y-81420000D01*
X61150000Y-82870000D02*
X62540000Y-82870000D01*
X73320000Y-81450000D02*
X71740000Y-83030000D01*
X73520000Y-81450000D02*
X73320000Y-81450000D01*
X69130000Y-90240000D02*
X67730000Y-90240000D01*
X67730000Y-90240000D02*
X67250000Y-89760000D01*
X68930000Y-90040000D02*
X69130000Y-90240000D01*
X68930000Y-89020000D02*
X68930000Y-90040000D01*
D14*
X61375999Y-91385999D02*
X59130000Y-89140000D01*
X65598499Y-91385999D02*
X61375999Y-91385999D01*
X65960000Y-91747500D02*
X65598499Y-91385999D01*
X67552500Y-90062500D02*
X67730000Y-90240000D01*
X65960000Y-90062500D02*
X67552500Y-90062500D01*
X64437500Y-81420000D02*
X66070000Y-83052500D01*
X63990000Y-81420000D02*
X64437500Y-81420000D01*
D12*
X63695000Y-85415000D02*
X61150000Y-82870000D01*
X64000000Y-85720000D02*
X63695000Y-85415000D01*
X71740000Y-83030000D02*
X71740000Y-83770000D01*
X67250000Y-89760000D02*
X67250000Y-88150000D01*
X71630000Y-83770000D02*
X67250000Y-88150000D01*
X71740000Y-83770000D02*
X71630000Y-83770000D01*
X71740000Y-83030000D02*
X70870000Y-83030000D01*
X70870000Y-83030000D02*
X68210000Y-85690000D01*
X66370000Y-85690000D02*
X66340000Y-85720000D01*
X68210000Y-85690000D02*
X66370000Y-85690000D01*
X66340000Y-85720000D02*
X64000000Y-85720000D01*
D14*
X66140000Y-79482500D02*
X66999010Y-80341510D01*
X69707202Y-82430000D02*
X71627202Y-80510000D01*
X67532798Y-82430000D02*
X69707202Y-82430000D01*
X72580000Y-80510000D02*
X73520000Y-81450000D01*
X71627202Y-80510000D02*
X72580000Y-80510000D01*
X67532798Y-82430000D02*
X67380000Y-82277202D01*
X66999010Y-80341510D02*
X66999010Y-81896212D01*
X66999010Y-81896212D02*
X67532798Y-82430000D01*
%TO.N,Net-(D1-Pad2)*%
X57925999Y-82584001D02*
X59090000Y-81420000D01*
X57925999Y-91135999D02*
X57925999Y-82584001D01*
X59130000Y-92340000D02*
X57925999Y-91135999D01*
%TO.N,/in-rgb*%
X64030000Y-89140000D02*
X64030000Y-88030000D01*
X64030000Y-88030000D02*
X61320000Y-85320000D01*
X61150000Y-85490000D02*
X61100000Y-85490000D01*
X61320000Y-85320000D02*
X61150000Y-85490000D01*
%TO.N,Net-(D2-Pad2)*%
X68620000Y-80442000D02*
X67350000Y-79172000D01*
X68620000Y-81450000D02*
X68620000Y-80442000D01*
X67350000Y-77452056D02*
X66447944Y-76550000D01*
X67350000Y-79172000D02*
X67350000Y-77452056D01*
X63990000Y-77587422D02*
X63990000Y-78220000D01*
X65027422Y-76550000D02*
X63990000Y-77587422D01*
X66447944Y-76550000D02*
X65027422Y-76550000D01*
D12*
%TO.N,Net-(D3-Pad2)*%
X73520000Y-78250000D02*
X75070000Y-79800000D01*
X75070000Y-87780000D02*
X73830000Y-89020000D01*
X75070000Y-79800000D02*
X75070000Y-87780000D01*
%TO.N,/out-rgb*%
X68930000Y-91891882D02*
X71770000Y-89051882D01*
X68930000Y-92220000D02*
X68930000Y-91891882D01*
X71770000Y-89051882D02*
X71770000Y-85680000D01*
%TD*%
D13*
%TO.N,GND*%
X76240000Y-90740000D02*
X75932419Y-90740000D01*
X75900000Y-90736807D01*
X75867581Y-90740000D01*
X75770617Y-90749550D01*
X75646207Y-90787290D01*
X75531550Y-90848575D01*
X75431052Y-90931052D01*
X75348575Y-91031550D01*
X75287290Y-91146207D01*
X75249550Y-91270617D01*
X75236807Y-91400000D01*
X75240001Y-91432429D01*
X75240000Y-94840000D01*
X73060000Y-94840000D01*
X73060000Y-94532419D01*
X73063193Y-94500000D01*
X73050450Y-94370617D01*
X73012710Y-94246207D01*
X72951425Y-94131550D01*
X72868948Y-94031052D01*
X72768450Y-93948575D01*
X72653793Y-93887290D01*
X72529383Y-93849550D01*
X72432419Y-93840000D01*
X72400000Y-93836807D01*
X72367581Y-93840000D01*
X68432419Y-93840000D01*
X68400000Y-93836807D01*
X68367581Y-93840000D01*
X68270617Y-93849550D01*
X68146207Y-93887290D01*
X68031550Y-93948575D01*
X67931052Y-94031052D01*
X67848575Y-94131550D01*
X67787290Y-94246207D01*
X67749550Y-94370617D01*
X67736807Y-94500000D01*
X67740001Y-94532429D01*
X67740001Y-94840000D01*
X65060000Y-94840000D01*
X65060000Y-94532419D01*
X65063193Y-94500000D01*
X65061617Y-94484002D01*
X65130506Y-94540537D01*
X65240820Y-94599502D01*
X65360518Y-94635812D01*
X65485000Y-94648072D01*
X65674250Y-94645000D01*
X65833000Y-94486250D01*
X65833000Y-93599500D01*
X66087000Y-93599500D01*
X66087000Y-94486250D01*
X66245750Y-94645000D01*
X66435000Y-94648072D01*
X66559482Y-94635812D01*
X66679180Y-94599502D01*
X66789494Y-94540537D01*
X66886185Y-94461185D01*
X66965537Y-94364494D01*
X67024502Y-94254180D01*
X67060812Y-94134482D01*
X67073072Y-94010000D01*
X67070000Y-93758250D01*
X66911250Y-93599500D01*
X66087000Y-93599500D01*
X65833000Y-93599500D01*
X65008750Y-93599500D01*
X64850000Y-93758250D01*
X64846928Y-94010000D01*
X64847247Y-94013243D01*
X64768450Y-93948575D01*
X64653793Y-93887290D01*
X64529383Y-93849550D01*
X64432419Y-93840000D01*
X64400000Y-93836807D01*
X64367581Y-93840000D01*
X60432419Y-93840000D01*
X60400000Y-93836807D01*
X60367581Y-93840000D01*
X60270617Y-93849550D01*
X60146207Y-93887290D01*
X60031550Y-93948575D01*
X59931052Y-94031052D01*
X59848575Y-94131550D01*
X59787290Y-94246207D01*
X59749550Y-94370617D01*
X59736807Y-94500000D01*
X59740001Y-94532429D01*
X59740001Y-94840000D01*
X56560000Y-94840000D01*
X56560000Y-92160000D01*
X56867581Y-92160000D01*
X56900000Y-92163193D01*
X56932419Y-92160000D01*
X57029383Y-92150450D01*
X57153793Y-92112710D01*
X57268450Y-92051425D01*
X57368948Y-91968948D01*
X57428793Y-91896028D01*
X57741928Y-92209163D01*
X57741928Y-92840000D01*
X57754188Y-92964482D01*
X57790498Y-93084180D01*
X57849463Y-93194494D01*
X57928815Y-93291185D01*
X58025506Y-93370537D01*
X58135820Y-93429502D01*
X58255518Y-93465812D01*
X58380000Y-93478072D01*
X59880000Y-93478072D01*
X60004482Y-93465812D01*
X60124180Y-93429502D01*
X60234494Y-93370537D01*
X60331185Y-93291185D01*
X60410537Y-93194494D01*
X60469502Y-93084180D01*
X60505812Y-92964482D01*
X60518072Y-92840000D01*
X62641928Y-92840000D01*
X62654188Y-92964482D01*
X62690498Y-93084180D01*
X62749463Y-93194494D01*
X62828815Y-93291185D01*
X62925506Y-93370537D01*
X63035820Y-93429502D01*
X63155518Y-93465812D01*
X63280000Y-93478072D01*
X63744250Y-93475000D01*
X63903000Y-93316250D01*
X63903000Y-92467000D01*
X62803750Y-92467000D01*
X62645000Y-92625750D01*
X62641928Y-92840000D01*
X60518072Y-92840000D01*
X60518072Y-91840000D01*
X60512097Y-91779332D01*
X60716500Y-91983735D01*
X60744340Y-92017658D01*
X60879708Y-92128752D01*
X61034148Y-92211302D01*
X61100057Y-92231295D01*
X61201723Y-92262135D01*
X61234923Y-92265405D01*
X61332332Y-92274999D01*
X61332338Y-92274999D01*
X61375998Y-92279299D01*
X61419658Y-92274999D01*
X64177000Y-92274999D01*
X64177000Y-92467000D01*
X64157000Y-92467000D01*
X64157000Y-93316250D01*
X64315750Y-93475000D01*
X64780000Y-93478072D01*
X64904482Y-93465812D01*
X65024180Y-93429502D01*
X65134494Y-93370537D01*
X65165002Y-93345500D01*
X65833000Y-93345500D01*
X65833000Y-93325500D01*
X66087000Y-93325500D01*
X66087000Y-93345500D01*
X66911250Y-93345500D01*
X67070000Y-93186750D01*
X67073072Y-92935000D01*
X67060812Y-92810518D01*
X67024502Y-92690820D01*
X66965537Y-92580506D01*
X66926226Y-92532606D01*
X67006423Y-92382567D01*
X67056248Y-92218316D01*
X67073072Y-92047500D01*
X67073072Y-91447500D01*
X67056248Y-91276684D01*
X67006423Y-91112433D01*
X66925512Y-90961058D01*
X66917668Y-90951500D01*
X66999572Y-90951500D01*
X67008104Y-90961896D01*
X67162810Y-91088860D01*
X67317276Y-91171423D01*
X67339313Y-91183202D01*
X67530829Y-91241298D01*
X67730000Y-91260915D01*
X67739592Y-91259970D01*
X67728815Y-91268815D01*
X67649463Y-91365506D01*
X67590498Y-91475820D01*
X67554188Y-91595518D01*
X67541928Y-91720000D01*
X67541928Y-92720000D01*
X67554188Y-92844482D01*
X67590498Y-92964180D01*
X67649463Y-93074494D01*
X67728815Y-93171185D01*
X67825506Y-93250537D01*
X67935820Y-93309502D01*
X68055518Y-93345812D01*
X68180000Y-93358072D01*
X69680000Y-93358072D01*
X69804482Y-93345812D01*
X69924180Y-93309502D01*
X70034494Y-93250537D01*
X70131185Y-93171185D01*
X70210537Y-93074494D01*
X70269502Y-92964180D01*
X70305812Y-92844482D01*
X70318072Y-92720000D01*
X72441928Y-92720000D01*
X72454188Y-92844482D01*
X72490498Y-92964180D01*
X72549463Y-93074494D01*
X72628815Y-93171185D01*
X72725506Y-93250537D01*
X72835820Y-93309502D01*
X72955518Y-93345812D01*
X73080000Y-93358072D01*
X73544250Y-93355000D01*
X73703000Y-93196250D01*
X73703000Y-92347000D01*
X73957000Y-92347000D01*
X73957000Y-93196250D01*
X74115750Y-93355000D01*
X74580000Y-93358072D01*
X74704482Y-93345812D01*
X74824180Y-93309502D01*
X74934494Y-93250537D01*
X75031185Y-93171185D01*
X75110537Y-93074494D01*
X75169502Y-92964180D01*
X75205812Y-92844482D01*
X75218072Y-92720000D01*
X75215000Y-92505750D01*
X75056250Y-92347000D01*
X73957000Y-92347000D01*
X73703000Y-92347000D01*
X72603750Y-92347000D01*
X72445000Y-92505750D01*
X72441928Y-92720000D01*
X70318072Y-92720000D01*
X70318072Y-91940650D01*
X70538722Y-91720000D01*
X72441928Y-91720000D01*
X72445000Y-91934250D01*
X72603750Y-92093000D01*
X73703000Y-92093000D01*
X73703000Y-91243750D01*
X73957000Y-91243750D01*
X73957000Y-92093000D01*
X75056250Y-92093000D01*
X75215000Y-91934250D01*
X75218072Y-91720000D01*
X75205812Y-91595518D01*
X75169502Y-91475820D01*
X75110537Y-91365506D01*
X75031185Y-91268815D01*
X74934494Y-91189463D01*
X74824180Y-91130498D01*
X74704482Y-91094188D01*
X74580000Y-91081928D01*
X74115750Y-91085000D01*
X73957000Y-91243750D01*
X73703000Y-91243750D01*
X73544250Y-91085000D01*
X73080000Y-91081928D01*
X72955518Y-91094188D01*
X72835820Y-91130498D01*
X72725506Y-91189463D01*
X72628815Y-91268815D01*
X72549463Y-91365506D01*
X72490498Y-91475820D01*
X72454188Y-91595518D01*
X72441928Y-91720000D01*
X70538722Y-91720000D01*
X72453133Y-89805590D01*
X72491896Y-89773778D01*
X72494156Y-89771024D01*
X72549463Y-89874494D01*
X72628815Y-89971185D01*
X72725506Y-90050537D01*
X72835820Y-90109502D01*
X72955518Y-90145812D01*
X73080000Y-90158072D01*
X74580000Y-90158072D01*
X74704482Y-90145812D01*
X74824180Y-90109502D01*
X74934494Y-90050537D01*
X75031185Y-89971185D01*
X75110537Y-89874494D01*
X75169502Y-89764180D01*
X75205812Y-89644482D01*
X75218072Y-89520000D01*
X75218072Y-89068769D01*
X75753133Y-88533708D01*
X75791896Y-88501896D01*
X75918860Y-88347190D01*
X75965464Y-88260000D01*
X76240001Y-88260000D01*
X76240000Y-90740000D01*
%TA.AperFunction,Conductor*%
D15*
G36*
X76240000Y-90740000D02*
G01*
X75932419Y-90740000D01*
X75900000Y-90736807D01*
X75867581Y-90740000D01*
X75770617Y-90749550D01*
X75646207Y-90787290D01*
X75531550Y-90848575D01*
X75431052Y-90931052D01*
X75348575Y-91031550D01*
X75287290Y-91146207D01*
X75249550Y-91270617D01*
X75236807Y-91400000D01*
X75240001Y-91432429D01*
X75240000Y-94840000D01*
X73060000Y-94840000D01*
X73060000Y-94532419D01*
X73063193Y-94500000D01*
X73050450Y-94370617D01*
X73012710Y-94246207D01*
X72951425Y-94131550D01*
X72868948Y-94031052D01*
X72768450Y-93948575D01*
X72653793Y-93887290D01*
X72529383Y-93849550D01*
X72432419Y-93840000D01*
X72400000Y-93836807D01*
X72367581Y-93840000D01*
X68432419Y-93840000D01*
X68400000Y-93836807D01*
X68367581Y-93840000D01*
X68270617Y-93849550D01*
X68146207Y-93887290D01*
X68031550Y-93948575D01*
X67931052Y-94031052D01*
X67848575Y-94131550D01*
X67787290Y-94246207D01*
X67749550Y-94370617D01*
X67736807Y-94500000D01*
X67740001Y-94532429D01*
X67740001Y-94840000D01*
X65060000Y-94840000D01*
X65060000Y-94532419D01*
X65063193Y-94500000D01*
X65061617Y-94484002D01*
X65130506Y-94540537D01*
X65240820Y-94599502D01*
X65360518Y-94635812D01*
X65485000Y-94648072D01*
X65674250Y-94645000D01*
X65833000Y-94486250D01*
X65833000Y-93599500D01*
X66087000Y-93599500D01*
X66087000Y-94486250D01*
X66245750Y-94645000D01*
X66435000Y-94648072D01*
X66559482Y-94635812D01*
X66679180Y-94599502D01*
X66789494Y-94540537D01*
X66886185Y-94461185D01*
X66965537Y-94364494D01*
X67024502Y-94254180D01*
X67060812Y-94134482D01*
X67073072Y-94010000D01*
X67070000Y-93758250D01*
X66911250Y-93599500D01*
X66087000Y-93599500D01*
X65833000Y-93599500D01*
X65008750Y-93599500D01*
X64850000Y-93758250D01*
X64846928Y-94010000D01*
X64847247Y-94013243D01*
X64768450Y-93948575D01*
X64653793Y-93887290D01*
X64529383Y-93849550D01*
X64432419Y-93840000D01*
X64400000Y-93836807D01*
X64367581Y-93840000D01*
X60432419Y-93840000D01*
X60400000Y-93836807D01*
X60367581Y-93840000D01*
X60270617Y-93849550D01*
X60146207Y-93887290D01*
X60031550Y-93948575D01*
X59931052Y-94031052D01*
X59848575Y-94131550D01*
X59787290Y-94246207D01*
X59749550Y-94370617D01*
X59736807Y-94500000D01*
X59740001Y-94532429D01*
X59740001Y-94840000D01*
X56560000Y-94840000D01*
X56560000Y-92160000D01*
X56867581Y-92160000D01*
X56900000Y-92163193D01*
X56932419Y-92160000D01*
X57029383Y-92150450D01*
X57153793Y-92112710D01*
X57268450Y-92051425D01*
X57368948Y-91968948D01*
X57428793Y-91896028D01*
X57741928Y-92209163D01*
X57741928Y-92840000D01*
X57754188Y-92964482D01*
X57790498Y-93084180D01*
X57849463Y-93194494D01*
X57928815Y-93291185D01*
X58025506Y-93370537D01*
X58135820Y-93429502D01*
X58255518Y-93465812D01*
X58380000Y-93478072D01*
X59880000Y-93478072D01*
X60004482Y-93465812D01*
X60124180Y-93429502D01*
X60234494Y-93370537D01*
X60331185Y-93291185D01*
X60410537Y-93194494D01*
X60469502Y-93084180D01*
X60505812Y-92964482D01*
X60518072Y-92840000D01*
X62641928Y-92840000D01*
X62654188Y-92964482D01*
X62690498Y-93084180D01*
X62749463Y-93194494D01*
X62828815Y-93291185D01*
X62925506Y-93370537D01*
X63035820Y-93429502D01*
X63155518Y-93465812D01*
X63280000Y-93478072D01*
X63744250Y-93475000D01*
X63903000Y-93316250D01*
X63903000Y-92467000D01*
X62803750Y-92467000D01*
X62645000Y-92625750D01*
X62641928Y-92840000D01*
X60518072Y-92840000D01*
X60518072Y-91840000D01*
X60512097Y-91779332D01*
X60716500Y-91983735D01*
X60744340Y-92017658D01*
X60879708Y-92128752D01*
X61034148Y-92211302D01*
X61100057Y-92231295D01*
X61201723Y-92262135D01*
X61234923Y-92265405D01*
X61332332Y-92274999D01*
X61332338Y-92274999D01*
X61375998Y-92279299D01*
X61419658Y-92274999D01*
X64177000Y-92274999D01*
X64177000Y-92467000D01*
X64157000Y-92467000D01*
X64157000Y-93316250D01*
X64315750Y-93475000D01*
X64780000Y-93478072D01*
X64904482Y-93465812D01*
X65024180Y-93429502D01*
X65134494Y-93370537D01*
X65165002Y-93345500D01*
X65833000Y-93345500D01*
X65833000Y-93325500D01*
X66087000Y-93325500D01*
X66087000Y-93345500D01*
X66911250Y-93345500D01*
X67070000Y-93186750D01*
X67073072Y-92935000D01*
X67060812Y-92810518D01*
X67024502Y-92690820D01*
X66965537Y-92580506D01*
X66926226Y-92532606D01*
X67006423Y-92382567D01*
X67056248Y-92218316D01*
X67073072Y-92047500D01*
X67073072Y-91447500D01*
X67056248Y-91276684D01*
X67006423Y-91112433D01*
X66925512Y-90961058D01*
X66917668Y-90951500D01*
X66999572Y-90951500D01*
X67008104Y-90961896D01*
X67162810Y-91088860D01*
X67317276Y-91171423D01*
X67339313Y-91183202D01*
X67530829Y-91241298D01*
X67730000Y-91260915D01*
X67739592Y-91259970D01*
X67728815Y-91268815D01*
X67649463Y-91365506D01*
X67590498Y-91475820D01*
X67554188Y-91595518D01*
X67541928Y-91720000D01*
X67541928Y-92720000D01*
X67554188Y-92844482D01*
X67590498Y-92964180D01*
X67649463Y-93074494D01*
X67728815Y-93171185D01*
X67825506Y-93250537D01*
X67935820Y-93309502D01*
X68055518Y-93345812D01*
X68180000Y-93358072D01*
X69680000Y-93358072D01*
X69804482Y-93345812D01*
X69924180Y-93309502D01*
X70034494Y-93250537D01*
X70131185Y-93171185D01*
X70210537Y-93074494D01*
X70269502Y-92964180D01*
X70305812Y-92844482D01*
X70318072Y-92720000D01*
X72441928Y-92720000D01*
X72454188Y-92844482D01*
X72490498Y-92964180D01*
X72549463Y-93074494D01*
X72628815Y-93171185D01*
X72725506Y-93250537D01*
X72835820Y-93309502D01*
X72955518Y-93345812D01*
X73080000Y-93358072D01*
X73544250Y-93355000D01*
X73703000Y-93196250D01*
X73703000Y-92347000D01*
X73957000Y-92347000D01*
X73957000Y-93196250D01*
X74115750Y-93355000D01*
X74580000Y-93358072D01*
X74704482Y-93345812D01*
X74824180Y-93309502D01*
X74934494Y-93250537D01*
X75031185Y-93171185D01*
X75110537Y-93074494D01*
X75169502Y-92964180D01*
X75205812Y-92844482D01*
X75218072Y-92720000D01*
X75215000Y-92505750D01*
X75056250Y-92347000D01*
X73957000Y-92347000D01*
X73703000Y-92347000D01*
X72603750Y-92347000D01*
X72445000Y-92505750D01*
X72441928Y-92720000D01*
X70318072Y-92720000D01*
X70318072Y-91940650D01*
X70538722Y-91720000D01*
X72441928Y-91720000D01*
X72445000Y-91934250D01*
X72603750Y-92093000D01*
X73703000Y-92093000D01*
X73703000Y-91243750D01*
X73957000Y-91243750D01*
X73957000Y-92093000D01*
X75056250Y-92093000D01*
X75215000Y-91934250D01*
X75218072Y-91720000D01*
X75205812Y-91595518D01*
X75169502Y-91475820D01*
X75110537Y-91365506D01*
X75031185Y-91268815D01*
X74934494Y-91189463D01*
X74824180Y-91130498D01*
X74704482Y-91094188D01*
X74580000Y-91081928D01*
X74115750Y-91085000D01*
X73957000Y-91243750D01*
X73703000Y-91243750D01*
X73544250Y-91085000D01*
X73080000Y-91081928D01*
X72955518Y-91094188D01*
X72835820Y-91130498D01*
X72725506Y-91189463D01*
X72628815Y-91268815D01*
X72549463Y-91365506D01*
X72490498Y-91475820D01*
X72454188Y-91595518D01*
X72441928Y-91720000D01*
X70538722Y-91720000D01*
X72453133Y-89805590D01*
X72491896Y-89773778D01*
X72494156Y-89771024D01*
X72549463Y-89874494D01*
X72628815Y-89971185D01*
X72725506Y-90050537D01*
X72835820Y-90109502D01*
X72955518Y-90145812D01*
X73080000Y-90158072D01*
X74580000Y-90158072D01*
X74704482Y-90145812D01*
X74824180Y-90109502D01*
X74934494Y-90050537D01*
X75031185Y-89971185D01*
X75110537Y-89874494D01*
X75169502Y-89764180D01*
X75205812Y-89644482D01*
X75218072Y-89520000D01*
X75218072Y-89068769D01*
X75753133Y-88533708D01*
X75791896Y-88501896D01*
X75918860Y-88347190D01*
X75965464Y-88260000D01*
X76240001Y-88260000D01*
X76240000Y-90740000D01*
G37*
%TD.AperFunction*%
D13*
X60182795Y-85980256D02*
X60296063Y-86149774D01*
X60440226Y-86293937D01*
X60609744Y-86407205D01*
X60798102Y-86485226D01*
X60998061Y-86525000D01*
X61201939Y-86525000D01*
X61256844Y-86514079D01*
X62885258Y-88142494D01*
X62828815Y-88188815D01*
X62749463Y-88285506D01*
X62690498Y-88395820D01*
X62654188Y-88515518D01*
X62641928Y-88640000D01*
X62641928Y-89640000D01*
X62654188Y-89764482D01*
X62690498Y-89884180D01*
X62749463Y-89994494D01*
X62828815Y-90091185D01*
X62925506Y-90170537D01*
X63035820Y-90229502D01*
X63155518Y-90265812D01*
X63280000Y-90278072D01*
X64780000Y-90278072D01*
X64846928Y-90271480D01*
X64846928Y-90362500D01*
X64860175Y-90496999D01*
X61744234Y-90496999D01*
X60518072Y-89270837D01*
X60518072Y-88640000D01*
X60505812Y-88515518D01*
X60469502Y-88395820D01*
X60410537Y-88285506D01*
X60331185Y-88188815D01*
X60234494Y-88109463D01*
X60146000Y-88062161D01*
X60146000Y-85891426D01*
X60182795Y-85980256D01*
%TA.AperFunction,Conductor*%
D15*
G36*
X60182795Y-85980256D02*
G01*
X60296063Y-86149774D01*
X60440226Y-86293937D01*
X60609744Y-86407205D01*
X60798102Y-86485226D01*
X60998061Y-86525000D01*
X61201939Y-86525000D01*
X61256844Y-86514079D01*
X62885258Y-88142494D01*
X62828815Y-88188815D01*
X62749463Y-88285506D01*
X62690498Y-88395820D01*
X62654188Y-88515518D01*
X62641928Y-88640000D01*
X62641928Y-89640000D01*
X62654188Y-89764482D01*
X62690498Y-89884180D01*
X62749463Y-89994494D01*
X62828815Y-90091185D01*
X62925506Y-90170537D01*
X63035820Y-90229502D01*
X63155518Y-90265812D01*
X63280000Y-90278072D01*
X64780000Y-90278072D01*
X64846928Y-90271480D01*
X64846928Y-90362500D01*
X64860175Y-90496999D01*
X61744234Y-90496999D01*
X60518072Y-89270837D01*
X60518072Y-88640000D01*
X60505812Y-88515518D01*
X60469502Y-88395820D01*
X60410537Y-88285506D01*
X60331185Y-88188815D01*
X60234494Y-88109463D01*
X60146000Y-88062161D01*
X60146000Y-85891426D01*
X60182795Y-85980256D01*
G37*
%TD.AperFunction*%
D13*
X66727066Y-87236094D02*
X66679180Y-87210498D01*
X66559482Y-87174188D01*
X66435000Y-87161928D01*
X66245750Y-87165000D01*
X66087000Y-87323750D01*
X66087000Y-88210500D01*
X66107000Y-88210500D01*
X66107000Y-88464500D01*
X66087000Y-88464500D01*
X66087000Y-88484500D01*
X65833000Y-88484500D01*
X65833000Y-88464500D01*
X65813000Y-88464500D01*
X65813000Y-88210500D01*
X65833000Y-88210500D01*
X65833000Y-87323750D01*
X65674250Y-87165000D01*
X65485000Y-87161928D01*
X65360518Y-87174188D01*
X65240820Y-87210498D01*
X65130506Y-87269463D01*
X65033815Y-87348815D01*
X64954463Y-87445506D01*
X64895498Y-87555820D01*
X64859188Y-87675518D01*
X64857297Y-87694721D01*
X64855303Y-87688149D01*
X64772753Y-87533709D01*
X64717896Y-87466866D01*
X64689495Y-87432259D01*
X64689494Y-87432258D01*
X64661659Y-87398341D01*
X64627742Y-87370506D01*
X63997949Y-86740713D01*
X63999999Y-86740915D01*
X64049901Y-86736000D01*
X66290098Y-86736000D01*
X66340000Y-86740915D01*
X66389902Y-86736000D01*
X66539171Y-86721298D01*
X66589602Y-86706000D01*
X67257160Y-86706000D01*
X66727066Y-87236094D01*
%TA.AperFunction,Conductor*%
D15*
G36*
X66727066Y-87236094D02*
G01*
X66679180Y-87210498D01*
X66559482Y-87174188D01*
X66435000Y-87161928D01*
X66245750Y-87165000D01*
X66087000Y-87323750D01*
X66087000Y-88210500D01*
X66107000Y-88210500D01*
X66107000Y-88464500D01*
X66087000Y-88464500D01*
X66087000Y-88484500D01*
X65833000Y-88484500D01*
X65833000Y-88464500D01*
X65813000Y-88464500D01*
X65813000Y-88210500D01*
X65833000Y-88210500D01*
X65833000Y-87323750D01*
X65674250Y-87165000D01*
X65485000Y-87161928D01*
X65360518Y-87174188D01*
X65240820Y-87210498D01*
X65130506Y-87269463D01*
X65033815Y-87348815D01*
X64954463Y-87445506D01*
X64895498Y-87555820D01*
X64859188Y-87675518D01*
X64857297Y-87694721D01*
X64855303Y-87688149D01*
X64772753Y-87533709D01*
X64717896Y-87466866D01*
X64689495Y-87432259D01*
X64689494Y-87432258D01*
X64661659Y-87398341D01*
X64627742Y-87370506D01*
X63997949Y-86740713D01*
X63999999Y-86740915D01*
X64049901Y-86736000D01*
X66290098Y-86736000D01*
X66340000Y-86740915D01*
X66389902Y-86736000D01*
X66539171Y-86721298D01*
X66589602Y-86706000D01*
X67257160Y-86706000D01*
X66727066Y-87236094D01*
G37*
%TD.AperFunction*%
D13*
X64956928Y-83196664D02*
X64956928Y-83352500D01*
X64973752Y-83523316D01*
X65023577Y-83687567D01*
X65104488Y-83838942D01*
X65213377Y-83971623D01*
X65346058Y-84080512D01*
X65497433Y-84161423D01*
X65661684Y-84211248D01*
X65832500Y-84228072D01*
X66307500Y-84228072D01*
X66478316Y-84211248D01*
X66642567Y-84161423D01*
X66793942Y-84080512D01*
X66926623Y-83971623D01*
X67035512Y-83838942D01*
X67116423Y-83687567D01*
X67166248Y-83523316D01*
X67183072Y-83352500D01*
X67183072Y-83251094D01*
X67190947Y-83255303D01*
X67241659Y-83270686D01*
X67358522Y-83306136D01*
X67391722Y-83309406D01*
X67489131Y-83319000D01*
X67489137Y-83319000D01*
X67532797Y-83323300D01*
X67576457Y-83319000D01*
X69144159Y-83319000D01*
X67789160Y-84674000D01*
X66419893Y-84674000D01*
X66369999Y-84669086D01*
X66320105Y-84674000D01*
X66320098Y-84674000D01*
X66170829Y-84688702D01*
X66120398Y-84704000D01*
X64420841Y-84704000D01*
X63283010Y-83566169D01*
X63293712Y-83553128D01*
X64288769Y-82558072D01*
X64318337Y-82558072D01*
X64956928Y-83196664D01*
%TA.AperFunction,Conductor*%
D15*
G36*
X64956928Y-83196664D02*
G01*
X64956928Y-83352500D01*
X64973752Y-83523316D01*
X65023577Y-83687567D01*
X65104488Y-83838942D01*
X65213377Y-83971623D01*
X65346058Y-84080512D01*
X65497433Y-84161423D01*
X65661684Y-84211248D01*
X65832500Y-84228072D01*
X66307500Y-84228072D01*
X66478316Y-84211248D01*
X66642567Y-84161423D01*
X66793942Y-84080512D01*
X66926623Y-83971623D01*
X67035512Y-83838942D01*
X67116423Y-83687567D01*
X67166248Y-83523316D01*
X67183072Y-83352500D01*
X67183072Y-83251094D01*
X67190947Y-83255303D01*
X67241659Y-83270686D01*
X67358522Y-83306136D01*
X67391722Y-83309406D01*
X67489131Y-83319000D01*
X67489137Y-83319000D01*
X67532797Y-83323300D01*
X67576457Y-83319000D01*
X69144159Y-83319000D01*
X67789160Y-84674000D01*
X66419893Y-84674000D01*
X66369999Y-84669086D01*
X66320105Y-84674000D01*
X66320098Y-84674000D01*
X66170829Y-84688702D01*
X66120398Y-84704000D01*
X64420841Y-84704000D01*
X63283010Y-83566169D01*
X63293712Y-83553128D01*
X64288769Y-82558072D01*
X64318337Y-82558072D01*
X64956928Y-83196664D01*
G37*
%TD.AperFunction*%
D13*
X59740000Y-76467580D02*
X59736807Y-76500000D01*
X59749550Y-76629383D01*
X59787290Y-76753793D01*
X59848575Y-76868450D01*
X59920231Y-76955763D01*
X59931052Y-76968948D01*
X60031550Y-77051425D01*
X60146207Y-77112710D01*
X60270617Y-77150450D01*
X60400000Y-77163193D01*
X60432419Y-77160000D01*
X62940627Y-77160000D01*
X62885506Y-77189463D01*
X62788815Y-77268815D01*
X62709463Y-77365506D01*
X62650498Y-77475820D01*
X62614188Y-77595518D01*
X62601928Y-77720000D01*
X62601928Y-78720000D01*
X62614188Y-78844482D01*
X62650498Y-78964180D01*
X62709463Y-79074494D01*
X62788815Y-79171185D01*
X62885506Y-79250537D01*
X62995820Y-79309502D01*
X63115518Y-79345812D01*
X63240000Y-79358072D01*
X64740000Y-79358072D01*
X64864482Y-79345812D01*
X64984180Y-79309502D01*
X65026928Y-79286652D01*
X65026928Y-79782500D01*
X65043752Y-79953316D01*
X65093577Y-80117567D01*
X65174488Y-80268942D01*
X65196409Y-80295652D01*
X65143815Y-80338815D01*
X65099128Y-80393266D01*
X65094494Y-80389463D01*
X64984180Y-80330498D01*
X64864482Y-80294188D01*
X64740000Y-80281928D01*
X63240000Y-80281928D01*
X63115518Y-80294188D01*
X62995820Y-80330498D01*
X62885506Y-80389463D01*
X62788815Y-80468815D01*
X62709463Y-80565506D01*
X62650498Y-80675820D01*
X62614188Y-80795518D01*
X62601928Y-80920000D01*
X62601928Y-81371231D01*
X62119160Y-81854000D01*
X61347459Y-81854000D01*
X61251939Y-81835000D01*
X61048061Y-81835000D01*
X60848102Y-81874774D01*
X60659744Y-81952795D01*
X60490226Y-82066063D01*
X60445784Y-82110505D01*
X60465812Y-82044482D01*
X60478072Y-81920000D01*
X60478072Y-80920000D01*
X60465812Y-80795518D01*
X60429502Y-80675820D01*
X60370537Y-80565506D01*
X60291185Y-80468815D01*
X60194494Y-80389463D01*
X60084180Y-80330498D01*
X59964482Y-80294188D01*
X59840000Y-80281928D01*
X58340000Y-80281928D01*
X58215518Y-80294188D01*
X58095820Y-80330498D01*
X57985506Y-80389463D01*
X57888815Y-80468815D01*
X57809463Y-80565506D01*
X57750498Y-80675820D01*
X57714188Y-80795518D01*
X57701928Y-80920000D01*
X57701928Y-81550837D01*
X57560000Y-81692765D01*
X57560000Y-79532418D01*
X57563193Y-79500000D01*
X57550450Y-79370617D01*
X57512710Y-79246207D01*
X57451425Y-79131550D01*
X57368948Y-79031052D01*
X57268450Y-78948575D01*
X57153793Y-78887290D01*
X57029383Y-78849550D01*
X56932419Y-78840000D01*
X56900000Y-78836807D01*
X56867581Y-78840000D01*
X56560000Y-78840000D01*
X56560000Y-78720000D01*
X57701928Y-78720000D01*
X57714188Y-78844482D01*
X57750498Y-78964180D01*
X57809463Y-79074494D01*
X57888815Y-79171185D01*
X57985506Y-79250537D01*
X58095820Y-79309502D01*
X58215518Y-79345812D01*
X58340000Y-79358072D01*
X58804250Y-79355000D01*
X58963000Y-79196250D01*
X58963000Y-78347000D01*
X59217000Y-78347000D01*
X59217000Y-79196250D01*
X59375750Y-79355000D01*
X59840000Y-79358072D01*
X59964482Y-79345812D01*
X60084180Y-79309502D01*
X60194494Y-79250537D01*
X60291185Y-79171185D01*
X60370537Y-79074494D01*
X60429502Y-78964180D01*
X60465812Y-78844482D01*
X60478072Y-78720000D01*
X60475000Y-78505750D01*
X60316250Y-78347000D01*
X59217000Y-78347000D01*
X58963000Y-78347000D01*
X57863750Y-78347000D01*
X57705000Y-78505750D01*
X57701928Y-78720000D01*
X56560000Y-78720000D01*
X56560000Y-77720000D01*
X57701928Y-77720000D01*
X57705000Y-77934250D01*
X57863750Y-78093000D01*
X58963000Y-78093000D01*
X58963000Y-77243750D01*
X59217000Y-77243750D01*
X59217000Y-78093000D01*
X60316250Y-78093000D01*
X60475000Y-77934250D01*
X60478072Y-77720000D01*
X60465812Y-77595518D01*
X60429502Y-77475820D01*
X60370537Y-77365506D01*
X60291185Y-77268815D01*
X60194494Y-77189463D01*
X60084180Y-77130498D01*
X59964482Y-77094188D01*
X59840000Y-77081928D01*
X59375750Y-77085000D01*
X59217000Y-77243750D01*
X58963000Y-77243750D01*
X58804250Y-77085000D01*
X58340000Y-77081928D01*
X58215518Y-77094188D01*
X58095820Y-77130498D01*
X57985506Y-77189463D01*
X57888815Y-77268815D01*
X57809463Y-77365506D01*
X57750498Y-77475820D01*
X57714188Y-77595518D01*
X57701928Y-77720000D01*
X56560000Y-77720000D01*
X56560000Y-76160000D01*
X59740000Y-76160000D01*
X59740000Y-76467580D01*
%TA.AperFunction,Conductor*%
D15*
G36*
X59740000Y-76467580D02*
G01*
X59736807Y-76500000D01*
X59749550Y-76629383D01*
X59787290Y-76753793D01*
X59848575Y-76868450D01*
X59920231Y-76955763D01*
X59931052Y-76968948D01*
X60031550Y-77051425D01*
X60146207Y-77112710D01*
X60270617Y-77150450D01*
X60400000Y-77163193D01*
X60432419Y-77160000D01*
X62940627Y-77160000D01*
X62885506Y-77189463D01*
X62788815Y-77268815D01*
X62709463Y-77365506D01*
X62650498Y-77475820D01*
X62614188Y-77595518D01*
X62601928Y-77720000D01*
X62601928Y-78720000D01*
X62614188Y-78844482D01*
X62650498Y-78964180D01*
X62709463Y-79074494D01*
X62788815Y-79171185D01*
X62885506Y-79250537D01*
X62995820Y-79309502D01*
X63115518Y-79345812D01*
X63240000Y-79358072D01*
X64740000Y-79358072D01*
X64864482Y-79345812D01*
X64984180Y-79309502D01*
X65026928Y-79286652D01*
X65026928Y-79782500D01*
X65043752Y-79953316D01*
X65093577Y-80117567D01*
X65174488Y-80268942D01*
X65196409Y-80295652D01*
X65143815Y-80338815D01*
X65099128Y-80393266D01*
X65094494Y-80389463D01*
X64984180Y-80330498D01*
X64864482Y-80294188D01*
X64740000Y-80281928D01*
X63240000Y-80281928D01*
X63115518Y-80294188D01*
X62995820Y-80330498D01*
X62885506Y-80389463D01*
X62788815Y-80468815D01*
X62709463Y-80565506D01*
X62650498Y-80675820D01*
X62614188Y-80795518D01*
X62601928Y-80920000D01*
X62601928Y-81371231D01*
X62119160Y-81854000D01*
X61347459Y-81854000D01*
X61251939Y-81835000D01*
X61048061Y-81835000D01*
X60848102Y-81874774D01*
X60659744Y-81952795D01*
X60490226Y-82066063D01*
X60445784Y-82110505D01*
X60465812Y-82044482D01*
X60478072Y-81920000D01*
X60478072Y-80920000D01*
X60465812Y-80795518D01*
X60429502Y-80675820D01*
X60370537Y-80565506D01*
X60291185Y-80468815D01*
X60194494Y-80389463D01*
X60084180Y-80330498D01*
X59964482Y-80294188D01*
X59840000Y-80281928D01*
X58340000Y-80281928D01*
X58215518Y-80294188D01*
X58095820Y-80330498D01*
X57985506Y-80389463D01*
X57888815Y-80468815D01*
X57809463Y-80565506D01*
X57750498Y-80675820D01*
X57714188Y-80795518D01*
X57701928Y-80920000D01*
X57701928Y-81550837D01*
X57560000Y-81692765D01*
X57560000Y-79532418D01*
X57563193Y-79500000D01*
X57550450Y-79370617D01*
X57512710Y-79246207D01*
X57451425Y-79131550D01*
X57368948Y-79031052D01*
X57268450Y-78948575D01*
X57153793Y-78887290D01*
X57029383Y-78849550D01*
X56932419Y-78840000D01*
X56900000Y-78836807D01*
X56867581Y-78840000D01*
X56560000Y-78840000D01*
X56560000Y-78720000D01*
X57701928Y-78720000D01*
X57714188Y-78844482D01*
X57750498Y-78964180D01*
X57809463Y-79074494D01*
X57888815Y-79171185D01*
X57985506Y-79250537D01*
X58095820Y-79309502D01*
X58215518Y-79345812D01*
X58340000Y-79358072D01*
X58804250Y-79355000D01*
X58963000Y-79196250D01*
X58963000Y-78347000D01*
X59217000Y-78347000D01*
X59217000Y-79196250D01*
X59375750Y-79355000D01*
X59840000Y-79358072D01*
X59964482Y-79345812D01*
X60084180Y-79309502D01*
X60194494Y-79250537D01*
X60291185Y-79171185D01*
X60370537Y-79074494D01*
X60429502Y-78964180D01*
X60465812Y-78844482D01*
X60478072Y-78720000D01*
X60475000Y-78505750D01*
X60316250Y-78347000D01*
X59217000Y-78347000D01*
X58963000Y-78347000D01*
X57863750Y-78347000D01*
X57705000Y-78505750D01*
X57701928Y-78720000D01*
X56560000Y-78720000D01*
X56560000Y-77720000D01*
X57701928Y-77720000D01*
X57705000Y-77934250D01*
X57863750Y-78093000D01*
X58963000Y-78093000D01*
X58963000Y-77243750D01*
X59217000Y-77243750D01*
X59217000Y-78093000D01*
X60316250Y-78093000D01*
X60475000Y-77934250D01*
X60478072Y-77720000D01*
X60465812Y-77595518D01*
X60429502Y-77475820D01*
X60370537Y-77365506D01*
X60291185Y-77268815D01*
X60194494Y-77189463D01*
X60084180Y-77130498D01*
X59964482Y-77094188D01*
X59840000Y-77081928D01*
X59375750Y-77085000D01*
X59217000Y-77243750D01*
X58963000Y-77243750D01*
X58804250Y-77085000D01*
X58340000Y-77081928D01*
X58215518Y-77094188D01*
X58095820Y-77130498D01*
X57985506Y-77189463D01*
X57888815Y-77268815D01*
X57809463Y-77365506D01*
X57750498Y-77475820D01*
X57714188Y-77595518D01*
X57701928Y-77720000D01*
X56560000Y-77720000D01*
X56560000Y-76160000D01*
X59740000Y-76160000D01*
X59740000Y-76467580D01*
G37*
%TD.AperFunction*%
D13*
X66110011Y-81474500D02*
X65943000Y-81474500D01*
X65943000Y-81454500D01*
X65923000Y-81454500D01*
X65923000Y-81200500D01*
X65943000Y-81200500D01*
X65943000Y-81180500D01*
X66110010Y-81180500D01*
X66110011Y-81474500D01*
%TA.AperFunction,Conductor*%
D15*
G36*
X66110011Y-81474500D02*
G01*
X65943000Y-81474500D01*
X65943000Y-81454500D01*
X65923000Y-81454500D01*
X65923000Y-81200500D01*
X65943000Y-81200500D01*
X65943000Y-81180500D01*
X66110010Y-81180500D01*
X66110011Y-81474500D01*
G37*
%TD.AperFunction*%
D13*
X75240000Y-78533160D02*
X74908072Y-78201232D01*
X74908072Y-77750000D01*
X74895812Y-77625518D01*
X74859502Y-77505820D01*
X74800537Y-77395506D01*
X74721185Y-77298815D01*
X74624494Y-77219463D01*
X74514180Y-77160498D01*
X74394482Y-77124188D01*
X74270000Y-77111928D01*
X72770000Y-77111928D01*
X72645518Y-77124188D01*
X72525820Y-77160498D01*
X72415506Y-77219463D01*
X72318815Y-77298815D01*
X72239463Y-77395506D01*
X72180498Y-77505820D01*
X72144188Y-77625518D01*
X72131928Y-77750000D01*
X72131928Y-78750000D01*
X72144188Y-78874482D01*
X72180498Y-78994180D01*
X72239463Y-79104494D01*
X72318815Y-79201185D01*
X72415506Y-79280537D01*
X72525820Y-79339502D01*
X72645518Y-79375812D01*
X72770000Y-79388072D01*
X73221232Y-79388072D01*
X74054000Y-80220841D01*
X74054000Y-80311928D01*
X73639163Y-80311928D01*
X73239499Y-79912264D01*
X73211659Y-79878341D01*
X73076291Y-79767247D01*
X72921851Y-79684697D01*
X72754274Y-79633864D01*
X72623667Y-79621000D01*
X72623660Y-79621000D01*
X72580000Y-79616700D01*
X72536340Y-79621000D01*
X71670861Y-79621000D01*
X71627201Y-79616700D01*
X71583541Y-79621000D01*
X71583535Y-79621000D01*
X71471275Y-79632057D01*
X71452927Y-79633864D01*
X71379960Y-79655998D01*
X71285351Y-79684697D01*
X71130911Y-79767247D01*
X70995543Y-79878341D01*
X70967708Y-79912258D01*
X70001069Y-80878897D01*
X69995812Y-80825518D01*
X69959502Y-80705820D01*
X69900537Y-80595506D01*
X69821185Y-80498815D01*
X69724494Y-80419463D01*
X69614180Y-80360498D01*
X69501919Y-80326444D01*
X69496136Y-80267726D01*
X69496136Y-80267724D01*
X69463458Y-80160000D01*
X69445303Y-80100149D01*
X69362753Y-79945709D01*
X69251659Y-79810341D01*
X69217741Y-79782506D01*
X68747002Y-79311767D01*
X68747002Y-79226252D01*
X68905750Y-79385000D01*
X69370000Y-79388072D01*
X69494482Y-79375812D01*
X69614180Y-79339502D01*
X69724494Y-79280537D01*
X69821185Y-79201185D01*
X69900537Y-79104494D01*
X69959502Y-78994180D01*
X69995812Y-78874482D01*
X70008072Y-78750000D01*
X70005000Y-78535750D01*
X69846250Y-78377000D01*
X68747000Y-78377000D01*
X68747000Y-78397000D01*
X68493000Y-78397000D01*
X68493000Y-78377000D01*
X68473000Y-78377000D01*
X68473000Y-78123000D01*
X68493000Y-78123000D01*
X68493000Y-78103000D01*
X68747000Y-78103000D01*
X68747000Y-78123000D01*
X69846250Y-78123000D01*
X70005000Y-77964250D01*
X70008072Y-77750000D01*
X69995812Y-77625518D01*
X69959502Y-77505820D01*
X69900537Y-77395506D01*
X69821185Y-77298815D01*
X69724494Y-77219463D01*
X69614180Y-77160498D01*
X69612538Y-77160000D01*
X72367581Y-77160000D01*
X72400000Y-77163193D01*
X72432419Y-77160000D01*
X72529383Y-77150450D01*
X72653793Y-77112710D01*
X72768450Y-77051425D01*
X72868948Y-76968948D01*
X72951425Y-76868450D01*
X73012710Y-76753793D01*
X73050450Y-76629383D01*
X73063193Y-76500000D01*
X73060000Y-76467581D01*
X73060000Y-76160000D01*
X75240001Y-76160000D01*
X75240000Y-78533160D01*
%TA.AperFunction,Conductor*%
D15*
G36*
X75240000Y-78533160D02*
G01*
X74908072Y-78201232D01*
X74908072Y-77750000D01*
X74895812Y-77625518D01*
X74859502Y-77505820D01*
X74800537Y-77395506D01*
X74721185Y-77298815D01*
X74624494Y-77219463D01*
X74514180Y-77160498D01*
X74394482Y-77124188D01*
X74270000Y-77111928D01*
X72770000Y-77111928D01*
X72645518Y-77124188D01*
X72525820Y-77160498D01*
X72415506Y-77219463D01*
X72318815Y-77298815D01*
X72239463Y-77395506D01*
X72180498Y-77505820D01*
X72144188Y-77625518D01*
X72131928Y-77750000D01*
X72131928Y-78750000D01*
X72144188Y-78874482D01*
X72180498Y-78994180D01*
X72239463Y-79104494D01*
X72318815Y-79201185D01*
X72415506Y-79280537D01*
X72525820Y-79339502D01*
X72645518Y-79375812D01*
X72770000Y-79388072D01*
X73221232Y-79388072D01*
X74054000Y-80220841D01*
X74054000Y-80311928D01*
X73639163Y-80311928D01*
X73239499Y-79912264D01*
X73211659Y-79878341D01*
X73076291Y-79767247D01*
X72921851Y-79684697D01*
X72754274Y-79633864D01*
X72623667Y-79621000D01*
X72623660Y-79621000D01*
X72580000Y-79616700D01*
X72536340Y-79621000D01*
X71670861Y-79621000D01*
X71627201Y-79616700D01*
X71583541Y-79621000D01*
X71583535Y-79621000D01*
X71471275Y-79632057D01*
X71452927Y-79633864D01*
X71379960Y-79655998D01*
X71285351Y-79684697D01*
X71130911Y-79767247D01*
X70995543Y-79878341D01*
X70967708Y-79912258D01*
X70001069Y-80878897D01*
X69995812Y-80825518D01*
X69959502Y-80705820D01*
X69900537Y-80595506D01*
X69821185Y-80498815D01*
X69724494Y-80419463D01*
X69614180Y-80360498D01*
X69501919Y-80326444D01*
X69496136Y-80267726D01*
X69496136Y-80267724D01*
X69463458Y-80160000D01*
X69445303Y-80100149D01*
X69362753Y-79945709D01*
X69251659Y-79810341D01*
X69217741Y-79782506D01*
X68747002Y-79311767D01*
X68747002Y-79226252D01*
X68905750Y-79385000D01*
X69370000Y-79388072D01*
X69494482Y-79375812D01*
X69614180Y-79339502D01*
X69724494Y-79280537D01*
X69821185Y-79201185D01*
X69900537Y-79104494D01*
X69959502Y-78994180D01*
X69995812Y-78874482D01*
X70008072Y-78750000D01*
X70005000Y-78535750D01*
X69846250Y-78377000D01*
X68747000Y-78377000D01*
X68747000Y-78397000D01*
X68493000Y-78397000D01*
X68493000Y-78377000D01*
X68473000Y-78377000D01*
X68473000Y-78123000D01*
X68493000Y-78123000D01*
X68493000Y-78103000D01*
X68747000Y-78103000D01*
X68747000Y-78123000D01*
X69846250Y-78123000D01*
X70005000Y-77964250D01*
X70008072Y-77750000D01*
X69995812Y-77625518D01*
X69959502Y-77505820D01*
X69900537Y-77395506D01*
X69821185Y-77298815D01*
X69724494Y-77219463D01*
X69614180Y-77160498D01*
X69612538Y-77160000D01*
X72367581Y-77160000D01*
X72400000Y-77163193D01*
X72432419Y-77160000D01*
X72529383Y-77150450D01*
X72653793Y-77112710D01*
X72768450Y-77051425D01*
X72868948Y-76968948D01*
X72951425Y-76868450D01*
X73012710Y-76753793D01*
X73050450Y-76629383D01*
X73063193Y-76500000D01*
X73060000Y-76467581D01*
X73060000Y-76160000D01*
X75240001Y-76160000D01*
X75240000Y-78533160D01*
G37*
%TD.AperFunction*%
D13*
X66267000Y-77626291D02*
X66267000Y-77630500D01*
X66271208Y-77630500D01*
X66287000Y-77646292D01*
X66287000Y-77884500D01*
X66267000Y-77884500D01*
X66267000Y-77904500D01*
X66013000Y-77904500D01*
X66013000Y-77884500D01*
X65993000Y-77884500D01*
X65993000Y-77630500D01*
X66013000Y-77630500D01*
X66013000Y-77610500D01*
X66251209Y-77610500D01*
X66267000Y-77626291D01*
%TA.AperFunction,Conductor*%
D15*
G36*
X66267000Y-77626291D02*
G01*
X66267000Y-77630500D01*
X66271208Y-77630500D01*
X66287000Y-77646292D01*
X66287000Y-77884500D01*
X66267000Y-77884500D01*
X66267000Y-77904500D01*
X66013000Y-77904500D01*
X66013000Y-77884500D01*
X65993000Y-77884500D01*
X65993000Y-77630500D01*
X66013000Y-77630500D01*
X66013000Y-77610500D01*
X66251209Y-77610500D01*
X66267000Y-77626291D01*
G37*
%TD.AperFunction*%
%TD*%
D16*
%TO.N,/in-rgb*%
X61356390Y-85186772D02*
X61356449Y-85186803D01*
X61425372Y-85222163D01*
X61489232Y-85255585D01*
X61549979Y-85289224D01*
X61609538Y-85325218D01*
X61669874Y-85365731D01*
X61732873Y-85412888D01*
X61800520Y-85468897D01*
X61874710Y-85535911D01*
X61948198Y-85607220D01*
X61606856Y-85948562D01*
X61578275Y-85921415D01*
X61577682Y-85920886D01*
X61541683Y-85890743D01*
X61540872Y-85890117D01*
X61506098Y-85865481D01*
X61505006Y-85864788D01*
X61471127Y-85845636D01*
X61469704Y-85844945D01*
X61436390Y-85831257D01*
X61434635Y-85830681D01*
X61401556Y-85822435D01*
X61399562Y-85822104D01*
X61366388Y-85819278D01*
X61364340Y-85819269D01*
X61330740Y-85821842D01*
X61328846Y-85822132D01*
X61294492Y-85830083D01*
X61292892Y-85830567D01*
X61265237Y-85840951D01*
X60918429Y-85483774D01*
X61288532Y-85151509D01*
X61356390Y-85186772D01*
%TA.AperFunction,Conductor*%
D15*
G36*
X61356390Y-85186772D02*
G01*
X61356449Y-85186803D01*
X61425372Y-85222163D01*
X61489232Y-85255585D01*
X61549979Y-85289224D01*
X61609538Y-85325218D01*
X61669874Y-85365731D01*
X61732873Y-85412888D01*
X61800520Y-85468897D01*
X61874710Y-85535911D01*
X61948198Y-85607220D01*
X61606856Y-85948562D01*
X61578275Y-85921415D01*
X61577682Y-85920886D01*
X61541683Y-85890743D01*
X61540872Y-85890117D01*
X61506098Y-85865481D01*
X61505006Y-85864788D01*
X61471127Y-85845636D01*
X61469704Y-85844945D01*
X61436390Y-85831257D01*
X61434635Y-85830681D01*
X61401556Y-85822435D01*
X61399562Y-85822104D01*
X61366388Y-85819278D01*
X61364340Y-85819269D01*
X61330740Y-85821842D01*
X61328846Y-85822132D01*
X61294492Y-85830083D01*
X61292892Y-85830567D01*
X61265237Y-85840951D01*
X60918429Y-85483774D01*
X61288532Y-85151509D01*
X61356390Y-85186772D01*
G37*
%TD.AperFunction*%
%TD*%
D17*
X63660000Y-90440000D03*
X65050000Y-86940000D03*
X60980000Y-92270000D03*
X71520000Y-78820000D03*
X64600000Y-84360000D03*
X68110000Y-83650000D03*
X61910000Y-79410000D03*
X71740000Y-83030000D03*
X61150000Y-82870000D03*
X69130000Y-90240000D03*
X61100000Y-85490000D03*
X71770000Y-85680000D03*
M02*
