%TF.GenerationSoftware,KiCad,Pcbnew,(5.1.10)-1*%
%TF.CreationDate,2021-06-06T01:41:03+08:00*%
%TF.ProjectId,WS2812B1,57533238-3132-4423-912e-6b696361645f,rev?*%
%TF.SameCoordinates,Original*%
%TF.FileFunction,Legend,Bot*%
%TF.FilePolarity,Positive*%
%FSLAX46Y46*%
G04 Gerber Fmt 4.6, Leading zero omitted, Abs format (unit mm)*
G04 Created by KiCad (PCBNEW (5.1.10)-1) date 2021-06-06 01:41:03*
%MOMM*%
%LPD*%
G01*
G04 APERTURE LIST*
%ADD10C,0.150000*%
%ADD11C,0.101600*%
%ADD12C,0.120000*%
G04 APERTURE END LIST*
D10*
X69980000Y-85322380D02*
X69789523Y-85322380D01*
X69694285Y-85370000D01*
X69599047Y-85465238D01*
X69551428Y-85655714D01*
X69551428Y-85989047D01*
X69599047Y-86179523D01*
X69694285Y-86274761D01*
X69789523Y-86322380D01*
X69980000Y-86322380D01*
X70075238Y-86274761D01*
X70170476Y-86179523D01*
X70218095Y-85989047D01*
X70218095Y-85655714D01*
X70170476Y-85465238D01*
X70075238Y-85370000D01*
X69980000Y-85322380D01*
X69122857Y-85322380D02*
X69122857Y-86131904D01*
X69075238Y-86227142D01*
X69027619Y-86274761D01*
X68932380Y-86322380D01*
X68741904Y-86322380D01*
X68646666Y-86274761D01*
X68599047Y-86227142D01*
X68551428Y-86131904D01*
X68551428Y-85322380D01*
X68218095Y-85322380D02*
X67646666Y-85322380D01*
X67932380Y-86322380D02*
X67932380Y-85322380D01*
X66853809Y-88402380D02*
X66853809Y-87402380D01*
X66377619Y-88402380D02*
X66377619Y-87402380D01*
X65806190Y-88402380D01*
X65806190Y-87402380D01*
X67460000Y-82322380D02*
X67269523Y-82322380D01*
X67174285Y-82370000D01*
X67079047Y-82465238D01*
X67031428Y-82655714D01*
X67031428Y-82989047D01*
X67079047Y-83179523D01*
X67174285Y-83274761D01*
X67269523Y-83322380D01*
X67460000Y-83322380D01*
X67555238Y-83274761D01*
X67650476Y-83179523D01*
X67698095Y-82989047D01*
X67698095Y-82655714D01*
X67650476Y-82465238D01*
X67555238Y-82370000D01*
X67460000Y-82322380D01*
X66602857Y-82322380D02*
X66602857Y-83131904D01*
X66555238Y-83227142D01*
X66507619Y-83274761D01*
X66412380Y-83322380D01*
X66221904Y-83322380D01*
X66126666Y-83274761D01*
X66079047Y-83227142D01*
X66031428Y-83131904D01*
X66031428Y-82322380D01*
X65698095Y-82322380D02*
X65126666Y-82322380D01*
X65412380Y-83322380D02*
X65412380Y-82322380D01*
X63823809Y-85952380D02*
X63823809Y-84952380D01*
X63347619Y-85952380D02*
X63347619Y-84952380D01*
X62776190Y-85952380D01*
X62776190Y-84952380D01*
D11*
X74929642Y-91692500D02*
X74990119Y-91662261D01*
X75080833Y-91662261D01*
X75171547Y-91692500D01*
X75232023Y-91752976D01*
X75262261Y-91813452D01*
X75292500Y-91934404D01*
X75292500Y-92025119D01*
X75262261Y-92146071D01*
X75232023Y-92206547D01*
X75171547Y-92267023D01*
X75080833Y-92297261D01*
X75020357Y-92297261D01*
X74929642Y-92267023D01*
X74899404Y-92236785D01*
X74899404Y-92025119D01*
X75020357Y-92025119D01*
X74627261Y-92297261D02*
X74627261Y-91662261D01*
X74264404Y-92297261D01*
X74264404Y-91662261D01*
X73962023Y-92297261D02*
X73962023Y-91662261D01*
X73810833Y-91662261D01*
X73720119Y-91692500D01*
X73659642Y-91752976D01*
X73629404Y-91813452D01*
X73599166Y-91934404D01*
X73599166Y-92025119D01*
X73629404Y-92146071D01*
X73659642Y-92206547D01*
X73720119Y-92267023D01*
X73810833Y-92297261D01*
X73962023Y-92297261D01*
X72843214Y-92297261D02*
X72843214Y-91662261D01*
X72692023Y-91662261D01*
X72601309Y-91692500D01*
X72540833Y-91752976D01*
X72510595Y-91813452D01*
X72480357Y-91934404D01*
X72480357Y-92025119D01*
X72510595Y-92146071D01*
X72540833Y-92206547D01*
X72601309Y-92267023D01*
X72692023Y-92297261D01*
X72843214Y-92297261D01*
X71422023Y-91662261D02*
X71724404Y-91662261D01*
X71754642Y-91964642D01*
X71724404Y-91934404D01*
X71663928Y-91904166D01*
X71512738Y-91904166D01*
X71452261Y-91934404D01*
X71422023Y-91964642D01*
X71391785Y-92025119D01*
X71391785Y-92176309D01*
X71422023Y-92236785D01*
X71452261Y-92267023D01*
X71512738Y-92297261D01*
X71663928Y-92297261D01*
X71724404Y-92267023D01*
X71754642Y-92236785D01*
X71210357Y-91662261D02*
X70998690Y-92297261D01*
X70787023Y-91662261D01*
D12*
%TO.C,R12*%
X67800000Y-76410000D02*
X67890000Y-81880000D01*
X70490000Y-81900000D02*
X70470000Y-76420000D01*
X70470000Y-76410000D02*
X67800000Y-76410000D01*
X67900000Y-81900000D02*
X70480000Y-81900000D01*
%TO.C,R11*%
X56840000Y-86850000D02*
X62310000Y-86760000D01*
X62330000Y-84160000D02*
X56850000Y-84180000D01*
X56840000Y-84180000D02*
X56840000Y-86850000D01*
X62330000Y-86750000D02*
X62330000Y-84170000D01*
%TO.C,R10*%
X76070000Y-81640000D02*
X70600000Y-81730000D01*
X70580000Y-84330000D02*
X76060000Y-84310000D01*
X76070000Y-84310000D02*
X76070000Y-81640000D01*
X70580000Y-81740000D02*
X70580000Y-84320000D01*
%TO.C,R9*%
X76050000Y-87040000D02*
X70580000Y-87130000D01*
X70560000Y-89730000D02*
X76040000Y-89710000D01*
X76050000Y-89710000D02*
X76050000Y-87040000D01*
X70560000Y-87140000D02*
X70560000Y-89720000D01*
%TO.C,R8*%
X67700000Y-89000000D02*
X65120000Y-89000000D01*
X65130000Y-94490000D02*
X67800000Y-94490000D01*
X65110000Y-89000000D02*
X65130000Y-94480000D01*
X67800000Y-94490000D02*
X67710000Y-89020000D01*
%TO.C,R7*%
X62330000Y-76410000D02*
X62420000Y-81880000D01*
X65020000Y-81900000D02*
X65000000Y-76420000D01*
X65000000Y-76410000D02*
X62330000Y-76410000D01*
X62430000Y-81900000D02*
X65010000Y-81900000D01*
%TO.C,R6*%
X65050000Y-94520000D02*
X64960000Y-89050000D01*
X62360000Y-89030000D02*
X62380000Y-94510000D01*
X62380000Y-94520000D02*
X65050000Y-94520000D01*
X64950000Y-89030000D02*
X62370000Y-89030000D01*
%TO.C,R5*%
X76080000Y-84350000D02*
X70610000Y-84440000D01*
X70590000Y-87040000D02*
X76070000Y-87020000D01*
X76080000Y-87020000D02*
X76080000Y-84350000D01*
X70590000Y-84450000D02*
X70590000Y-87030000D01*
%TO.C,R4*%
X70520000Y-94470000D02*
X70430000Y-89000000D01*
X67830000Y-88980000D02*
X67850000Y-94460000D01*
X67850000Y-94470000D02*
X70520000Y-94470000D01*
X70420000Y-88980000D02*
X67840000Y-88980000D01*
%TO.C,R3*%
X56840000Y-89590000D02*
X62310000Y-89500000D01*
X62330000Y-86900000D02*
X56850000Y-86920000D01*
X56840000Y-86920000D02*
X56840000Y-89590000D01*
X62330000Y-89490000D02*
X62330000Y-86910000D01*
%TO.C,R2*%
X65190000Y-81900000D02*
X67770000Y-81900000D01*
X67760000Y-76410000D02*
X65090000Y-76410000D01*
X67780000Y-81900000D02*
X67760000Y-76420000D01*
X65090000Y-76410000D02*
X65180000Y-81880000D01*
%TO.C,R1*%
X56840000Y-84080000D02*
X62310000Y-83990000D01*
X62330000Y-81390000D02*
X56850000Y-81410000D01*
X56840000Y-81410000D02*
X56840000Y-84080000D01*
X62330000Y-83980000D02*
X62330000Y-81400000D01*
%TD*%
M02*
