%TF.GenerationSoftware,KiCad,Pcbnew,(5.1.10)-1*%
%TF.CreationDate,2021-06-06T01:41:03+08:00*%
%TF.ProjectId,WS2812B1,57533238-3132-4423-912e-6b696361645f,rev?*%
%TF.SameCoordinates,Original*%
%TF.FileFunction,Legend,Top*%
%TF.FilePolarity,Positive*%
%FSLAX46Y46*%
G04 Gerber Fmt 4.6, Leading zero omitted, Abs format (unit mm)*
G04 Created by KiCad (PCBNEW (5.1.10)-1) date 2021-06-06 01:41:03*
%MOMM*%
%LPD*%
G01*
G04 APERTURE LIST*
%ADD10C,0.120000*%
G04 APERTURE END LIST*
D10*
%TO.C,D4*%
X75030000Y-93370000D02*
X75030000Y-92220000D01*
X67730000Y-93370000D02*
X75030000Y-93370000D01*
X67730000Y-87870000D02*
X75030000Y-87870000D01*
%TO.C,D3*%
X67420000Y-77100000D02*
X67420000Y-78250000D01*
X74720000Y-77100000D02*
X67420000Y-77100000D01*
X74720000Y-82600000D02*
X67420000Y-82600000D01*
%TO.C,D2*%
X57890000Y-77070000D02*
X57890000Y-78220000D01*
X65190000Y-77070000D02*
X57890000Y-77070000D01*
X65190000Y-82570000D02*
X57890000Y-82570000D01*
%TO.C,D1*%
X65230000Y-93490000D02*
X65230000Y-92340000D01*
X57930000Y-93490000D02*
X65230000Y-93490000D01*
X57930000Y-87990000D02*
X65230000Y-87990000D01*
%TO.C,C4*%
X65450000Y-92463733D02*
X65450000Y-92756267D01*
X66470000Y-92463733D02*
X66470000Y-92756267D01*
%TO.C,C3*%
X66470000Y-89346267D02*
X66470000Y-89053733D01*
X65450000Y-89346267D02*
X65450000Y-89053733D01*
%TO.C,C2*%
X66580000Y-82336267D02*
X66580000Y-82043733D01*
X65560000Y-82336267D02*
X65560000Y-82043733D01*
%TO.C,C1*%
X66650000Y-78766267D02*
X66650000Y-78473733D01*
X65630000Y-78766267D02*
X65630000Y-78473733D01*
%TD*%
M02*
