%TF.GenerationSoftware,KiCad,Pcbnew,(5.1.10)-1*%
%TF.CreationDate,2021-06-06T01:41:03+08:00*%
%TF.ProjectId,WS2812B1,57533238-3132-4423-912e-6b696361645f,rev?*%
%TF.SameCoordinates,Original*%
%TF.FileFunction,Profile,NP*%
%FSLAX46Y46*%
G04 Gerber Fmt 4.6, Leading zero omitted, Abs format (unit mm)*
G04 Created by KiCad (PCBNEW (5.1.10)-1) date 2021-06-06 01:41:03*
%MOMM*%
%LPD*%
G01*
G04 APERTURE LIST*
%TA.AperFunction,Profile*%
%ADD10C,0.050000*%
%TD*%
G04 APERTURE END LIST*
D10*
X60400000Y-75500000D02*
X55900000Y-75500000D01*
X60400000Y-76500000D02*
X60400000Y-75500000D01*
X64400000Y-76500000D02*
X60400000Y-76500000D01*
X64400000Y-75500000D02*
X64400000Y-76500000D01*
X68400000Y-75500000D02*
X64400000Y-75500000D01*
X68400000Y-76500000D02*
X68400000Y-75500000D01*
X72400000Y-76500000D02*
X68400000Y-76500000D01*
X72400000Y-75500000D02*
X72400000Y-76500000D01*
X75900000Y-75500000D02*
X72400000Y-75500000D01*
X75900000Y-79600000D02*
X75900000Y-75500000D01*
X76900000Y-79600000D02*
X75900000Y-79600000D01*
X76900000Y-83400000D02*
X76900000Y-79600000D01*
X75900000Y-83400000D02*
X76900000Y-83400000D01*
X75900000Y-87600000D02*
X75900000Y-83400000D01*
X76900000Y-87600000D02*
X75900000Y-87600000D01*
X76900000Y-91400000D02*
X76900000Y-87600000D01*
X75900000Y-91400000D02*
X76900000Y-91400000D01*
X75900000Y-95500000D02*
X75900000Y-91400000D01*
X72400000Y-95500000D02*
X75900000Y-95500000D01*
X72400000Y-94500000D02*
X72400000Y-95500000D01*
X68400000Y-94500000D02*
X72400000Y-94500000D01*
X68400000Y-95500000D02*
X68400000Y-94500000D01*
X64400000Y-95500000D02*
X68400000Y-95500000D01*
X64400000Y-94500000D02*
X64400000Y-95500000D01*
X60400000Y-94500000D02*
X64400000Y-94500000D01*
X60400000Y-95500000D02*
X60400000Y-94500000D01*
X55900000Y-95500000D02*
X60400000Y-95500000D01*
X55900000Y-91500000D02*
X55900000Y-95500000D01*
X56900000Y-91500000D02*
X55900000Y-91500000D01*
X56900000Y-87500000D02*
X56900000Y-91500000D01*
X55900000Y-79500000D02*
X55900000Y-75500000D01*
X55900000Y-87500000D02*
X56900000Y-87500000D01*
X55900000Y-83500000D02*
X55900000Y-87500000D01*
X56900000Y-83500000D02*
X55900000Y-83500000D01*
X56900000Y-79500000D02*
X56900000Y-83500000D01*
X55900000Y-79500000D02*
X56900000Y-79500000D01*
M02*
